%TF.GenerationSoftware,KiCad,Pcbnew,(5.1.12)-1*%
%TF.CreationDate,2021-11-16T18:17:40+08:00*%
%TF.ProjectId,CVModule,43564d6f-6475-46c6-952e-6b696361645f,rev?*%
%TF.SameCoordinates,Original*%
%TF.FileFunction,Copper,L1,Top*%
%TF.FilePolarity,Positive*%
%FSLAX46Y46*%
G04 Gerber Fmt 4.6, Leading zero omitted, Abs format (unit mm)*
G04 Created by KiCad (PCBNEW (5.1.12)-1) date 2021-11-16 18:17:40*
%MOMM*%
%LPD*%
G01*
G04 APERTURE LIST*
%TA.AperFunction,NonConductor*%
%ADD10C,0.300000*%
%TD*%
%TA.AperFunction,ComponentPad*%
%ADD11C,1.800000*%
%TD*%
%TA.AperFunction,ComponentPad*%
%ADD12O,3.960000X1.980000*%
%TD*%
%TA.AperFunction,ComponentPad*%
%ADD13O,5.000000X3.000000*%
%TD*%
%TA.AperFunction,ComponentPad*%
%ADD14R,5.000000X3.000000*%
%TD*%
%TA.AperFunction,ComponentPad*%
%ADD15O,2.000000X1.905000*%
%TD*%
%TA.AperFunction,ComponentPad*%
%ADD16R,2.000000X1.905000*%
%TD*%
%TA.AperFunction,ComponentPad*%
%ADD17R,1.700000X1.700000*%
%TD*%
%TA.AperFunction,SMDPad,CuDef*%
%ADD18R,1.700000X1.300000*%
%TD*%
%TA.AperFunction,ComponentPad*%
%ADD19R,1.600000X1.600000*%
%TD*%
%TA.AperFunction,ComponentPad*%
%ADD20C,1.600000*%
%TD*%
%TA.AperFunction,SMDPad,CuDef*%
%ADD21R,1.300000X1.700000*%
%TD*%
%TA.AperFunction,ConnectorPad*%
%ADD22C,5.600000*%
%TD*%
%TA.AperFunction,ComponentPad*%
%ADD23C,3.600000*%
%TD*%
%TA.AperFunction,ComponentPad*%
%ADD24O,1.700000X1.700000*%
%TD*%
%TA.AperFunction,ComponentPad*%
%ADD25C,3.500000*%
%TD*%
%TA.AperFunction,ComponentPad*%
%ADD26O,2.800000X2.000000*%
%TD*%
%TA.AperFunction,ComponentPad*%
%ADD27R,2.800000X2.000000*%
%TD*%
%TA.AperFunction,ComponentPad*%
%ADD28R,1.100000X1.800000*%
%TD*%
%TA.AperFunction,ComponentPad*%
%ADD29O,1.600000X1.600000*%
%TD*%
%TA.AperFunction,ComponentPad*%
%ADD30C,1.440000*%
%TD*%
%TA.AperFunction,SMDPad,CuDef*%
%ADD31R,1.200000X2.200000*%
%TD*%
%TA.AperFunction,SMDPad,CuDef*%
%ADD32R,5.800000X6.400000*%
%TD*%
%TA.AperFunction,ViaPad*%
%ADD33C,1.000000*%
%TD*%
%TA.AperFunction,Conductor*%
%ADD34C,0.635000*%
%TD*%
%TA.AperFunction,Conductor*%
%ADD35C,0.508000*%
%TD*%
%TA.AperFunction,Conductor*%
%ADD36C,1.270000*%
%TD*%
%TA.AperFunction,Conductor*%
%ADD37C,1.905000*%
%TD*%
%TA.AperFunction,Conductor*%
%ADD38C,0.254000*%
%TD*%
%TA.AperFunction,Conductor*%
%ADD39C,0.100000*%
%TD*%
G04 APERTURE END LIST*
D10*
X59590714Y-101885714D02*
X59662142Y-101957142D01*
X59733571Y-102171428D01*
X59733571Y-102314285D01*
X59662142Y-102528571D01*
X59519285Y-102671428D01*
X59376428Y-102742857D01*
X59090714Y-102814285D01*
X58876428Y-102814285D01*
X58590714Y-102742857D01*
X58447857Y-102671428D01*
X58305000Y-102528571D01*
X58233571Y-102314285D01*
X58233571Y-102171428D01*
X58305000Y-101957142D01*
X58376428Y-101885714D01*
X59590714Y-100385714D02*
X59662142Y-100457142D01*
X59733571Y-100671428D01*
X59733571Y-100814285D01*
X59662142Y-101028571D01*
X59519285Y-101171428D01*
X59376428Y-101242857D01*
X59090714Y-101314285D01*
X58876428Y-101314285D01*
X58590714Y-101242857D01*
X58447857Y-101171428D01*
X58305000Y-101028571D01*
X58233571Y-100814285D01*
X58233571Y-100671428D01*
X58305000Y-100457142D01*
X58376428Y-100385714D01*
X53875714Y-101778571D02*
X53947142Y-101850000D01*
X54018571Y-102064285D01*
X54018571Y-102207142D01*
X53947142Y-102421428D01*
X53804285Y-102564285D01*
X53661428Y-102635714D01*
X53375714Y-102707142D01*
X53161428Y-102707142D01*
X52875714Y-102635714D01*
X52732857Y-102564285D01*
X52590000Y-102421428D01*
X52518571Y-102207142D01*
X52518571Y-102064285D01*
X52590000Y-101850000D01*
X52661428Y-101778571D01*
X52518571Y-101350000D02*
X54018571Y-100850000D01*
X52518571Y-100350000D01*
X48938571Y-102746428D02*
X47438571Y-102746428D01*
X47438571Y-102175000D01*
X47510000Y-102032142D01*
X47581428Y-101960714D01*
X47724285Y-101889285D01*
X47938571Y-101889285D01*
X48081428Y-101960714D01*
X48152857Y-102032142D01*
X48224285Y-102175000D01*
X48224285Y-102746428D01*
X47438571Y-101389285D02*
X48938571Y-101032142D01*
X47867142Y-100746428D01*
X48938571Y-100460714D01*
X47438571Y-100103571D01*
X47510000Y-98746428D02*
X47438571Y-98889285D01*
X47438571Y-99103571D01*
X47510000Y-99317857D01*
X47652857Y-99460714D01*
X47795714Y-99532142D01*
X48081428Y-99603571D01*
X48295714Y-99603571D01*
X48581428Y-99532142D01*
X48724285Y-99460714D01*
X48867142Y-99317857D01*
X48938571Y-99103571D01*
X48938571Y-98960714D01*
X48867142Y-98746428D01*
X48795714Y-98675000D01*
X48295714Y-98675000D01*
X48295714Y-98960714D01*
X47438571Y-97746428D02*
X47438571Y-97460714D01*
X47510000Y-97317857D01*
X47652857Y-97175000D01*
X47938571Y-97103571D01*
X48438571Y-97103571D01*
X48724285Y-97175000D01*
X48867142Y-97317857D01*
X48938571Y-97460714D01*
X48938571Y-97746428D01*
X48867142Y-97889285D01*
X48724285Y-98032142D01*
X48438571Y-98103571D01*
X47938571Y-98103571D01*
X47652857Y-98032142D01*
X47510000Y-97889285D01*
X47438571Y-97746428D01*
X47438571Y-96175000D02*
X47438571Y-95889285D01*
X47510000Y-95746428D01*
X47652857Y-95603571D01*
X47938571Y-95532142D01*
X48438571Y-95532142D01*
X48724285Y-95603571D01*
X48867142Y-95746428D01*
X48938571Y-95889285D01*
X48938571Y-96175000D01*
X48867142Y-96317857D01*
X48724285Y-96460714D01*
X48438571Y-96532142D01*
X47938571Y-96532142D01*
X47652857Y-96460714D01*
X47510000Y-96317857D01*
X47438571Y-96175000D01*
X48938571Y-94889285D02*
X47438571Y-94889285D01*
X47438571Y-94532142D01*
X47510000Y-94317857D01*
X47652857Y-94175000D01*
X47795714Y-94103571D01*
X48081428Y-94032142D01*
X48295714Y-94032142D01*
X48581428Y-94103571D01*
X48724285Y-94175000D01*
X48867142Y-94317857D01*
X48938571Y-94532142D01*
X48938571Y-94889285D01*
X87600714Y-35829761D02*
X87600714Y-33829761D01*
X90934047Y-35829761D02*
X90934047Y-34782142D01*
X90838809Y-34591666D01*
X90648333Y-34496428D01*
X90267380Y-34496428D01*
X90076904Y-34591666D01*
X90934047Y-35734523D02*
X90743571Y-35829761D01*
X90267380Y-35829761D01*
X90076904Y-35734523D01*
X89981666Y-35544047D01*
X89981666Y-35353571D01*
X90076904Y-35163095D01*
X90267380Y-35067857D01*
X90743571Y-35067857D01*
X90934047Y-34972619D01*
X91886428Y-35829761D02*
X91886428Y-34496428D01*
X91886428Y-34686904D02*
X91981666Y-34591666D01*
X92172142Y-34496428D01*
X92457857Y-34496428D01*
X92648333Y-34591666D01*
X92743571Y-34782142D01*
X92743571Y-35829761D01*
X92743571Y-34782142D02*
X92838809Y-34591666D01*
X93029285Y-34496428D01*
X93315000Y-34496428D01*
X93505476Y-34591666D01*
X93600714Y-34782142D01*
X93600714Y-35829761D01*
X96934047Y-35829761D02*
X96934047Y-34782142D01*
X96838809Y-34591666D01*
X96648333Y-34496428D01*
X96267380Y-34496428D01*
X96076904Y-34591666D01*
X96934047Y-35734523D02*
X96743571Y-35829761D01*
X96267380Y-35829761D01*
X96076904Y-35734523D01*
X95981666Y-35544047D01*
X95981666Y-35353571D01*
X96076904Y-35163095D01*
X96267380Y-35067857D01*
X96743571Y-35067857D01*
X96934047Y-34972619D01*
X100267380Y-34496428D02*
X100267380Y-36115476D01*
X100172142Y-36305952D01*
X100076904Y-36401190D01*
X99886428Y-36496428D01*
X99600714Y-36496428D01*
X99410238Y-36401190D01*
X100267380Y-35734523D02*
X100076904Y-35829761D01*
X99695952Y-35829761D01*
X99505476Y-35734523D01*
X99410238Y-35639285D01*
X99315000Y-35448809D01*
X99315000Y-34877380D01*
X99410238Y-34686904D01*
X99505476Y-34591666D01*
X99695952Y-34496428D01*
X100076904Y-34496428D01*
X100267380Y-34591666D01*
X101505476Y-35829761D02*
X101315000Y-35734523D01*
X101219761Y-35639285D01*
X101124523Y-35448809D01*
X101124523Y-34877380D01*
X101219761Y-34686904D01*
X101315000Y-34591666D01*
X101505476Y-34496428D01*
X101791190Y-34496428D01*
X101981666Y-34591666D01*
X102076904Y-34686904D01*
X102172142Y-34877380D01*
X102172142Y-35448809D01*
X102076904Y-35639285D01*
X101981666Y-35734523D01*
X101791190Y-35829761D01*
X101505476Y-35829761D01*
X103315000Y-35829761D02*
X103124523Y-35734523D01*
X103029285Y-35639285D01*
X102934047Y-35448809D01*
X102934047Y-34877380D01*
X103029285Y-34686904D01*
X103124523Y-34591666D01*
X103315000Y-34496428D01*
X103600714Y-34496428D01*
X103791190Y-34591666D01*
X103886428Y-34686904D01*
X103981666Y-34877380D01*
X103981666Y-35448809D01*
X103886428Y-35639285D01*
X103791190Y-35734523D01*
X103600714Y-35829761D01*
X103315000Y-35829761D01*
X105695952Y-35829761D02*
X105695952Y-33829761D01*
X105695952Y-35734523D02*
X105505476Y-35829761D01*
X105124523Y-35829761D01*
X104934047Y-35734523D01*
X104838809Y-35639285D01*
X104743571Y-35448809D01*
X104743571Y-34877380D01*
X104838809Y-34686904D01*
X104934047Y-34591666D01*
X105124523Y-34496428D01*
X105505476Y-34496428D01*
X105695952Y-34591666D01*
X108172142Y-35829761D02*
X108172142Y-34496428D01*
X108172142Y-34877380D02*
X108267380Y-34686904D01*
X108362619Y-34591666D01*
X108553095Y-34496428D01*
X108743571Y-34496428D01*
X110172142Y-35734523D02*
X109981666Y-35829761D01*
X109600714Y-35829761D01*
X109410238Y-35734523D01*
X109315000Y-35544047D01*
X109315000Y-34782142D01*
X109410238Y-34591666D01*
X109600714Y-34496428D01*
X109981666Y-34496428D01*
X110172142Y-34591666D01*
X110267380Y-34782142D01*
X110267380Y-34972619D01*
X109315000Y-35163095D01*
X111410238Y-35829761D02*
X111219761Y-35734523D01*
X111124523Y-35544047D01*
X111124523Y-33829761D01*
X112172142Y-35829761D02*
X112172142Y-34496428D01*
X112172142Y-33829761D02*
X112076904Y-33925000D01*
X112172142Y-34020238D01*
X112267380Y-33925000D01*
X112172142Y-33829761D01*
X112172142Y-34020238D01*
X113981666Y-35829761D02*
X113981666Y-34782142D01*
X113886428Y-34591666D01*
X113695952Y-34496428D01*
X113315000Y-34496428D01*
X113124523Y-34591666D01*
X113981666Y-35734523D02*
X113791190Y-35829761D01*
X113315000Y-35829761D01*
X113124523Y-35734523D01*
X113029285Y-35544047D01*
X113029285Y-35353571D01*
X113124523Y-35163095D01*
X113315000Y-35067857D01*
X113791190Y-35067857D01*
X113981666Y-34972619D01*
X114934047Y-35829761D02*
X114934047Y-33829761D01*
X114934047Y-34591666D02*
X115124523Y-34496428D01*
X115505476Y-34496428D01*
X115695952Y-34591666D01*
X115791190Y-34686904D01*
X115886428Y-34877380D01*
X115886428Y-35448809D01*
X115791190Y-35639285D01*
X115695952Y-35734523D01*
X115505476Y-35829761D01*
X115124523Y-35829761D01*
X114934047Y-35734523D01*
X117029285Y-35829761D02*
X116838809Y-35734523D01*
X116743571Y-35544047D01*
X116743571Y-33829761D01*
X118553095Y-35734523D02*
X118362619Y-35829761D01*
X117981666Y-35829761D01*
X117791190Y-35734523D01*
X117695952Y-35544047D01*
X117695952Y-34782142D01*
X117791190Y-34591666D01*
X117981666Y-34496428D01*
X118362619Y-34496428D01*
X118553095Y-34591666D01*
X118648333Y-34782142D01*
X118648333Y-34972619D01*
X117695952Y-35163095D01*
X121029285Y-35829761D02*
X121029285Y-33829761D01*
X121791190Y-33829761D01*
X121981666Y-33925000D01*
X122076904Y-34020238D01*
X122172142Y-34210714D01*
X122172142Y-34496428D01*
X122076904Y-34686904D01*
X121981666Y-34782142D01*
X121791190Y-34877380D01*
X121029285Y-34877380D01*
X124172142Y-35639285D02*
X124076904Y-35734523D01*
X123791190Y-35829761D01*
X123600714Y-35829761D01*
X123315000Y-35734523D01*
X123124523Y-35544047D01*
X123029285Y-35353571D01*
X122934047Y-34972619D01*
X122934047Y-34686904D01*
X123029285Y-34305952D01*
X123124523Y-34115476D01*
X123315000Y-33925000D01*
X123600714Y-33829761D01*
X123791190Y-33829761D01*
X124076904Y-33925000D01*
X124172142Y-34020238D01*
X125695952Y-34782142D02*
X125981666Y-34877380D01*
X126076904Y-34972619D01*
X126172142Y-35163095D01*
X126172142Y-35448809D01*
X126076904Y-35639285D01*
X125981666Y-35734523D01*
X125791190Y-35829761D01*
X125029285Y-35829761D01*
X125029285Y-33829761D01*
X125695952Y-33829761D01*
X125886428Y-33925000D01*
X125981666Y-34020238D01*
X126076904Y-34210714D01*
X126076904Y-34401190D01*
X125981666Y-34591666D01*
X125886428Y-34686904D01*
X125695952Y-34782142D01*
X125029285Y-34782142D01*
X127029285Y-35639285D02*
X127124523Y-35734523D01*
X127029285Y-35829761D01*
X126934047Y-35734523D01*
X127029285Y-35639285D01*
X127029285Y-35829761D01*
X127029285Y-35067857D02*
X126934047Y-33925000D01*
X127029285Y-33829761D01*
X127124523Y-33925000D01*
X127029285Y-35067857D01*
X127029285Y-33829761D01*
X231426190Y-35702857D02*
X232950000Y-35702857D01*
X232188095Y-36464761D02*
X232188095Y-34940952D01*
X234950000Y-36464761D02*
X233807142Y-36464761D01*
X234378571Y-36464761D02*
X234378571Y-34464761D01*
X234188095Y-34750476D01*
X233997619Y-34940952D01*
X233807142Y-35036190D01*
X235711904Y-34655238D02*
X235807142Y-34560000D01*
X235997619Y-34464761D01*
X236473809Y-34464761D01*
X236664285Y-34560000D01*
X236759523Y-34655238D01*
X236854761Y-34845714D01*
X236854761Y-35036190D01*
X236759523Y-35321904D01*
X235616666Y-36464761D01*
X236854761Y-36464761D01*
X237426190Y-34464761D02*
X238092857Y-36464761D01*
X238759523Y-34464761D01*
X192786190Y-35195000D02*
X192595714Y-35099761D01*
X192310000Y-35099761D01*
X192024285Y-35195000D01*
X191833809Y-35385476D01*
X191738571Y-35575952D01*
X191643333Y-35956904D01*
X191643333Y-36242619D01*
X191738571Y-36623571D01*
X191833809Y-36814047D01*
X192024285Y-37004523D01*
X192310000Y-37099761D01*
X192500476Y-37099761D01*
X192786190Y-37004523D01*
X192881428Y-36909285D01*
X192881428Y-36242619D01*
X192500476Y-36242619D01*
X193738571Y-37099761D02*
X193738571Y-35099761D01*
X194881428Y-37099761D01*
X194881428Y-35099761D01*
X195833809Y-37099761D02*
X195833809Y-35099761D01*
X196310000Y-35099761D01*
X196595714Y-35195000D01*
X196786190Y-35385476D01*
X196881428Y-35575952D01*
X196976666Y-35956904D01*
X196976666Y-36242619D01*
X196881428Y-36623571D01*
X196786190Y-36814047D01*
X196595714Y-37004523D01*
X196310000Y-37099761D01*
X195833809Y-37099761D01*
D11*
%TO.P,U9,1*%
%TO.N,+3V3*%
X95377001Y-168138501D03*
%TO.P,U9,2*%
%TO.N,Net-(U9-Pad2)*%
X97917001Y-168138501D03*
%TO.P,U9,3*%
%TO.N,Net-(U9-Pad3)*%
X100457001Y-168138501D03*
%TO.P,U9,4*%
%TO.N,Net-(U9-Pad4)*%
X102997001Y-168138501D03*
%TO.P,U9,5*%
%TO.N,Net-(U9-Pad5)*%
X105537001Y-168138501D03*
%TO.P,U9,6*%
%TO.N,Net-(U9-Pad6)*%
X108077001Y-168138501D03*
%TO.P,U9,7*%
%TO.N,SCLK*%
X110617001Y-168138501D03*
%TO.P,U9,8*%
%TO.N,Net-(U9-Pad8)*%
X113157001Y-168138501D03*
%TO.P,U9,9*%
%TO.N,Net-(U9-Pad9)*%
X115697001Y-168138501D03*
%TO.P,U9,10*%
%TO.N,Net-(U9-Pad10)*%
X118237001Y-168138501D03*
%TO.P,U9,21*%
%TO.N,+5V*%
X95377001Y-165598501D03*
%TO.P,U9,22*%
%TO.N,-BATT*%
X97917001Y-165598501D03*
%TO.P,U9,23*%
%TO.N,Net-(U9-Pad23)*%
X100457001Y-165598501D03*
%TO.P,U9,24*%
%TO.N,Net-(U9-Pad24)*%
X102997001Y-165598501D03*
%TO.P,U9,25*%
%TO.N,Net-(U9-Pad25)*%
X105537001Y-165598501D03*
%TO.P,U9,26*%
%TO.N,Viout*%
X108077001Y-165598501D03*
%TO.P,U9,27*%
%TO.N,Net-(U9-Pad27)*%
X110617001Y-165598501D03*
%TO.P,U9,28*%
%TO.N,Net-(U9-Pad28)*%
X113157001Y-165598501D03*
%TO.P,U9,29*%
%TO.N,Net-(U9-Pad29)*%
X115697001Y-165598501D03*
%TO.P,U9,30*%
%TO.N,Vbat+*%
X118237001Y-165598501D03*
%TO.P,U9,18*%
%TO.N,Net-(U9-Pad18)*%
X100457001Y-122418501D03*
%TO.P,U9,32*%
%TO.N,Net-(U9-Pad32)*%
X115697001Y-124958501D03*
%TO.P,U9,19*%
%TO.N,CS*%
X97917001Y-122418501D03*
%TO.P,U9,34*%
%TO.N,CV_g*%
X110617001Y-124958501D03*
%TO.P,U9,40*%
%TO.N,Net-(U9-Pad40)*%
X95377001Y-124958501D03*
%TO.P,U9,16*%
%TO.N,Net-(U9-Pad16)*%
X105537001Y-122418501D03*
%TO.P,U9,20*%
%TO.N,-BATT*%
X95377001Y-122418501D03*
%TO.P,U9,31*%
%TO.N,Net-(U9-Pad31)*%
X118237001Y-124958501D03*
%TO.P,U9,35*%
%TO.N,CC_g*%
X108077001Y-124958501D03*
%TO.P,U9,17*%
%TO.N,Net-(U9-Pad17)*%
X102997001Y-122418501D03*
%TO.P,U9,15*%
%TO.N,MOSI*%
X108077001Y-122418501D03*
%TO.P,U9,37*%
%TO.N,Net-(U9-Pad37)*%
X102997001Y-124958501D03*
%TO.P,U9,12*%
%TO.N,Net-(U9-Pad12)*%
X115697001Y-122418501D03*
%TO.P,U9,36*%
%TO.N,Net-(U9-Pad36)*%
X105537001Y-124958501D03*
%TO.P,U9,13*%
%TO.N,Net-(U9-Pad13)*%
X113157001Y-122418501D03*
%TO.P,U9,39*%
%TO.N,Net-(U9-Pad39)*%
X97917001Y-124958501D03*
%TO.P,U9,11*%
%TO.N,Net-(U9-Pad11)*%
X118237001Y-122418501D03*
%TO.P,U9,72*%
%TO.N,Net-(U9-Pad72)*%
X179197001Y-124958501D03*
%TO.P,U9,58*%
%TO.N,Net-(U9-Pad58)*%
X163957001Y-122418501D03*
%TO.P,U9,57*%
%TO.N,Net-(U9-Pad57)*%
X166497001Y-122418501D03*
%TO.P,U9,75*%
%TO.N,Net-(U9-Pad75)*%
X171577001Y-124958501D03*
%TO.P,U9,71*%
%TO.N,Net-(U9-Pad71)*%
X181737001Y-124958501D03*
%TO.P,U9,60*%
%TO.N,-BATT*%
X158877001Y-122418501D03*
%TO.P,U9,56*%
%TO.N,Net-(U9-Pad56)*%
X169037001Y-122418501D03*
%TO.P,U9,80*%
%TO.N,Net-(U9-Pad80)*%
X158877001Y-124958501D03*
%TO.P,U9,73*%
%TO.N,Net-(U9-Pad73)*%
X176657001Y-124958501D03*
%TO.P,U9,59*%
%TO.N,Net-(U9-Pad59)*%
X161417001Y-122418501D03*
%TO.P,U9,51*%
%TO.N,Net-(U9-Pad51)*%
X181737001Y-122418501D03*
%TO.P,U9,78*%
%TO.N,Net-(U9-Pad78)*%
X163957001Y-124958501D03*
%TO.P,U9,79*%
%TO.N,Net-(U9-Pad79)*%
X161417001Y-124958501D03*
%TO.P,U9,63*%
%TO.N,Net-(U9-Pad63)*%
X163957001Y-165598501D03*
%TO.P,U9,49*%
%TO.N,Net-(U9-Pad49)*%
X179197001Y-168138501D03*
%TO.P,U9,62*%
%TO.N,-BATT*%
X161417001Y-165598501D03*
%TO.P,U9,47*%
%TO.N,Net-(U9-Pad47)*%
X174117001Y-168138501D03*
%TO.P,U9,48*%
%TO.N,Net-(U9-Pad48)*%
X176657001Y-168138501D03*
%TO.P,U9,41*%
%TO.N,Net-(U9-Pad41)*%
X158877001Y-168138501D03*
%TO.P,U9,65*%
%TO.N,Net-(U9-Pad65)*%
X169037001Y-165598501D03*
%TO.P,U9,61*%
%TO.N,+5V*%
X158877001Y-165598501D03*
%TO.P,U9,50*%
%TO.N,Net-(U9-Pad50)*%
X181737001Y-168138501D03*
%TO.P,U9,46*%
%TO.N,Net-(U9-Pad46)*%
X171577001Y-168138501D03*
%TO.P,U9,64*%
%TO.N,Net-(U9-Pad64)*%
X166497001Y-165598501D03*
%TO.P,U9,66*%
%TO.N,Vbat-*%
X171577001Y-165598501D03*
%TO.P,U9,44*%
%TO.N,Net-(U9-Pad44)*%
X166497001Y-168138501D03*
%TO.P,U9,69*%
%TO.N,Net-(U9-Pad69)*%
X179197001Y-165598501D03*
%TO.P,U9,45*%
%TO.N,Net-(U9-Pad45)*%
X169037001Y-168138501D03*
%TO.P,U9,68*%
%TO.N,Net-(U9-Pad68)*%
X176657001Y-165598501D03*
%TO.P,U9,42*%
%TO.N,Net-(U9-Pad42)*%
X161417001Y-168138501D03*
%TO.P,U9,43*%
%TO.N,Net-(U9-Pad43)*%
X163957001Y-168138501D03*
%TO.P,U9,70*%
%TO.N,bias_ctl*%
X181737001Y-165598501D03*
%TO.P,U9,67*%
%TO.N,Net-(U9-Pad67)*%
X174117001Y-165598501D03*
%TO.P,U9,52*%
%TO.N,Net-(U9-Pad52)*%
X179197001Y-122418501D03*
%TO.P,U9,76*%
%TO.N,Net-(U9-Pad76)*%
X169037001Y-124958501D03*
%TO.P,U9,77*%
%TO.N,Net-(U9-Pad77)*%
X166497001Y-124958501D03*
%TO.P,U9,55*%
%TO.N,Net-(U9-Pad55)*%
X171577001Y-122418501D03*
%TO.P,U9,53*%
%TO.N,Net-(U9-Pad53)*%
X176657001Y-122418501D03*
%TD*%
D12*
%TO.P,B1,3*%
%TO.N,bat-*%
X188792000Y-73962000D03*
D13*
%TO.P,B1,4*%
%TO.N,-BATT*%
X188792000Y-68962000D03*
D14*
%TO.P,B1,1*%
%TO.N,Rs-*%
X188792000Y-84962000D03*
D12*
%TO.P,B1,2*%
%TO.N,bat+*%
X188792000Y-79962000D03*
%TD*%
D15*
%TO.P,Q5,3*%
%TO.N,Net-(Q4-Pad3)*%
X214376000Y-108204000D03*
%TO.P,Q5,2*%
%TO.N,Net-(Q1-Pad2)*%
X214376000Y-105664000D03*
D16*
%TO.P,Q5,1*%
%TO.N,Net-(Q5-Pad1)*%
X214376000Y-103124000D03*
%TD*%
D17*
%TO.P,TP12,1*%
%TO.N,Iout*%
X158496000Y-107950000D03*
%TD*%
%TO.P,R38,1*%
%TO.N,-BATT*%
%TA.AperFunction,SMDPad,CuDef*%
G36*
G01*
X159200001Y-160350000D02*
X158299999Y-160350000D01*
G75*
G02*
X158050000Y-160100001I0J249999D01*
G01*
X158050000Y-159399999D01*
G75*
G02*
X158299999Y-159150000I249999J0D01*
G01*
X159200001Y-159150000D01*
G75*
G02*
X159450000Y-159399999I0J-249999D01*
G01*
X159450000Y-160100001D01*
G75*
G02*
X159200001Y-160350000I-249999J0D01*
G01*
G37*
%TD.AperFunction*%
%TO.P,R38,2*%
%TO.N,Net-(D10-Pad1)*%
%TA.AperFunction,SMDPad,CuDef*%
G36*
G01*
X159200001Y-158350000D02*
X158299999Y-158350000D01*
G75*
G02*
X158050000Y-158100001I0J249999D01*
G01*
X158050000Y-157399999D01*
G75*
G02*
X158299999Y-157150000I249999J0D01*
G01*
X159200001Y-157150000D01*
G75*
G02*
X159450000Y-157399999I0J-249999D01*
G01*
X159450000Y-158100001D01*
G75*
G02*
X159200001Y-158350000I-249999J0D01*
G01*
G37*
%TD.AperFunction*%
%TD*%
%TO.P,R37,2*%
%TO.N,bat-*%
%TA.AperFunction,SMDPad,CuDef*%
G36*
G01*
X159200001Y-153270000D02*
X158299999Y-153270000D01*
G75*
G02*
X158050000Y-153020001I0J249999D01*
G01*
X158050000Y-152319999D01*
G75*
G02*
X158299999Y-152070000I249999J0D01*
G01*
X159200001Y-152070000D01*
G75*
G02*
X159450000Y-152319999I0J-249999D01*
G01*
X159450000Y-153020001D01*
G75*
G02*
X159200001Y-153270000I-249999J0D01*
G01*
G37*
%TD.AperFunction*%
%TO.P,R37,1*%
%TO.N,Net-(D10-Pad1)*%
%TA.AperFunction,SMDPad,CuDef*%
G36*
G01*
X159200001Y-155270000D02*
X158299999Y-155270000D01*
G75*
G02*
X158050000Y-155020001I0J249999D01*
G01*
X158050000Y-154319999D01*
G75*
G02*
X158299999Y-154070000I249999J0D01*
G01*
X159200001Y-154070000D01*
G75*
G02*
X159450000Y-154319999I0J-249999D01*
G01*
X159450000Y-155020001D01*
G75*
G02*
X159200001Y-155270000I-249999J0D01*
G01*
G37*
%TD.AperFunction*%
%TD*%
%TO.P,R36,2*%
%TO.N,Vbat-*%
%TA.AperFunction,SMDPad,CuDef*%
G36*
G01*
X162960000Y-156025001D02*
X162960000Y-155124999D01*
G75*
G02*
X163209999Y-154875000I249999J0D01*
G01*
X163910001Y-154875000D01*
G75*
G02*
X164160000Y-155124999I0J-249999D01*
G01*
X164160000Y-156025001D01*
G75*
G02*
X163910001Y-156275000I-249999J0D01*
G01*
X163209999Y-156275000D01*
G75*
G02*
X162960000Y-156025001I0J249999D01*
G01*
G37*
%TD.AperFunction*%
%TO.P,R36,1*%
%TO.N,Net-(D10-Pad1)*%
%TA.AperFunction,SMDPad,CuDef*%
G36*
G01*
X160960000Y-156025001D02*
X160960000Y-155124999D01*
G75*
G02*
X161209999Y-154875000I249999J0D01*
G01*
X161910001Y-154875000D01*
G75*
G02*
X162160000Y-155124999I0J-249999D01*
G01*
X162160000Y-156025001D01*
G75*
G02*
X161910001Y-156275000I-249999J0D01*
G01*
X161209999Y-156275000D01*
G75*
G02*
X160960000Y-156025001I0J249999D01*
G01*
G37*
%TD.AperFunction*%
%TD*%
D15*
%TO.P,Q4,3*%
%TO.N,Net-(Q4-Pad3)*%
X214376000Y-128524000D03*
%TO.P,Q4,2*%
%TO.N,Net-(Q1-Pad2)*%
X214376000Y-125984000D03*
D16*
%TO.P,Q4,1*%
%TO.N,Net-(Q4-Pad1)*%
X214376000Y-123444000D03*
%TD*%
D18*
%TO.P,D10,2*%
%TO.N,-BATT*%
X155575000Y-161770000D03*
%TO.P,D10,1*%
%TO.N,Net-(D10-Pad1)*%
X155575000Y-158270000D03*
%TD*%
%TO.P,D9,2*%
%TO.N,Net-(D10-Pad1)*%
X155575000Y-155420000D03*
%TO.P,D9,1*%
%TO.N,+3V3*%
X155575000Y-151920000D03*
%TD*%
%TO.P,C12,2*%
%TO.N,-BATT*%
%TA.AperFunction,SMDPad,CuDef*%
G36*
G01*
X164625000Y-159432500D02*
X165575000Y-159432500D01*
G75*
G02*
X165825000Y-159682500I0J-250000D01*
G01*
X165825000Y-160357500D01*
G75*
G02*
X165575000Y-160607500I-250000J0D01*
G01*
X164625000Y-160607500D01*
G75*
G02*
X164375000Y-160357500I0J250000D01*
G01*
X164375000Y-159682500D01*
G75*
G02*
X164625000Y-159432500I250000J0D01*
G01*
G37*
%TD.AperFunction*%
%TO.P,C12,1*%
%TO.N,Vbat-*%
%TA.AperFunction,SMDPad,CuDef*%
G36*
G01*
X164625000Y-157357500D02*
X165575000Y-157357500D01*
G75*
G02*
X165825000Y-157607500I0J-250000D01*
G01*
X165825000Y-158282500D01*
G75*
G02*
X165575000Y-158532500I-250000J0D01*
G01*
X164625000Y-158532500D01*
G75*
G02*
X164375000Y-158282500I0J250000D01*
G01*
X164375000Y-157607500D01*
G75*
G02*
X164625000Y-157357500I250000J0D01*
G01*
G37*
%TD.AperFunction*%
%TD*%
%TO.P,C1,2*%
%TO.N,-BATT*%
%TA.AperFunction,SMDPad,CuDef*%
G36*
G01*
X219550000Y-152077000D02*
X218600000Y-152077000D01*
G75*
G02*
X218350000Y-151827000I0J250000D01*
G01*
X218350000Y-151152000D01*
G75*
G02*
X218600000Y-150902000I250000J0D01*
G01*
X219550000Y-150902000D01*
G75*
G02*
X219800000Y-151152000I0J-250000D01*
G01*
X219800000Y-151827000D01*
G75*
G02*
X219550000Y-152077000I-250000J0D01*
G01*
G37*
%TD.AperFunction*%
%TO.P,C1,1*%
%TO.N,+12V*%
%TA.AperFunction,SMDPad,CuDef*%
G36*
G01*
X219550000Y-154152000D02*
X218600000Y-154152000D01*
G75*
G02*
X218350000Y-153902000I0J250000D01*
G01*
X218350000Y-153227000D01*
G75*
G02*
X218600000Y-152977000I250000J0D01*
G01*
X219550000Y-152977000D01*
G75*
G02*
X219800000Y-153227000I0J-250000D01*
G01*
X219800000Y-153902000D01*
G75*
G02*
X219550000Y-154152000I-250000J0D01*
G01*
G37*
%TD.AperFunction*%
%TD*%
D19*
%TO.P,C3,1*%
%TO.N,+12V*%
X247015000Y-141224000D03*
D20*
%TO.P,C3,2*%
%TO.N,-BATT*%
X247015000Y-143724000D03*
%TD*%
%TO.P,C4,2*%
%TO.N,-BATT*%
%TA.AperFunction,SMDPad,CuDef*%
G36*
G01*
X234348000Y-143071000D02*
X235298000Y-143071000D01*
G75*
G02*
X235548000Y-143321000I0J-250000D01*
G01*
X235548000Y-143996000D01*
G75*
G02*
X235298000Y-144246000I-250000J0D01*
G01*
X234348000Y-144246000D01*
G75*
G02*
X234098000Y-143996000I0J250000D01*
G01*
X234098000Y-143321000D01*
G75*
G02*
X234348000Y-143071000I250000J0D01*
G01*
G37*
%TD.AperFunction*%
%TO.P,C4,1*%
%TO.N,+5V*%
%TA.AperFunction,SMDPad,CuDef*%
G36*
G01*
X234348000Y-140996000D02*
X235298000Y-140996000D01*
G75*
G02*
X235548000Y-141246000I0J-250000D01*
G01*
X235548000Y-141921000D01*
G75*
G02*
X235298000Y-142171000I-250000J0D01*
G01*
X234348000Y-142171000D01*
G75*
G02*
X234098000Y-141921000I0J250000D01*
G01*
X234098000Y-141246000D01*
G75*
G02*
X234348000Y-140996000I250000J0D01*
G01*
G37*
%TD.AperFunction*%
%TD*%
%TO.P,C7,1*%
%TO.N,+5V*%
%TA.AperFunction,SMDPad,CuDef*%
G36*
G01*
X176624000Y-93827000D02*
X175674000Y-93827000D01*
G75*
G02*
X175424000Y-93577000I0J250000D01*
G01*
X175424000Y-92902000D01*
G75*
G02*
X175674000Y-92652000I250000J0D01*
G01*
X176624000Y-92652000D01*
G75*
G02*
X176874000Y-92902000I0J-250000D01*
G01*
X176874000Y-93577000D01*
G75*
G02*
X176624000Y-93827000I-250000J0D01*
G01*
G37*
%TD.AperFunction*%
%TO.P,C7,2*%
%TO.N,-BATT*%
%TA.AperFunction,SMDPad,CuDef*%
G36*
G01*
X176624000Y-91752000D02*
X175674000Y-91752000D01*
G75*
G02*
X175424000Y-91502000I0J250000D01*
G01*
X175424000Y-90827000D01*
G75*
G02*
X175674000Y-90577000I250000J0D01*
G01*
X176624000Y-90577000D01*
G75*
G02*
X176874000Y-90827000I0J-250000D01*
G01*
X176874000Y-91502000D01*
G75*
G02*
X176624000Y-91752000I-250000J0D01*
G01*
G37*
%TD.AperFunction*%
%TD*%
%TO.P,C8,1*%
%TO.N,Vbat+*%
%TA.AperFunction,SMDPad,CuDef*%
G36*
G01*
X119100000Y-161577000D02*
X119100000Y-162527000D01*
G75*
G02*
X118850000Y-162777000I-250000J0D01*
G01*
X118175000Y-162777000D01*
G75*
G02*
X117925000Y-162527000I0J250000D01*
G01*
X117925000Y-161577000D01*
G75*
G02*
X118175000Y-161327000I250000J0D01*
G01*
X118850000Y-161327000D01*
G75*
G02*
X119100000Y-161577000I0J-250000D01*
G01*
G37*
%TD.AperFunction*%
%TO.P,C8,2*%
%TO.N,-BATT*%
%TA.AperFunction,SMDPad,CuDef*%
G36*
G01*
X117025000Y-161577000D02*
X117025000Y-162527000D01*
G75*
G02*
X116775000Y-162777000I-250000J0D01*
G01*
X116100000Y-162777000D01*
G75*
G02*
X115850000Y-162527000I0J250000D01*
G01*
X115850000Y-161577000D01*
G75*
G02*
X116100000Y-161327000I250000J0D01*
G01*
X116775000Y-161327000D01*
G75*
G02*
X117025000Y-161577000I0J-250000D01*
G01*
G37*
%TD.AperFunction*%
%TD*%
%TO.P,C9,1*%
%TO.N,Viout*%
%TA.AperFunction,SMDPad,CuDef*%
G36*
G01*
X104935000Y-159792000D02*
X105885000Y-159792000D01*
G75*
G02*
X106135000Y-160042000I0J-250000D01*
G01*
X106135000Y-160717000D01*
G75*
G02*
X105885000Y-160967000I-250000J0D01*
G01*
X104935000Y-160967000D01*
G75*
G02*
X104685000Y-160717000I0J250000D01*
G01*
X104685000Y-160042000D01*
G75*
G02*
X104935000Y-159792000I250000J0D01*
G01*
G37*
%TD.AperFunction*%
%TO.P,C9,2*%
%TO.N,-BATT*%
%TA.AperFunction,SMDPad,CuDef*%
G36*
G01*
X104935000Y-161867000D02*
X105885000Y-161867000D01*
G75*
G02*
X106135000Y-162117000I0J-250000D01*
G01*
X106135000Y-162792000D01*
G75*
G02*
X105885000Y-163042000I-250000J0D01*
G01*
X104935000Y-163042000D01*
G75*
G02*
X104685000Y-162792000I0J250000D01*
G01*
X104685000Y-162117000D01*
G75*
G02*
X104935000Y-161867000I250000J0D01*
G01*
G37*
%TD.AperFunction*%
%TD*%
%TO.P,D1,1*%
%TO.N,Net-(D1-Pad1)*%
%TA.AperFunction,SMDPad,CuDef*%
G36*
G01*
X48370500Y-108334000D02*
X47895500Y-108334000D01*
G75*
G02*
X47658000Y-108096500I0J237500D01*
G01*
X47658000Y-107521500D01*
G75*
G02*
X47895500Y-107284000I237500J0D01*
G01*
X48370500Y-107284000D01*
G75*
G02*
X48608000Y-107521500I0J-237500D01*
G01*
X48608000Y-108096500D01*
G75*
G02*
X48370500Y-108334000I-237500J0D01*
G01*
G37*
%TD.AperFunction*%
%TO.P,D1,2*%
%TO.N,+5V*%
%TA.AperFunction,SMDPad,CuDef*%
G36*
G01*
X48370500Y-106584000D02*
X47895500Y-106584000D01*
G75*
G02*
X47658000Y-106346500I0J237500D01*
G01*
X47658000Y-105771500D01*
G75*
G02*
X47895500Y-105534000I237500J0D01*
G01*
X48370500Y-105534000D01*
G75*
G02*
X48608000Y-105771500I0J-237500D01*
G01*
X48608000Y-106346500D01*
G75*
G02*
X48370500Y-106584000I-237500J0D01*
G01*
G37*
%TD.AperFunction*%
%TD*%
%TO.P,D3,1*%
%TO.N,Net-(D3-Pad1)*%
%TA.AperFunction,SMDPad,CuDef*%
G36*
G01*
X59038500Y-108334000D02*
X58563500Y-108334000D01*
G75*
G02*
X58326000Y-108096500I0J237500D01*
G01*
X58326000Y-107521500D01*
G75*
G02*
X58563500Y-107284000I237500J0D01*
G01*
X59038500Y-107284000D01*
G75*
G02*
X59276000Y-107521500I0J-237500D01*
G01*
X59276000Y-108096500D01*
G75*
G02*
X59038500Y-108334000I-237500J0D01*
G01*
G37*
%TD.AperFunction*%
%TO.P,D3,2*%
%TO.N,CC_g*%
%TA.AperFunction,SMDPad,CuDef*%
G36*
G01*
X59038500Y-106584000D02*
X58563500Y-106584000D01*
G75*
G02*
X58326000Y-106346500I0J237500D01*
G01*
X58326000Y-105771500D01*
G75*
G02*
X58563500Y-105534000I237500J0D01*
G01*
X59038500Y-105534000D01*
G75*
G02*
X59276000Y-105771500I0J-237500D01*
G01*
X59276000Y-106346500D01*
G75*
G02*
X59038500Y-106584000I-237500J0D01*
G01*
G37*
%TD.AperFunction*%
%TD*%
%TO.P,D4,2*%
%TO.N,CV_g*%
%TA.AperFunction,SMDPad,CuDef*%
G36*
G01*
X53450500Y-106584000D02*
X52975500Y-106584000D01*
G75*
G02*
X52738000Y-106346500I0J237500D01*
G01*
X52738000Y-105771500D01*
G75*
G02*
X52975500Y-105534000I237500J0D01*
G01*
X53450500Y-105534000D01*
G75*
G02*
X53688000Y-105771500I0J-237500D01*
G01*
X53688000Y-106346500D01*
G75*
G02*
X53450500Y-106584000I-237500J0D01*
G01*
G37*
%TD.AperFunction*%
%TO.P,D4,1*%
%TO.N,Net-(D4-Pad1)*%
%TA.AperFunction,SMDPad,CuDef*%
G36*
G01*
X53450500Y-108334000D02*
X52975500Y-108334000D01*
G75*
G02*
X52738000Y-108096500I0J237500D01*
G01*
X52738000Y-107521500D01*
G75*
G02*
X52975500Y-107284000I237500J0D01*
G01*
X53450500Y-107284000D01*
G75*
G02*
X53688000Y-107521500I0J-237500D01*
G01*
X53688000Y-108096500D01*
G75*
G02*
X53450500Y-108334000I-237500J0D01*
G01*
G37*
%TD.AperFunction*%
%TD*%
D21*
%TO.P,D5,2*%
%TO.N,Net-(D5-Pad2)*%
X123345000Y-154432000D03*
%TO.P,D5,1*%
%TO.N,+3V3*%
X126845000Y-154432000D03*
%TD*%
%TO.P,D6,1*%
%TO.N,Net-(D5-Pad2)*%
X120495000Y-154432000D03*
%TO.P,D6,2*%
%TO.N,-BATT*%
X116995000Y-154432000D03*
%TD*%
D18*
%TO.P,D7,2*%
%TO.N,Net-(D7-Pad2)*%
X97790000Y-155547000D03*
%TO.P,D7,1*%
%TO.N,+3V3*%
X97790000Y-152047000D03*
%TD*%
%TO.P,D8,1*%
%TO.N,Net-(D7-Pad2)*%
X97790000Y-158397000D03*
%TO.P,D8,2*%
%TO.N,-BATT*%
X97790000Y-161897000D03*
%TD*%
D22*
%TO.P,H1,1*%
%TO.N,N/C*%
X245110000Y-35052000D03*
D23*
X245110000Y-35052000D03*
%TD*%
%TO.P,H2,1*%
%TO.N,N/C*%
X48387000Y-35560000D03*
D22*
X48387000Y-35560000D03*
%TD*%
%TO.P,H3,1*%
%TO.N,N/C*%
X48387000Y-170180000D03*
D23*
X48387000Y-170180000D03*
%TD*%
%TO.P,H4,1*%
%TO.N,N/C*%
X245110000Y-169672000D03*
D22*
X245110000Y-169672000D03*
%TD*%
D17*
%TO.P,J1,1*%
%TO.N,sigout*%
X205105000Y-156845000D03*
D24*
%TO.P,J1,2*%
%TO.N,CS*%
X205105000Y-154305000D03*
%TO.P,J1,3*%
%TO.N,SCLK*%
X205105000Y-151765000D03*
%TO.P,J1,4*%
%TO.N,MOSI*%
X205105000Y-149225000D03*
%TO.P,J1,5*%
%TO.N,-BATT*%
X205105000Y-146685000D03*
%TO.P,J1,6*%
%TO.N,+5V*%
X205105000Y-144145000D03*
%TO.P,J1,7*%
%TO.N,Net-(J1-Pad7)*%
X205105000Y-141605000D03*
%TD*%
D25*
%TO.P,P1,1*%
%TO.N,+12V*%
X233465000Y-48385000D03*
X233465000Y-41785000D03*
X222465000Y-48385000D03*
X222465000Y-41785000D03*
%TD*%
%TO.P,P2,1*%
%TO.N,-BATT*%
X188810000Y-41277000D03*
X188810000Y-47877000D03*
X199810000Y-41277000D03*
X199810000Y-47877000D03*
%TD*%
D26*
%TO.P,Q2,3*%
%TO.N,Rs+*%
X191770000Y-99822000D03*
%TO.P,Q2,2*%
%TO.N,+4.2V*%
X195580000Y-102362000D03*
D27*
%TO.P,Q2,1*%
%TO.N,Net-(Q2-Pad1)*%
X191770000Y-104862000D03*
%TD*%
%TO.P,Q6,2*%
%TO.N,Net-(Q6-Pad2)*%
%TA.AperFunction,ComponentPad*%
G36*
G01*
X214842000Y-74647000D02*
X214842000Y-73397000D01*
G75*
G02*
X215117000Y-73122000I275000J0D01*
G01*
X215667000Y-73122000D01*
G75*
G02*
X215942000Y-73397000I0J-275000D01*
G01*
X215942000Y-74647000D01*
G75*
G02*
X215667000Y-74922000I-275000J0D01*
G01*
X215117000Y-74922000D01*
G75*
G02*
X214842000Y-74647000I0J275000D01*
G01*
G37*
%TD.AperFunction*%
%TO.P,Q6,3*%
%TO.N,Net-(C2-Pad1)*%
%TA.AperFunction,ComponentPad*%
G36*
G01*
X216112000Y-76717000D02*
X216112000Y-75467000D01*
G75*
G02*
X216387000Y-75192000I275000J0D01*
G01*
X216937000Y-75192000D01*
G75*
G02*
X217212000Y-75467000I0J-275000D01*
G01*
X217212000Y-76717000D01*
G75*
G02*
X216937000Y-76992000I-275000J0D01*
G01*
X216387000Y-76992000D01*
G75*
G02*
X216112000Y-76717000I0J275000D01*
G01*
G37*
%TD.AperFunction*%
D28*
%TO.P,Q6,1*%
%TO.N,Net-(Q6-Pad1)*%
X214122000Y-76092000D03*
%TD*%
%TO.P,R1,2*%
%TO.N,Net-(Q6-Pad1)*%
%TA.AperFunction,SMDPad,CuDef*%
G36*
G01*
X210458000Y-83000001D02*
X210458000Y-82099999D01*
G75*
G02*
X210707999Y-81850000I249999J0D01*
G01*
X211408001Y-81850000D01*
G75*
G02*
X211658000Y-82099999I0J-249999D01*
G01*
X211658000Y-83000001D01*
G75*
G02*
X211408001Y-83250000I-249999J0D01*
G01*
X210707999Y-83250000D01*
G75*
G02*
X210458000Y-83000001I0J249999D01*
G01*
G37*
%TD.AperFunction*%
%TO.P,R1,1*%
%TO.N,Net-(R1-Pad1)*%
%TA.AperFunction,SMDPad,CuDef*%
G36*
G01*
X208458000Y-83000001D02*
X208458000Y-82099999D01*
G75*
G02*
X208707999Y-81850000I249999J0D01*
G01*
X209408001Y-81850000D01*
G75*
G02*
X209658000Y-82099999I0J-249999D01*
G01*
X209658000Y-83000001D01*
G75*
G02*
X209408001Y-83250000I-249999J0D01*
G01*
X208707999Y-83250000D01*
G75*
G02*
X208458000Y-83000001I0J249999D01*
G01*
G37*
%TD.AperFunction*%
%TD*%
%TO.P,R2,2*%
%TO.N,Net-(R2-Pad2)*%
%TA.AperFunction,SMDPad,CuDef*%
G36*
G01*
X205550000Y-65941001D02*
X205550000Y-63090999D01*
G75*
G02*
X205799999Y-62841000I249999J0D01*
G01*
X206700001Y-62841000D01*
G75*
G02*
X206950000Y-63090999I0J-249999D01*
G01*
X206950000Y-65941001D01*
G75*
G02*
X206700001Y-66191000I-249999J0D01*
G01*
X205799999Y-66191000D01*
G75*
G02*
X205550000Y-65941001I0J249999D01*
G01*
G37*
%TD.AperFunction*%
%TO.P,R2,1*%
%TO.N,+4.2V*%
%TA.AperFunction,SMDPad,CuDef*%
G36*
G01*
X199450000Y-65941001D02*
X199450000Y-63090999D01*
G75*
G02*
X199699999Y-62841000I249999J0D01*
G01*
X200600001Y-62841000D01*
G75*
G02*
X200850000Y-63090999I0J-249999D01*
G01*
X200850000Y-65941001D01*
G75*
G02*
X200600001Y-66191000I-249999J0D01*
G01*
X199699999Y-66191000D01*
G75*
G02*
X199450000Y-65941001I0J249999D01*
G01*
G37*
%TD.AperFunction*%
%TD*%
%TO.P,R3,1*%
%TO.N,+4.2V*%
%TA.AperFunction,SMDPad,CuDef*%
G36*
G01*
X199450000Y-92611001D02*
X199450000Y-89760999D01*
G75*
G02*
X199699999Y-89511000I249999J0D01*
G01*
X200600001Y-89511000D01*
G75*
G02*
X200850000Y-89760999I0J-249999D01*
G01*
X200850000Y-92611001D01*
G75*
G02*
X200600001Y-92861000I-249999J0D01*
G01*
X199699999Y-92861000D01*
G75*
G02*
X199450000Y-92611001I0J249999D01*
G01*
G37*
%TD.AperFunction*%
%TO.P,R3,2*%
%TO.N,Net-(R1-Pad1)*%
%TA.AperFunction,SMDPad,CuDef*%
G36*
G01*
X205550000Y-92611001D02*
X205550000Y-89760999D01*
G75*
G02*
X205799999Y-89511000I249999J0D01*
G01*
X206700001Y-89511000D01*
G75*
G02*
X206950000Y-89760999I0J-249999D01*
G01*
X206950000Y-92611001D01*
G75*
G02*
X206700001Y-92861000I-249999J0D01*
G01*
X205799999Y-92861000D01*
G75*
G02*
X205550000Y-92611001I0J249999D01*
G01*
G37*
%TD.AperFunction*%
%TD*%
%TO.P,R4,1*%
%TO.N,-BATT*%
%TA.AperFunction,SMDPad,CuDef*%
G36*
G01*
X216865000Y-158426999D02*
X216865000Y-159327001D01*
G75*
G02*
X216615001Y-159577000I-249999J0D01*
G01*
X215914999Y-159577000D01*
G75*
G02*
X215665000Y-159327001I0J249999D01*
G01*
X215665000Y-158426999D01*
G75*
G02*
X215914999Y-158177000I249999J0D01*
G01*
X216615001Y-158177000D01*
G75*
G02*
X216865000Y-158426999I0J-249999D01*
G01*
G37*
%TD.AperFunction*%
%TO.P,R4,2*%
%TO.N,Net-(R4-Pad2)*%
%TA.AperFunction,SMDPad,CuDef*%
G36*
G01*
X214865000Y-158426999D02*
X214865000Y-159327001D01*
G75*
G02*
X214615001Y-159577000I-249999J0D01*
G01*
X213914999Y-159577000D01*
G75*
G02*
X213665000Y-159327001I0J249999D01*
G01*
X213665000Y-158426999D01*
G75*
G02*
X213914999Y-158177000I249999J0D01*
G01*
X214615001Y-158177000D01*
G75*
G02*
X214865000Y-158426999I0J-249999D01*
G01*
G37*
%TD.AperFunction*%
%TD*%
%TO.P,R5,1*%
%TO.N,-BATT*%
%TA.AperFunction,SMDPad,CuDef*%
G36*
G01*
X222809000Y-144468001D02*
X222809000Y-143567999D01*
G75*
G02*
X223058999Y-143318000I249999J0D01*
G01*
X223759001Y-143318000D01*
G75*
G02*
X224009000Y-143567999I0J-249999D01*
G01*
X224009000Y-144468001D01*
G75*
G02*
X223759001Y-144718000I-249999J0D01*
G01*
X223058999Y-144718000D01*
G75*
G02*
X222809000Y-144468001I0J249999D01*
G01*
G37*
%TD.AperFunction*%
%TO.P,R5,2*%
%TO.N,Net-(R5-Pad2)*%
%TA.AperFunction,SMDPad,CuDef*%
G36*
G01*
X224809000Y-144468001D02*
X224809000Y-143567999D01*
G75*
G02*
X225058999Y-143318000I249999J0D01*
G01*
X225759001Y-143318000D01*
G75*
G02*
X226009000Y-143567999I0J-249999D01*
G01*
X226009000Y-144468001D01*
G75*
G02*
X225759001Y-144718000I-249999J0D01*
G01*
X225058999Y-144718000D01*
G75*
G02*
X224809000Y-144468001I0J249999D01*
G01*
G37*
%TD.AperFunction*%
%TD*%
%TO.P,R7,1*%
%TO.N,Net-(R7-Pad1)*%
%TA.AperFunction,SMDPad,CuDef*%
G36*
G01*
X178238999Y-77394000D02*
X179139001Y-77394000D01*
G75*
G02*
X179389000Y-77643999I0J-249999D01*
G01*
X179389000Y-78344001D01*
G75*
G02*
X179139001Y-78594000I-249999J0D01*
G01*
X178238999Y-78594000D01*
G75*
G02*
X177989000Y-78344001I0J249999D01*
G01*
X177989000Y-77643999D01*
G75*
G02*
X178238999Y-77394000I249999J0D01*
G01*
G37*
%TD.AperFunction*%
%TO.P,R7,2*%
%TO.N,bat+*%
%TA.AperFunction,SMDPad,CuDef*%
G36*
G01*
X178238999Y-79394000D02*
X179139001Y-79394000D01*
G75*
G02*
X179389000Y-79643999I0J-249999D01*
G01*
X179389000Y-80344001D01*
G75*
G02*
X179139001Y-80594000I-249999J0D01*
G01*
X178238999Y-80594000D01*
G75*
G02*
X177989000Y-80344001I0J249999D01*
G01*
X177989000Y-79643999D01*
G75*
G02*
X178238999Y-79394000I249999J0D01*
G01*
G37*
%TD.AperFunction*%
%TD*%
%TO.P,R8,2*%
%TO.N,Net-(R7-Pad1)*%
%TA.AperFunction,SMDPad,CuDef*%
G36*
G01*
X178238999Y-49422000D02*
X179139001Y-49422000D01*
G75*
G02*
X179389000Y-49671999I0J-249999D01*
G01*
X179389000Y-50372001D01*
G75*
G02*
X179139001Y-50622000I-249999J0D01*
G01*
X178238999Y-50622000D01*
G75*
G02*
X177989000Y-50372001I0J249999D01*
G01*
X177989000Y-49671999D01*
G75*
G02*
X178238999Y-49422000I249999J0D01*
G01*
G37*
%TD.AperFunction*%
%TO.P,R8,1*%
%TO.N,-BATT*%
%TA.AperFunction,SMDPad,CuDef*%
G36*
G01*
X178238999Y-47422000D02*
X179139001Y-47422000D01*
G75*
G02*
X179389000Y-47671999I0J-249999D01*
G01*
X179389000Y-48372001D01*
G75*
G02*
X179139001Y-48622000I-249999J0D01*
G01*
X178238999Y-48622000D01*
G75*
G02*
X177989000Y-48372001I0J249999D01*
G01*
X177989000Y-47671999D01*
G75*
G02*
X178238999Y-47422000I249999J0D01*
G01*
G37*
%TD.AperFunction*%
%TD*%
%TO.P,R9,2*%
%TO.N,Net-(R9-Pad2)*%
%TA.AperFunction,SMDPad,CuDef*%
G36*
G01*
X211055000Y-140646999D02*
X211055000Y-141547001D01*
G75*
G02*
X210805001Y-141797000I-249999J0D01*
G01*
X210104999Y-141797000D01*
G75*
G02*
X209855000Y-141547001I0J249999D01*
G01*
X209855000Y-140646999D01*
G75*
G02*
X210104999Y-140397000I249999J0D01*
G01*
X210805001Y-140397000D01*
G75*
G02*
X211055000Y-140646999I0J-249999D01*
G01*
G37*
%TD.AperFunction*%
%TO.P,R9,1*%
%TO.N,Net-(R10-Pad1)*%
%TA.AperFunction,SMDPad,CuDef*%
G36*
G01*
X213055000Y-140646999D02*
X213055000Y-141547001D01*
G75*
G02*
X212805001Y-141797000I-249999J0D01*
G01*
X212104999Y-141797000D01*
G75*
G02*
X211855000Y-141547001I0J249999D01*
G01*
X211855000Y-140646999D01*
G75*
G02*
X212104999Y-140397000I249999J0D01*
G01*
X212805001Y-140397000D01*
G75*
G02*
X213055000Y-140646999I0J-249999D01*
G01*
G37*
%TD.AperFunction*%
%TD*%
%TO.P,R10,1*%
%TO.N,Net-(R10-Pad1)*%
%TA.AperFunction,SMDPad,CuDef*%
G36*
G01*
X214935000Y-141547001D02*
X214935000Y-140646999D01*
G75*
G02*
X215184999Y-140397000I249999J0D01*
G01*
X215885001Y-140397000D01*
G75*
G02*
X216135000Y-140646999I0J-249999D01*
G01*
X216135000Y-141547001D01*
G75*
G02*
X215885001Y-141797000I-249999J0D01*
G01*
X215184999Y-141797000D01*
G75*
G02*
X214935000Y-141547001I0J249999D01*
G01*
G37*
%TD.AperFunction*%
%TO.P,R10,2*%
%TO.N,Net-(R10-Pad2)*%
%TA.AperFunction,SMDPad,CuDef*%
G36*
G01*
X216935000Y-141547001D02*
X216935000Y-140646999D01*
G75*
G02*
X217184999Y-140397000I249999J0D01*
G01*
X217885001Y-140397000D01*
G75*
G02*
X218135000Y-140646999I0J-249999D01*
G01*
X218135000Y-141547001D01*
G75*
G02*
X217885001Y-141797000I-249999J0D01*
G01*
X217184999Y-141797000D01*
G75*
G02*
X216935000Y-141547001I0J249999D01*
G01*
G37*
%TD.AperFunction*%
%TD*%
%TO.P,R11,2*%
%TO.N,Net-(D1-Pad1)*%
%TA.AperFunction,SMDPad,CuDef*%
G36*
G01*
X48583001Y-110344000D02*
X47682999Y-110344000D01*
G75*
G02*
X47433000Y-110094001I0J249999D01*
G01*
X47433000Y-109393999D01*
G75*
G02*
X47682999Y-109144000I249999J0D01*
G01*
X48583001Y-109144000D01*
G75*
G02*
X48833000Y-109393999I0J-249999D01*
G01*
X48833000Y-110094001D01*
G75*
G02*
X48583001Y-110344000I-249999J0D01*
G01*
G37*
%TD.AperFunction*%
%TO.P,R11,1*%
%TO.N,-BATT*%
%TA.AperFunction,SMDPad,CuDef*%
G36*
G01*
X48583001Y-112344000D02*
X47682999Y-112344000D01*
G75*
G02*
X47433000Y-112094001I0J249999D01*
G01*
X47433000Y-111393999D01*
G75*
G02*
X47682999Y-111144000I249999J0D01*
G01*
X48583001Y-111144000D01*
G75*
G02*
X48833000Y-111393999I0J-249999D01*
G01*
X48833000Y-112094001D01*
G75*
G02*
X48583001Y-112344000I-249999J0D01*
G01*
G37*
%TD.AperFunction*%
%TD*%
%TO.P,R12,2*%
%TO.N,Net-(R12-Pad2)*%
%TA.AperFunction,SMDPad,CuDef*%
G36*
G01*
X216084999Y-145307000D02*
X216985001Y-145307000D01*
G75*
G02*
X217235000Y-145556999I0J-249999D01*
G01*
X217235000Y-146257001D01*
G75*
G02*
X216985001Y-146507000I-249999J0D01*
G01*
X216084999Y-146507000D01*
G75*
G02*
X215835000Y-146257001I0J249999D01*
G01*
X215835000Y-145556999D01*
G75*
G02*
X216084999Y-145307000I249999J0D01*
G01*
G37*
%TD.AperFunction*%
%TO.P,R12,1*%
%TO.N,-BATT*%
%TA.AperFunction,SMDPad,CuDef*%
G36*
G01*
X216084999Y-143307000D02*
X216985001Y-143307000D01*
G75*
G02*
X217235000Y-143556999I0J-249999D01*
G01*
X217235000Y-144257001D01*
G75*
G02*
X216985001Y-144507000I-249999J0D01*
G01*
X216084999Y-144507000D01*
G75*
G02*
X215835000Y-144257001I0J249999D01*
G01*
X215835000Y-143556999D01*
G75*
G02*
X216084999Y-143307000I249999J0D01*
G01*
G37*
%TD.AperFunction*%
%TD*%
%TO.P,R13,2*%
%TO.N,Net-(R12-Pad2)*%
%TA.AperFunction,SMDPad,CuDef*%
G36*
G01*
X219525001Y-147190000D02*
X218624999Y-147190000D01*
G75*
G02*
X218375000Y-146940001I0J249999D01*
G01*
X218375000Y-146239999D01*
G75*
G02*
X218624999Y-145990000I249999J0D01*
G01*
X219525001Y-145990000D01*
G75*
G02*
X219775000Y-146239999I0J-249999D01*
G01*
X219775000Y-146940001D01*
G75*
G02*
X219525001Y-147190000I-249999J0D01*
G01*
G37*
%TD.AperFunction*%
%TO.P,R13,1*%
%TO.N,signal*%
%TA.AperFunction,SMDPad,CuDef*%
G36*
G01*
X219525001Y-149190000D02*
X218624999Y-149190000D01*
G75*
G02*
X218375000Y-148940001I0J249999D01*
G01*
X218375000Y-148239999D01*
G75*
G02*
X218624999Y-147990000I249999J0D01*
G01*
X219525001Y-147990000D01*
G75*
G02*
X219775000Y-148239999I0J-249999D01*
G01*
X219775000Y-148940001D01*
G75*
G02*
X219525001Y-149190000I-249999J0D01*
G01*
G37*
%TD.AperFunction*%
%TD*%
%TO.P,R17,1*%
%TO.N,Rs+*%
%TA.AperFunction,SMDPad,CuDef*%
G36*
G01*
X192464001Y-95556000D02*
X190313999Y-95556000D01*
G75*
G02*
X190064000Y-95306001I0J249999D01*
G01*
X190064000Y-94405999D01*
G75*
G02*
X190313999Y-94156000I249999J0D01*
G01*
X192464001Y-94156000D01*
G75*
G02*
X192714000Y-94405999I0J-249999D01*
G01*
X192714000Y-95306001D01*
G75*
G02*
X192464001Y-95556000I-249999J0D01*
G01*
G37*
%TD.AperFunction*%
%TO.P,R17,2*%
%TO.N,Rs-*%
%TA.AperFunction,SMDPad,CuDef*%
G36*
G01*
X192464001Y-90756000D02*
X190313999Y-90756000D01*
G75*
G02*
X190064000Y-90506001I0J249999D01*
G01*
X190064000Y-89605999D01*
G75*
G02*
X190313999Y-89356000I249999J0D01*
G01*
X192464001Y-89356000D01*
G75*
G02*
X192714000Y-89605999I0J-249999D01*
G01*
X192714000Y-90506001D01*
G75*
G02*
X192464001Y-90756000I-249999J0D01*
G01*
G37*
%TD.AperFunction*%
%TD*%
%TO.P,R19,2*%
%TO.N,Rs-*%
%TA.AperFunction,SMDPad,CuDef*%
G36*
G01*
X188400001Y-90756000D02*
X186249999Y-90756000D01*
G75*
G02*
X186000000Y-90506001I0J249999D01*
G01*
X186000000Y-89605999D01*
G75*
G02*
X186249999Y-89356000I249999J0D01*
G01*
X188400001Y-89356000D01*
G75*
G02*
X188650000Y-89605999I0J-249999D01*
G01*
X188650000Y-90506001D01*
G75*
G02*
X188400001Y-90756000I-249999J0D01*
G01*
G37*
%TD.AperFunction*%
%TO.P,R19,1*%
%TO.N,Rs+*%
%TA.AperFunction,SMDPad,CuDef*%
G36*
G01*
X188400001Y-95556000D02*
X186249999Y-95556000D01*
G75*
G02*
X186000000Y-95306001I0J249999D01*
G01*
X186000000Y-94405999D01*
G75*
G02*
X186249999Y-94156000I249999J0D01*
G01*
X188400001Y-94156000D01*
G75*
G02*
X188650000Y-94405999I0J-249999D01*
G01*
X188650000Y-95306001D01*
G75*
G02*
X188400001Y-95556000I-249999J0D01*
G01*
G37*
%TD.AperFunction*%
%TD*%
D20*
%TO.P,R20,1*%
%TO.N,Net-(Q4-Pad3)*%
X242570000Y-102235000D03*
D29*
%TO.P,R20,2*%
%TO.N,+12V*%
X242570000Y-92075000D03*
%TD*%
%TO.P,R22,2*%
%TO.N,Net-(R2-Pad2)*%
%TA.AperFunction,SMDPad,CuDef*%
G36*
G01*
X205550000Y-76101001D02*
X205550000Y-73250999D01*
G75*
G02*
X205799999Y-73001000I249999J0D01*
G01*
X206700001Y-73001000D01*
G75*
G02*
X206950000Y-73250999I0J-249999D01*
G01*
X206950000Y-76101001D01*
G75*
G02*
X206700001Y-76351000I-249999J0D01*
G01*
X205799999Y-76351000D01*
G75*
G02*
X205550000Y-76101001I0J249999D01*
G01*
G37*
%TD.AperFunction*%
%TO.P,R22,1*%
%TO.N,+4.2V*%
%TA.AperFunction,SMDPad,CuDef*%
G36*
G01*
X199450000Y-76101001D02*
X199450000Y-73250999D01*
G75*
G02*
X199699999Y-73001000I249999J0D01*
G01*
X200600001Y-73001000D01*
G75*
G02*
X200850000Y-73250999I0J-249999D01*
G01*
X200850000Y-76101001D01*
G75*
G02*
X200600001Y-76351000I-249999J0D01*
G01*
X199699999Y-76351000D01*
G75*
G02*
X199450000Y-76101001I0J249999D01*
G01*
G37*
%TD.AperFunction*%
%TD*%
%TO.P,R23,1*%
%TO.N,+4.2V*%
%TA.AperFunction,SMDPad,CuDef*%
G36*
G01*
X199450000Y-71021001D02*
X199450000Y-68170999D01*
G75*
G02*
X199699999Y-67921000I249999J0D01*
G01*
X200600001Y-67921000D01*
G75*
G02*
X200850000Y-68170999I0J-249999D01*
G01*
X200850000Y-71021001D01*
G75*
G02*
X200600001Y-71271000I-249999J0D01*
G01*
X199699999Y-71271000D01*
G75*
G02*
X199450000Y-71021001I0J249999D01*
G01*
G37*
%TD.AperFunction*%
%TO.P,R23,2*%
%TO.N,Net-(R2-Pad2)*%
%TA.AperFunction,SMDPad,CuDef*%
G36*
G01*
X205550000Y-71021001D02*
X205550000Y-68170999D01*
G75*
G02*
X205799999Y-67921000I249999J0D01*
G01*
X206700001Y-67921000D01*
G75*
G02*
X206950000Y-68170999I0J-249999D01*
G01*
X206950000Y-71021001D01*
G75*
G02*
X206700001Y-71271000I-249999J0D01*
G01*
X205799999Y-71271000D01*
G75*
G02*
X205550000Y-71021001I0J249999D01*
G01*
G37*
%TD.AperFunction*%
%TD*%
%TO.P,R24,2*%
%TO.N,Net-(D3-Pad1)*%
%TA.AperFunction,SMDPad,CuDef*%
G36*
G01*
X59251001Y-110344000D02*
X58350999Y-110344000D01*
G75*
G02*
X58101000Y-110094001I0J249999D01*
G01*
X58101000Y-109393999D01*
G75*
G02*
X58350999Y-109144000I249999J0D01*
G01*
X59251001Y-109144000D01*
G75*
G02*
X59501000Y-109393999I0J-249999D01*
G01*
X59501000Y-110094001D01*
G75*
G02*
X59251001Y-110344000I-249999J0D01*
G01*
G37*
%TD.AperFunction*%
%TO.P,R24,1*%
%TO.N,-BATT*%
%TA.AperFunction,SMDPad,CuDef*%
G36*
G01*
X59251001Y-112344000D02*
X58350999Y-112344000D01*
G75*
G02*
X58101000Y-112094001I0J249999D01*
G01*
X58101000Y-111393999D01*
G75*
G02*
X58350999Y-111144000I249999J0D01*
G01*
X59251001Y-111144000D01*
G75*
G02*
X59501000Y-111393999I0J-249999D01*
G01*
X59501000Y-112094001D01*
G75*
G02*
X59251001Y-112344000I-249999J0D01*
G01*
G37*
%TD.AperFunction*%
%TD*%
%TO.P,R25,1*%
%TO.N,-BATT*%
%TA.AperFunction,SMDPad,CuDef*%
G36*
G01*
X53663001Y-112344000D02*
X52762999Y-112344000D01*
G75*
G02*
X52513000Y-112094001I0J249999D01*
G01*
X52513000Y-111393999D01*
G75*
G02*
X52762999Y-111144000I249999J0D01*
G01*
X53663001Y-111144000D01*
G75*
G02*
X53913000Y-111393999I0J-249999D01*
G01*
X53913000Y-112094001D01*
G75*
G02*
X53663001Y-112344000I-249999J0D01*
G01*
G37*
%TD.AperFunction*%
%TO.P,R25,2*%
%TO.N,Net-(D4-Pad1)*%
%TA.AperFunction,SMDPad,CuDef*%
G36*
G01*
X53663001Y-110344000D02*
X52762999Y-110344000D01*
G75*
G02*
X52513000Y-110094001I0J249999D01*
G01*
X52513000Y-109393999D01*
G75*
G02*
X52762999Y-109144000I249999J0D01*
G01*
X53663001Y-109144000D01*
G75*
G02*
X53913000Y-109393999I0J-249999D01*
G01*
X53913000Y-110094001D01*
G75*
G02*
X53663001Y-110344000I-249999J0D01*
G01*
G37*
%TD.AperFunction*%
%TD*%
%TO.P,R26,1*%
%TO.N,Net-(D5-Pad2)*%
%TA.AperFunction,SMDPad,CuDef*%
G36*
G01*
X124155000Y-161601999D02*
X124155000Y-162502001D01*
G75*
G02*
X123905001Y-162752000I-249999J0D01*
G01*
X123204999Y-162752000D01*
G75*
G02*
X122955000Y-162502001I0J249999D01*
G01*
X122955000Y-161601999D01*
G75*
G02*
X123204999Y-161352000I249999J0D01*
G01*
X123905001Y-161352000D01*
G75*
G02*
X124155000Y-161601999I0J-249999D01*
G01*
G37*
%TD.AperFunction*%
%TO.P,R26,2*%
%TO.N,Vbat+*%
%TA.AperFunction,SMDPad,CuDef*%
G36*
G01*
X122155000Y-161601999D02*
X122155000Y-162502001D01*
G75*
G02*
X121905001Y-162752000I-249999J0D01*
G01*
X121204999Y-162752000D01*
G75*
G02*
X120955000Y-162502001I0J249999D01*
G01*
X120955000Y-161601999D01*
G75*
G02*
X121204999Y-161352000I249999J0D01*
G01*
X121905001Y-161352000D01*
G75*
G02*
X122155000Y-161601999I0J-249999D01*
G01*
G37*
%TD.AperFunction*%
%TD*%
%TO.P,R27,1*%
%TO.N,Net-(D5-Pad2)*%
%TA.AperFunction,SMDPad,CuDef*%
G36*
G01*
X122860000Y-158692001D02*
X122860000Y-157791999D01*
G75*
G02*
X123109999Y-157542000I249999J0D01*
G01*
X123810001Y-157542000D01*
G75*
G02*
X124060000Y-157791999I0J-249999D01*
G01*
X124060000Y-158692001D01*
G75*
G02*
X123810001Y-158942000I-249999J0D01*
G01*
X123109999Y-158942000D01*
G75*
G02*
X122860000Y-158692001I0J249999D01*
G01*
G37*
%TD.AperFunction*%
%TO.P,R27,2*%
%TO.N,bat+*%
%TA.AperFunction,SMDPad,CuDef*%
G36*
G01*
X124860000Y-158692001D02*
X124860000Y-157791999D01*
G75*
G02*
X125109999Y-157542000I249999J0D01*
G01*
X125810001Y-157542000D01*
G75*
G02*
X126060000Y-157791999I0J-249999D01*
G01*
X126060000Y-158692001D01*
G75*
G02*
X125810001Y-158942000I-249999J0D01*
G01*
X125109999Y-158942000D01*
G75*
G02*
X124860000Y-158692001I0J249999D01*
G01*
G37*
%TD.AperFunction*%
%TD*%
%TO.P,R28,2*%
%TO.N,Net-(D5-Pad2)*%
%TA.AperFunction,SMDPad,CuDef*%
G36*
G01*
X119780000Y-158692001D02*
X119780000Y-157791999D01*
G75*
G02*
X120029999Y-157542000I249999J0D01*
G01*
X120730001Y-157542000D01*
G75*
G02*
X120980000Y-157791999I0J-249999D01*
G01*
X120980000Y-158692001D01*
G75*
G02*
X120730001Y-158942000I-249999J0D01*
G01*
X120029999Y-158942000D01*
G75*
G02*
X119780000Y-158692001I0J249999D01*
G01*
G37*
%TD.AperFunction*%
%TO.P,R28,1*%
%TO.N,-BATT*%
%TA.AperFunction,SMDPad,CuDef*%
G36*
G01*
X117780000Y-158692001D02*
X117780000Y-157791999D01*
G75*
G02*
X118029999Y-157542000I249999J0D01*
G01*
X118730001Y-157542000D01*
G75*
G02*
X118980000Y-157791999I0J-249999D01*
G01*
X118980000Y-158692001D01*
G75*
G02*
X118730001Y-158942000I-249999J0D01*
G01*
X118029999Y-158942000D01*
G75*
G02*
X117780000Y-158692001I0J249999D01*
G01*
G37*
%TD.AperFunction*%
%TD*%
%TO.P,R29,2*%
%TO.N,Viout*%
%TA.AperFunction,SMDPad,CuDef*%
G36*
G01*
X104959999Y-156737000D02*
X105860001Y-156737000D01*
G75*
G02*
X106110000Y-156986999I0J-249999D01*
G01*
X106110000Y-157687001D01*
G75*
G02*
X105860001Y-157937000I-249999J0D01*
G01*
X104959999Y-157937000D01*
G75*
G02*
X104710000Y-157687001I0J249999D01*
G01*
X104710000Y-156986999D01*
G75*
G02*
X104959999Y-156737000I249999J0D01*
G01*
G37*
%TD.AperFunction*%
%TO.P,R29,1*%
%TO.N,Net-(D7-Pad2)*%
%TA.AperFunction,SMDPad,CuDef*%
G36*
G01*
X104959999Y-154737000D02*
X105860001Y-154737000D01*
G75*
G02*
X106110000Y-154986999I0J-249999D01*
G01*
X106110000Y-155687001D01*
G75*
G02*
X105860001Y-155937000I-249999J0D01*
G01*
X104959999Y-155937000D01*
G75*
G02*
X104710000Y-155687001I0J249999D01*
G01*
X104710000Y-154986999D01*
G75*
G02*
X104959999Y-154737000I249999J0D01*
G01*
G37*
%TD.AperFunction*%
%TD*%
%TO.P,R30,1*%
%TO.N,Net-(D7-Pad2)*%
%TA.AperFunction,SMDPad,CuDef*%
G36*
G01*
X102050001Y-156032000D02*
X101149999Y-156032000D01*
G75*
G02*
X100900000Y-155782001I0J249999D01*
G01*
X100900000Y-155081999D01*
G75*
G02*
X101149999Y-154832000I249999J0D01*
G01*
X102050001Y-154832000D01*
G75*
G02*
X102300000Y-155081999I0J-249999D01*
G01*
X102300000Y-155782001D01*
G75*
G02*
X102050001Y-156032000I-249999J0D01*
G01*
G37*
%TD.AperFunction*%
%TO.P,R30,2*%
%TO.N,Iout*%
%TA.AperFunction,SMDPad,CuDef*%
G36*
G01*
X102050001Y-154032000D02*
X101149999Y-154032000D01*
G75*
G02*
X100900000Y-153782001I0J249999D01*
G01*
X100900000Y-153081999D01*
G75*
G02*
X101149999Y-152832000I249999J0D01*
G01*
X102050001Y-152832000D01*
G75*
G02*
X102300000Y-153081999I0J-249999D01*
G01*
X102300000Y-153782001D01*
G75*
G02*
X102050001Y-154032000I-249999J0D01*
G01*
G37*
%TD.AperFunction*%
%TD*%
%TO.P,R31,1*%
%TO.N,-BATT*%
%TA.AperFunction,SMDPad,CuDef*%
G36*
G01*
X102050001Y-161112000D02*
X101149999Y-161112000D01*
G75*
G02*
X100900000Y-160862001I0J249999D01*
G01*
X100900000Y-160161999D01*
G75*
G02*
X101149999Y-159912000I249999J0D01*
G01*
X102050001Y-159912000D01*
G75*
G02*
X102300000Y-160161999I0J-249999D01*
G01*
X102300000Y-160862001D01*
G75*
G02*
X102050001Y-161112000I-249999J0D01*
G01*
G37*
%TD.AperFunction*%
%TO.P,R31,2*%
%TO.N,Net-(D7-Pad2)*%
%TA.AperFunction,SMDPad,CuDef*%
G36*
G01*
X102050001Y-159112000D02*
X101149999Y-159112000D01*
G75*
G02*
X100900000Y-158862001I0J249999D01*
G01*
X100900000Y-158161999D01*
G75*
G02*
X101149999Y-157912000I249999J0D01*
G01*
X102050001Y-157912000D01*
G75*
G02*
X102300000Y-158161999I0J-249999D01*
G01*
X102300000Y-158862001D01*
G75*
G02*
X102050001Y-159112000I-249999J0D01*
G01*
G37*
%TD.AperFunction*%
%TD*%
%TO.P,R32,1*%
%TO.N,+4.2V*%
%TA.AperFunction,SMDPad,CuDef*%
G36*
G01*
X199450000Y-87277001D02*
X199450000Y-84426999D01*
G75*
G02*
X199699999Y-84177000I249999J0D01*
G01*
X200600001Y-84177000D01*
G75*
G02*
X200850000Y-84426999I0J-249999D01*
G01*
X200850000Y-87277001D01*
G75*
G02*
X200600001Y-87527000I-249999J0D01*
G01*
X199699999Y-87527000D01*
G75*
G02*
X199450000Y-87277001I0J249999D01*
G01*
G37*
%TD.AperFunction*%
%TO.P,R32,2*%
%TO.N,Net-(R1-Pad1)*%
%TA.AperFunction,SMDPad,CuDef*%
G36*
G01*
X205550000Y-87277001D02*
X205550000Y-84426999D01*
G75*
G02*
X205799999Y-84177000I249999J0D01*
G01*
X206700001Y-84177000D01*
G75*
G02*
X206950000Y-84426999I0J-249999D01*
G01*
X206950000Y-87277001D01*
G75*
G02*
X206700001Y-87527000I-249999J0D01*
G01*
X205799999Y-87527000D01*
G75*
G02*
X205550000Y-87277001I0J249999D01*
G01*
G37*
%TD.AperFunction*%
%TD*%
%TO.P,R33,2*%
%TO.N,Net-(R1-Pad1)*%
%TA.AperFunction,SMDPad,CuDef*%
G36*
G01*
X205550000Y-97691001D02*
X205550000Y-94840999D01*
G75*
G02*
X205799999Y-94591000I249999J0D01*
G01*
X206700001Y-94591000D01*
G75*
G02*
X206950000Y-94840999I0J-249999D01*
G01*
X206950000Y-97691001D01*
G75*
G02*
X206700001Y-97941000I-249999J0D01*
G01*
X205799999Y-97941000D01*
G75*
G02*
X205550000Y-97691001I0J249999D01*
G01*
G37*
%TD.AperFunction*%
%TO.P,R33,1*%
%TO.N,+4.2V*%
%TA.AperFunction,SMDPad,CuDef*%
G36*
G01*
X199450000Y-97691001D02*
X199450000Y-94840999D01*
G75*
G02*
X199699999Y-94591000I249999J0D01*
G01*
X200600001Y-94591000D01*
G75*
G02*
X200850000Y-94840999I0J-249999D01*
G01*
X200850000Y-97691001D01*
G75*
G02*
X200600001Y-97941000I-249999J0D01*
G01*
X199699999Y-97941000D01*
G75*
G02*
X199450000Y-97691001I0J249999D01*
G01*
G37*
%TD.AperFunction*%
%TD*%
D30*
%TO.P,RV1,1*%
%TO.N,Net-(R6-Pad1)*%
X212090000Y-51562000D03*
%TO.P,RV1,2*%
%TO.N,-BATT*%
X212090000Y-49022000D03*
%TO.P,RV1,3*%
X212090000Y-46482000D03*
%TD*%
%TO.P,RV2,3*%
%TO.N,Net-(R4-Pad2)*%
X214249000Y-170434000D03*
%TO.P,RV2,2*%
%TO.N,Net-(R9-Pad2)*%
X216789000Y-170434000D03*
%TO.P,RV2,1*%
X219329000Y-170434000D03*
%TD*%
%TO.P,RV3,1*%
%TO.N,Net-(R10-Pad2)*%
X237490000Y-134620000D03*
%TO.P,RV3,2*%
X234950000Y-134620000D03*
%TO.P,RV3,3*%
%TO.N,Net-(R5-Pad2)*%
X232410000Y-134620000D03*
%TD*%
D17*
%TO.P,TP1,1*%
%TO.N,Net-(R9-Pad2)*%
X231267000Y-170434000D03*
%TD*%
%TO.P,TP2,1*%
%TO.N,Net-(R10-Pad2)*%
X242189000Y-133858000D03*
%TD*%
%TO.P,TP3,1*%
%TO.N,signal*%
X229743000Y-141478000D03*
%TD*%
%TO.P,U2,1*%
%TO.N,signal*%
%TA.AperFunction,SMDPad,CuDef*%
G36*
G01*
X216385000Y-149077000D02*
X216685000Y-149077000D01*
G75*
G02*
X216835000Y-149227000I0J-150000D01*
G01*
X216835000Y-150877000D01*
G75*
G02*
X216685000Y-151027000I-150000J0D01*
G01*
X216385000Y-151027000D01*
G75*
G02*
X216235000Y-150877000I0J150000D01*
G01*
X216235000Y-149227000D01*
G75*
G02*
X216385000Y-149077000I150000J0D01*
G01*
G37*
%TD.AperFunction*%
%TO.P,U2,2*%
%TO.N,Net-(R12-Pad2)*%
%TA.AperFunction,SMDPad,CuDef*%
G36*
G01*
X215115000Y-149077000D02*
X215415000Y-149077000D01*
G75*
G02*
X215565000Y-149227000I0J-150000D01*
G01*
X215565000Y-150877000D01*
G75*
G02*
X215415000Y-151027000I-150000J0D01*
G01*
X215115000Y-151027000D01*
G75*
G02*
X214965000Y-150877000I0J150000D01*
G01*
X214965000Y-149227000D01*
G75*
G02*
X215115000Y-149077000I150000J0D01*
G01*
G37*
%TD.AperFunction*%
%TO.P,U2,3*%
%TO.N,Net-(R10-Pad1)*%
%TA.AperFunction,SMDPad,CuDef*%
G36*
G01*
X213845000Y-149077000D02*
X214145000Y-149077000D01*
G75*
G02*
X214295000Y-149227000I0J-150000D01*
G01*
X214295000Y-150877000D01*
G75*
G02*
X214145000Y-151027000I-150000J0D01*
G01*
X213845000Y-151027000D01*
G75*
G02*
X213695000Y-150877000I0J150000D01*
G01*
X213695000Y-149227000D01*
G75*
G02*
X213845000Y-149077000I150000J0D01*
G01*
G37*
%TD.AperFunction*%
%TO.P,U2,4*%
%TO.N,-BATT*%
%TA.AperFunction,SMDPad,CuDef*%
G36*
G01*
X212575000Y-149077000D02*
X212875000Y-149077000D01*
G75*
G02*
X213025000Y-149227000I0J-150000D01*
G01*
X213025000Y-150877000D01*
G75*
G02*
X212875000Y-151027000I-150000J0D01*
G01*
X212575000Y-151027000D01*
G75*
G02*
X212425000Y-150877000I0J150000D01*
G01*
X212425000Y-149227000D01*
G75*
G02*
X212575000Y-149077000I150000J0D01*
G01*
G37*
%TD.AperFunction*%
%TO.P,U2,5*%
%TO.N,sigout*%
%TA.AperFunction,SMDPad,CuDef*%
G36*
G01*
X212575000Y-154027000D02*
X212875000Y-154027000D01*
G75*
G02*
X213025000Y-154177000I0J-150000D01*
G01*
X213025000Y-155827000D01*
G75*
G02*
X212875000Y-155977000I-150000J0D01*
G01*
X212575000Y-155977000D01*
G75*
G02*
X212425000Y-155827000I0J150000D01*
G01*
X212425000Y-154177000D01*
G75*
G02*
X212575000Y-154027000I150000J0D01*
G01*
G37*
%TD.AperFunction*%
%TO.P,U2,6*%
%TO.N,Net-(R4-Pad2)*%
%TA.AperFunction,SMDPad,CuDef*%
G36*
G01*
X213845000Y-154027000D02*
X214145000Y-154027000D01*
G75*
G02*
X214295000Y-154177000I0J-150000D01*
G01*
X214295000Y-155827000D01*
G75*
G02*
X214145000Y-155977000I-150000J0D01*
G01*
X213845000Y-155977000D01*
G75*
G02*
X213695000Y-155827000I0J150000D01*
G01*
X213695000Y-154177000D01*
G75*
G02*
X213845000Y-154027000I150000J0D01*
G01*
G37*
%TD.AperFunction*%
%TO.P,U2,7*%
%TO.N,Net-(R9-Pad2)*%
%TA.AperFunction,SMDPad,CuDef*%
G36*
G01*
X215115000Y-154027000D02*
X215415000Y-154027000D01*
G75*
G02*
X215565000Y-154177000I0J-150000D01*
G01*
X215565000Y-155827000D01*
G75*
G02*
X215415000Y-155977000I-150000J0D01*
G01*
X215115000Y-155977000D01*
G75*
G02*
X214965000Y-155827000I0J150000D01*
G01*
X214965000Y-154177000D01*
G75*
G02*
X215115000Y-154027000I150000J0D01*
G01*
G37*
%TD.AperFunction*%
%TO.P,U2,8*%
%TO.N,+12V*%
%TA.AperFunction,SMDPad,CuDef*%
G36*
G01*
X216385000Y-154027000D02*
X216685000Y-154027000D01*
G75*
G02*
X216835000Y-154177000I0J-150000D01*
G01*
X216835000Y-155827000D01*
G75*
G02*
X216685000Y-155977000I-150000J0D01*
G01*
X216385000Y-155977000D01*
G75*
G02*
X216235000Y-155827000I0J150000D01*
G01*
X216235000Y-154177000D01*
G75*
G02*
X216385000Y-154027000I150000J0D01*
G01*
G37*
%TD.AperFunction*%
%TD*%
D15*
%TO.P,U3,3*%
%TO.N,+12V*%
X214376000Y-68072000D03*
%TO.P,U3,2*%
%TO.N,Net-(R2-Pad2)*%
X214376000Y-65532000D03*
D16*
%TO.P,U3,1*%
%TO.N,Net-(Q6-Pad1)*%
X214376000Y-62992000D03*
%TD*%
%TO.P,U4,1*%
%TO.N,Net-(Q6-Pad1)*%
X214376000Y-83312000D03*
D15*
%TO.P,U4,2*%
%TO.N,Net-(R1-Pad1)*%
X214376000Y-85852000D03*
%TO.P,U4,3*%
%TO.N,+12V*%
X214376000Y-88392000D03*
%TD*%
D31*
%TO.P,U5,1*%
%TO.N,+12V*%
X242183000Y-140961000D03*
%TO.P,U5,3*%
%TO.N,+5V*%
X237623000Y-140961000D03*
D32*
%TO.P,U5,2*%
%TO.N,-BATT*%
X239903000Y-147261000D03*
%TD*%
%TO.P,U8,1*%
%TO.N,Rs-*%
%TA.AperFunction,SMDPad,CuDef*%
G36*
G01*
X182984000Y-89006000D02*
X183284000Y-89006000D01*
G75*
G02*
X183434000Y-89156000I0J-150000D01*
G01*
X183434000Y-90806000D01*
G75*
G02*
X183284000Y-90956000I-150000J0D01*
G01*
X182984000Y-90956000D01*
G75*
G02*
X182834000Y-90806000I0J150000D01*
G01*
X182834000Y-89156000D01*
G75*
G02*
X182984000Y-89006000I150000J0D01*
G01*
G37*
%TD.AperFunction*%
%TO.P,U8,2*%
%TO.N,-BATT*%
%TA.AperFunction,SMDPad,CuDef*%
G36*
G01*
X181714000Y-89006000D02*
X182014000Y-89006000D01*
G75*
G02*
X182164000Y-89156000I0J-150000D01*
G01*
X182164000Y-90806000D01*
G75*
G02*
X182014000Y-90956000I-150000J0D01*
G01*
X181714000Y-90956000D01*
G75*
G02*
X181564000Y-90806000I0J150000D01*
G01*
X181564000Y-89156000D01*
G75*
G02*
X181714000Y-89006000I150000J0D01*
G01*
G37*
%TD.AperFunction*%
%TO.P,U8,3*%
%TA.AperFunction,SMDPad,CuDef*%
G36*
G01*
X180444000Y-89006000D02*
X180744000Y-89006000D01*
G75*
G02*
X180894000Y-89156000I0J-150000D01*
G01*
X180894000Y-90806000D01*
G75*
G02*
X180744000Y-90956000I-150000J0D01*
G01*
X180444000Y-90956000D01*
G75*
G02*
X180294000Y-90806000I0J150000D01*
G01*
X180294000Y-89156000D01*
G75*
G02*
X180444000Y-89006000I150000J0D01*
G01*
G37*
%TD.AperFunction*%
%TO.P,U8,4*%
%TO.N,Net-(U8-Pad4)*%
%TA.AperFunction,SMDPad,CuDef*%
G36*
G01*
X179174000Y-89006000D02*
X179474000Y-89006000D01*
G75*
G02*
X179624000Y-89156000I0J-150000D01*
G01*
X179624000Y-90806000D01*
G75*
G02*
X179474000Y-90956000I-150000J0D01*
G01*
X179174000Y-90956000D01*
G75*
G02*
X179024000Y-90806000I0J150000D01*
G01*
X179024000Y-89156000D01*
G75*
G02*
X179174000Y-89006000I150000J0D01*
G01*
G37*
%TD.AperFunction*%
%TO.P,U8,5*%
%TO.N,Iout*%
%TA.AperFunction,SMDPad,CuDef*%
G36*
G01*
X179174000Y-93956000D02*
X179474000Y-93956000D01*
G75*
G02*
X179624000Y-94106000I0J-150000D01*
G01*
X179624000Y-95756000D01*
G75*
G02*
X179474000Y-95906000I-150000J0D01*
G01*
X179174000Y-95906000D01*
G75*
G02*
X179024000Y-95756000I0J150000D01*
G01*
X179024000Y-94106000D01*
G75*
G02*
X179174000Y-93956000I150000J0D01*
G01*
G37*
%TD.AperFunction*%
%TO.P,U8,6*%
%TO.N,+5V*%
%TA.AperFunction,SMDPad,CuDef*%
G36*
G01*
X180444000Y-93956000D02*
X180744000Y-93956000D01*
G75*
G02*
X180894000Y-94106000I0J-150000D01*
G01*
X180894000Y-95756000D01*
G75*
G02*
X180744000Y-95906000I-150000J0D01*
G01*
X180444000Y-95906000D01*
G75*
G02*
X180294000Y-95756000I0J150000D01*
G01*
X180294000Y-94106000D01*
G75*
G02*
X180444000Y-93956000I150000J0D01*
G01*
G37*
%TD.AperFunction*%
%TO.P,U8,7*%
%TA.AperFunction,SMDPad,CuDef*%
G36*
G01*
X181714000Y-93956000D02*
X182014000Y-93956000D01*
G75*
G02*
X182164000Y-94106000I0J-150000D01*
G01*
X182164000Y-95756000D01*
G75*
G02*
X182014000Y-95906000I-150000J0D01*
G01*
X181714000Y-95906000D01*
G75*
G02*
X181564000Y-95756000I0J150000D01*
G01*
X181564000Y-94106000D01*
G75*
G02*
X181714000Y-93956000I150000J0D01*
G01*
G37*
%TD.AperFunction*%
%TO.P,U8,8*%
%TO.N,Rs+*%
%TA.AperFunction,SMDPad,CuDef*%
G36*
G01*
X182984000Y-93956000D02*
X183284000Y-93956000D01*
G75*
G02*
X183434000Y-94106000I0J-150000D01*
G01*
X183434000Y-95756000D01*
G75*
G02*
X183284000Y-95906000I-150000J0D01*
G01*
X182984000Y-95906000D01*
G75*
G02*
X182834000Y-95756000I0J150000D01*
G01*
X182834000Y-94106000D01*
G75*
G02*
X182984000Y-93956000I150000J0D01*
G01*
G37*
%TD.AperFunction*%
%TD*%
D33*
%TO.N,bat+*%
X129159004Y-158242004D03*
X152019004Y-158241984D03*
%TO.N,-BATT*%
X94361000Y-162052000D03*
X175895000Y-88392000D03*
X162941000Y-162560006D03*
X189865000Y-64262000D03*
X187325000Y-64262000D03*
X184785000Y-64262000D03*
X182245000Y-64262000D03*
X48133000Y-114554000D03*
X53213000Y-114554000D03*
X58801000Y-114554000D03*
X178435000Y-120396000D03*
X200660000Y-142240000D03*
X159893000Y-120396000D03*
%TO.N,Vbat-*%
X171584971Y-160274000D03*
%TO.N,+12V*%
X179705000Y-107188000D03*
X198755000Y-107188000D03*
X222504000Y-154432000D03*
X233045000Y-139065000D03*
%TO.N,+5V*%
X52197000Y-122428000D03*
X225552000Y-159512004D03*
X225552000Y-152273000D03*
X173735998Y-158623000D03*
%TO.N,Vbat+*%
X121539000Y-165608000D03*
%TO.N,Viout*%
X107823000Y-160274000D03*
%TO.N,+3V3*%
X90043000Y-166116000D03*
X154305000Y-149860000D03*
X125349000Y-150114000D03*
%TO.N,sigout*%
X209550000Y-156972000D03*
%TO.N,SCLK*%
X131699000Y-144272000D03*
X131699000Y-172212000D03*
%TO.N,Net-(Q1-Pad2)*%
X187960000Y-111252000D03*
X185420000Y-113157000D03*
X187960000Y-115062000D03*
X185420000Y-116967000D03*
X185420000Y-109347000D03*
X182880000Y-111252000D03*
X182880000Y-115062000D03*
%TO.N,Rs+*%
X187325000Y-97155000D03*
X191135000Y-97155000D03*
%TO.N,+4.2V*%
X195580000Y-64516000D03*
X195580000Y-69807666D03*
X195580000Y-75099332D03*
X195580000Y-85682664D03*
X195580000Y-96266000D03*
X195580000Y-90974330D03*
X195580000Y-80390998D03*
%TO.N,Net-(R1-Pad1)*%
X208788000Y-85852000D03*
X208788000Y-91186000D03*
X208788000Y-96266000D03*
%TO.N,Net-(R2-Pad2)*%
X208788000Y-64516000D03*
X208788000Y-69596000D03*
X208788000Y-74676000D03*
%TO.N,Net-(R4-Pad2)*%
X214249000Y-166624000D03*
%TO.N,Net-(R5-Pad2)*%
X229997000Y-137668000D03*
%TO.N,Net-(R7-Pad1)*%
X178689000Y-75438000D03*
X218694000Y-79248000D03*
X204724000Y-80264000D03*
%TO.N,Net-(R9-Pad2)*%
X218567000Y-166624000D03*
X210439000Y-144653000D03*
X218567000Y-156906990D03*
%TO.N,signal*%
X221615000Y-148844000D03*
%TO.N,Iout*%
X132207000Y-139700000D03*
X155575000Y-139700014D03*
X110744000Y-153416000D03*
X110744000Y-139700000D03*
%TO.N,CV_g*%
X113919000Y-129540000D03*
X121031000Y-129540000D03*
%TO.N,CC_g*%
X122047000Y-127508000D03*
X110363000Y-127508000D03*
%TO.N,bat-*%
X154051001Y-94995999D03*
%TD*%
D34*
%TO.N,bat+*%
X178721000Y-79962000D02*
X178689000Y-79994000D01*
X188665000Y-79962000D02*
X178721000Y-79962000D01*
X125460000Y-158242000D02*
X129159000Y-158242000D01*
X129159000Y-158242000D02*
X129159004Y-158242004D01*
X152019004Y-93725996D02*
X152019004Y-158241984D01*
X165751000Y-79994000D02*
X152019004Y-93725996D01*
X178689000Y-79994000D02*
X165751000Y-79994000D01*
D35*
%TO.N,Rs-*%
X183134000Y-89981000D02*
X183134000Y-91059000D01*
X183134000Y-91059000D02*
X184023000Y-91948000D01*
X184023000Y-91948000D02*
X185547000Y-91948000D01*
X186499500Y-91948000D02*
X185547000Y-91948000D01*
X187325000Y-91122500D02*
X186499500Y-91948000D01*
X187325000Y-90056000D02*
X187325000Y-91122500D01*
X191389000Y-91186000D02*
X191389000Y-90056000D01*
X190627000Y-91948000D02*
X191389000Y-91186000D01*
X185547000Y-91948000D02*
X190627000Y-91948000D01*
D34*
%TO.N,-BATT*%
X219075000Y-151489500D02*
X218672500Y-151892000D01*
X212725000Y-151027000D02*
X212725000Y-150052000D01*
X213590000Y-151892000D02*
X212725000Y-151027000D01*
X218672500Y-151892000D02*
X213590000Y-151892000D01*
X188665000Y-48022000D02*
X188810000Y-47877000D01*
D36*
X104852500Y-161897000D02*
X105410000Y-162454500D01*
X101600000Y-161869000D02*
X101572000Y-161897000D01*
X101600000Y-160512000D02*
X101600000Y-161869000D01*
X101572000Y-161897000D02*
X104852500Y-161897000D01*
X97790000Y-161897000D02*
X101572000Y-161897000D01*
X116035000Y-162454500D02*
X116437500Y-162052000D01*
X105410000Y-162454500D02*
X116035000Y-162454500D01*
X116437500Y-154989500D02*
X116995000Y-154432000D01*
X116713000Y-158242000D02*
X116437500Y-158517500D01*
X118380000Y-158242000D02*
X116713000Y-158242000D01*
X116437500Y-158517500D02*
X116437500Y-154989500D01*
X116437500Y-162052000D02*
X116437500Y-158517500D01*
X97635000Y-162052000D02*
X97790000Y-161897000D01*
X94361000Y-162052000D02*
X97635000Y-162052000D01*
X243478000Y-147261000D02*
X247015000Y-143724000D01*
X239903000Y-147261000D02*
X243478000Y-147261000D01*
D35*
X176149000Y-91164500D02*
X177397500Y-91164500D01*
X177397500Y-91164500D02*
X178181000Y-91948000D01*
X178181000Y-91948000D02*
X180721000Y-91948000D01*
X181164000Y-91505000D02*
X181164000Y-89981000D01*
X180721000Y-91948000D02*
X181164000Y-91505000D01*
X181164000Y-89981000D02*
X180594000Y-89981000D01*
X181864000Y-89981000D02*
X181164000Y-89981000D01*
D34*
X175895000Y-90910500D02*
X176149000Y-91164500D01*
X175895000Y-88392000D02*
X175895000Y-90910500D01*
X181164000Y-89981000D02*
X181164000Y-84647000D01*
X181164000Y-84647000D02*
X183769000Y-82042000D01*
X183769000Y-82042000D02*
X191135000Y-82042000D01*
X191135000Y-82042000D02*
X192151000Y-81026000D01*
X192151000Y-72448000D02*
X188665000Y-68962000D01*
X192151000Y-81026000D02*
X192151000Y-72448000D01*
D36*
X202818994Y-162560006D02*
X202819000Y-162560000D01*
X237617000Y-174752000D02*
X239903000Y-172466000D01*
X239903000Y-172466000D02*
X239903000Y-147261000D01*
X202819000Y-171450000D02*
X206121000Y-174752000D01*
X202819000Y-162560000D02*
X202819000Y-171450000D01*
X221869000Y-174752000D02*
X237617000Y-174752000D01*
X206121000Y-174752000D02*
X221869000Y-174752000D01*
X234823000Y-143658500D02*
X234823000Y-146304000D01*
X235780000Y-147261000D02*
X239903000Y-147261000D01*
X234823000Y-146304000D02*
X235780000Y-147261000D01*
D34*
X188810000Y-41277000D02*
X188810000Y-37934000D01*
X188810000Y-37934000D02*
X188595000Y-37719000D01*
X188595000Y-37719000D02*
X179832000Y-37719000D01*
X178689000Y-38862000D02*
X178689000Y-48022000D01*
X179832000Y-37719000D02*
X178689000Y-38862000D01*
D36*
X48133000Y-114554000D02*
X48133000Y-111744000D01*
X53213000Y-114554000D02*
X53213000Y-111744000D01*
X58801000Y-114554000D02*
X58801000Y-111744000D01*
X162150994Y-161770000D02*
X162941000Y-162560006D01*
X159020000Y-160020000D02*
X158750000Y-159750000D01*
X165100000Y-160020000D02*
X159020000Y-160020000D01*
X158750000Y-159750000D02*
X158750000Y-161615000D01*
X158750000Y-161615000D02*
X158905000Y-161770000D01*
X158905000Y-161770000D02*
X162150994Y-161770000D01*
X155575000Y-161770000D02*
X158905000Y-161770000D01*
X165100006Y-160020006D02*
X165100000Y-160020000D01*
X165100006Y-162560006D02*
X165100006Y-160020006D01*
X162941000Y-162560006D02*
X165100006Y-162560006D01*
X202818994Y-162560006D02*
X202818994Y-160273994D01*
X202818994Y-160273994D02*
X202818994Y-159003994D01*
X202818994Y-159003994D02*
X200660000Y-156845000D01*
D34*
X221869000Y-169164000D02*
X221869000Y-174752000D01*
X220980000Y-168275000D02*
X221869000Y-169164000D01*
X217805000Y-168275000D02*
X220980000Y-168275000D01*
X216265000Y-166735000D02*
X217805000Y-168275000D01*
X223298000Y-143907000D02*
X223409000Y-144018000D01*
X216535000Y-143907000D02*
X223298000Y-143907000D01*
X223266000Y-144161000D02*
X223409000Y-144018000D01*
X223266000Y-150495000D02*
X223266000Y-144161000D01*
X222271500Y-151489500D02*
X223266000Y-150495000D01*
X219075000Y-151489500D02*
X222271500Y-151489500D01*
D36*
X200660000Y-145288000D02*
X200660000Y-133604000D01*
X200660000Y-156845000D02*
X200660000Y-145288000D01*
X200660000Y-145288000D02*
X200660000Y-140335000D01*
X187452000Y-120396000D02*
X178435000Y-120396000D01*
X200660000Y-133604000D02*
X187452000Y-120396000D01*
D34*
X200660000Y-139065000D02*
X200660000Y-140335000D01*
X202565000Y-137160000D02*
X200660000Y-139065000D01*
X207010000Y-137160000D02*
X202565000Y-137160000D01*
X208280000Y-138430000D02*
X207010000Y-137160000D01*
X208280000Y-145034000D02*
X208280000Y-138430000D01*
X209550000Y-146304000D02*
X208280000Y-145034000D01*
X211836000Y-146304000D02*
X209550000Y-146304000D01*
X212725000Y-147193000D02*
X211836000Y-146304000D01*
X212725000Y-150052000D02*
X212725000Y-147193000D01*
X216265000Y-166735000D02*
X216265000Y-158877000D01*
D36*
X178435000Y-120396000D02*
X159893000Y-120396000D01*
X165100006Y-162560006D02*
X202818994Y-162560006D01*
D34*
%TO.N,Vbat-*%
X165100000Y-157945000D02*
X165100000Y-155575000D01*
X163560000Y-155575000D02*
X165100000Y-155575000D01*
X166885971Y-155575000D02*
X171084972Y-159774001D01*
X165100000Y-155575000D02*
X166885971Y-155575000D01*
X171084972Y-159774001D02*
X171584971Y-160274000D01*
D35*
%TO.N,+12V*%
X217972500Y-153564500D02*
X216535000Y-155002000D01*
X219075000Y-153564500D02*
X217972500Y-153564500D01*
D34*
X198755000Y-107188000D02*
X179705000Y-107188000D01*
D36*
X242183000Y-140961000D02*
X242198000Y-140961000D01*
X242183000Y-140961000D02*
X242183000Y-140468000D01*
D35*
X219075000Y-153564500D02*
X221466500Y-153564500D01*
D36*
X246752000Y-140961000D02*
X247015000Y-141224000D01*
X242183000Y-140961000D02*
X246752000Y-140961000D01*
D34*
X240287000Y-139065000D02*
X242183000Y-140961000D01*
D36*
X241722000Y-40005000D02*
X240069000Y-41658000D01*
X245110000Y-40005000D02*
X241722000Y-40005000D01*
D37*
X247015000Y-141224000D02*
X247396000Y-141224000D01*
X247396000Y-141224000D02*
X249555000Y-139065000D01*
D34*
X221636500Y-153564500D02*
X222504000Y-154432000D01*
X221466500Y-153564500D02*
X221636500Y-153564500D01*
X233045000Y-139065000D02*
X240287000Y-139065000D01*
D36*
X214360000Y-88662000D02*
X214630000Y-88392000D01*
D34*
X249301000Y-98806000D02*
X249555000Y-98552000D01*
X202311000Y-99568000D02*
X203073000Y-98806000D01*
X203073000Y-98806000D02*
X249301000Y-98806000D01*
X202311000Y-106172000D02*
X202311000Y-99568000D01*
X201295000Y-107188000D02*
X202311000Y-106172000D01*
X198755000Y-107188000D02*
X201295000Y-107188000D01*
D37*
X249555000Y-98552000D02*
X249555000Y-92710000D01*
X249555000Y-139065000D02*
X249555000Y-98552000D01*
D34*
%TO.N,+5V*%
X49290000Y-106059000D02*
X48133000Y-106059000D01*
X49290000Y-106059000D02*
X50419000Y-107188000D01*
X50419000Y-107188000D02*
X50419000Y-120142000D01*
X50419000Y-120650000D02*
X50419000Y-120142000D01*
X52197000Y-122428000D02*
X50419000Y-120650000D01*
D36*
X235445500Y-140961000D02*
X234823000Y-141583500D01*
X237623000Y-140961000D02*
X235445500Y-140961000D01*
D35*
X176149000Y-93239500D02*
X177905500Y-93239500D01*
X177905500Y-93239500D02*
X178181000Y-92964000D01*
X178181000Y-92964000D02*
X180467000Y-92964000D01*
X180467000Y-92964000D02*
X181229000Y-93726000D01*
X180594000Y-94931000D02*
X181040000Y-94931000D01*
X181229000Y-94866000D02*
X181294000Y-94931000D01*
X181229000Y-93726000D02*
X181229000Y-94866000D01*
X181294000Y-94931000D02*
X181864000Y-94931000D01*
X181040000Y-94931000D02*
X181294000Y-94931000D01*
D36*
X225552000Y-159512004D02*
X225552000Y-152273000D01*
X234324000Y-140961000D02*
X235445500Y-140961000D01*
X225552000Y-149733000D02*
X234324000Y-140961000D01*
X225552000Y-152273000D02*
X225552000Y-149733000D01*
D34*
X180594000Y-94931000D02*
X180594000Y-96901000D01*
X180594000Y-96901000D02*
X157099000Y-120396000D01*
X157099000Y-120396000D02*
X157099000Y-141986002D01*
X157099000Y-141986002D02*
X173735998Y-158623000D01*
D36*
%TO.N,Vbat+*%
X120523000Y-164592000D02*
X120523000Y-162052000D01*
X121539000Y-165608000D02*
X120523000Y-164592000D01*
X120523000Y-162052000D02*
X118512500Y-162052000D01*
X121555000Y-162052000D02*
X120523000Y-162052000D01*
%TO.N,Viout*%
X105410000Y-157337000D02*
X105410000Y-160379500D01*
X107717500Y-160379500D02*
X107823000Y-160274000D01*
X105410000Y-160379500D02*
X107717500Y-160379500D01*
D34*
%TO.N,Net-(D1-Pad1)*%
X48133000Y-107809000D02*
X48133000Y-109744000D01*
%TO.N,Net-(D3-Pad1)*%
X58801000Y-107809000D02*
X58801000Y-109744000D01*
%TO.N,Net-(D4-Pad1)*%
X53213000Y-107809000D02*
X53213000Y-109744000D01*
D36*
%TO.N,Net-(D5-Pad2)*%
X123345000Y-154432000D02*
X120495000Y-154432000D01*
X120380000Y-154547000D02*
X120495000Y-154432000D01*
X120380000Y-158242000D02*
X120380000Y-154547000D01*
X120380000Y-158242000D02*
X123460000Y-158242000D01*
X123460000Y-154547000D02*
X123345000Y-154432000D01*
X123460000Y-158242000D02*
X123460000Y-154547000D01*
X123460000Y-161957000D02*
X123555000Y-162052000D01*
X123460000Y-158242000D02*
X123460000Y-161957000D01*
%TO.N,+3V3*%
X97790000Y-152047000D02*
X97790000Y-150241000D01*
X97790000Y-150241000D02*
X97917000Y-150114000D01*
X97917000Y-150114000D02*
X125349000Y-150114000D01*
X126845000Y-151610000D02*
X126845000Y-154432000D01*
X125349000Y-150114000D02*
X126845000Y-151610000D01*
X97917000Y-150114000D02*
X92329000Y-150114000D01*
X92329000Y-150114000D02*
X90043000Y-152400000D01*
X90043000Y-152400000D02*
X90043000Y-166116000D01*
X155575000Y-151130000D02*
X154305000Y-149860000D01*
X155575000Y-151920000D02*
X155575000Y-151130000D01*
%TO.N,Net-(D7-Pad2)*%
X97790000Y-155547000D02*
X97790000Y-158397000D01*
X101600000Y-155432000D02*
X98949000Y-155432000D01*
X98834000Y-155547000D02*
X97790000Y-155547000D01*
X98949000Y-155432000D02*
X98834000Y-155547000D01*
X101485000Y-158397000D02*
X101600000Y-158512000D01*
X97790000Y-158397000D02*
X101485000Y-158397000D01*
X101600000Y-158512000D02*
X101600000Y-155432000D01*
X105315000Y-155432000D02*
X105410000Y-155337000D01*
X101600000Y-155432000D02*
X105315000Y-155432000D01*
D34*
%TO.N,sigout*%
X210755000Y-156972000D02*
X212725000Y-155002000D01*
X209550000Y-156972000D02*
X210755000Y-156972000D01*
%TO.N,SCLK*%
X131699000Y-144272000D02*
X131699000Y-172212000D01*
D35*
%TO.N,Rs+*%
X183134000Y-94931000D02*
X183134000Y-93853000D01*
X183134000Y-93853000D02*
X183769000Y-93218000D01*
X183769000Y-93218000D02*
X185547000Y-93218000D01*
X186563000Y-93218000D02*
X185547000Y-93218000D01*
X187325000Y-93980000D02*
X186563000Y-93218000D01*
X187325000Y-94856000D02*
X187325000Y-93980000D01*
X191389000Y-93913250D02*
X191389000Y-94856000D01*
X190693750Y-93218000D02*
X191389000Y-93913250D01*
X185547000Y-93218000D02*
X190693750Y-93218000D01*
D34*
%TO.N,Net-(Q6-Pad1)*%
X214122000Y-77724000D02*
X214122000Y-75692000D01*
X213106000Y-78740000D02*
X214122000Y-77724000D01*
X204470000Y-78740000D02*
X213106000Y-78740000D01*
X203073000Y-77343000D02*
X204470000Y-78740000D01*
X203073000Y-62738000D02*
X203073000Y-77343000D01*
X204597000Y-61214000D02*
X203073000Y-62738000D01*
X212725000Y-61214000D02*
X204597000Y-61214000D01*
X214630000Y-63119000D02*
X212725000Y-61214000D01*
X213614000Y-82550000D02*
X214376000Y-83312000D01*
X211058000Y-82550000D02*
X213614000Y-82550000D01*
%TO.N,Net-(R1-Pad1)*%
X212360000Y-85852000D02*
X214376000Y-85852000D01*
X209058000Y-82550000D02*
X212360000Y-85852000D01*
%TO.N,Net-(R4-Pad2)*%
X213995000Y-158607000D02*
X214265000Y-158877000D01*
X213995000Y-155002000D02*
X213995000Y-158607000D01*
D36*
X214249000Y-158893000D02*
X214265000Y-158877000D01*
X214249000Y-166624000D02*
X214249000Y-158893000D01*
D34*
%TO.N,Net-(R5-Pad2)*%
X229997000Y-137668000D02*
X228600000Y-137668000D01*
X225409000Y-140859000D02*
X225409000Y-143373490D01*
X228600000Y-137668000D02*
X225409000Y-140859000D01*
%TO.N,Net-(R7-Pad1)*%
X178689000Y-77994000D02*
X178689000Y-75438000D01*
X178689000Y-53594000D02*
X178689000Y-50022000D01*
X178689000Y-75438000D02*
X178689000Y-53594000D01*
X218694000Y-79248000D02*
X214884000Y-79248000D01*
X214884000Y-79248000D02*
X213868000Y-80264000D01*
X213868000Y-80264000D02*
X204724000Y-80264000D01*
%TO.N,Net-(R9-Pad2)*%
X210455000Y-141097000D02*
X210455000Y-144637000D01*
X210455000Y-144637000D02*
X210439000Y-144653000D01*
X218567000Y-166624000D02*
X218567000Y-156906990D01*
X215961990Y-156906990D02*
X218567000Y-156906990D01*
X215265000Y-155002000D02*
X215265000Y-156210000D01*
X215265000Y-156210000D02*
X215961990Y-156906990D01*
%TO.N,Net-(R10-Pad1)*%
X213995000Y-141097000D02*
X213995000Y-150052000D01*
X212455000Y-141097000D02*
X213995000Y-141097000D01*
X213995000Y-141097000D02*
X215535000Y-141097000D01*
%TO.N,Net-(R10-Pad2)*%
X217535000Y-141097000D02*
X220853000Y-141097000D01*
X220853000Y-141097000D02*
X228567501Y-133382499D01*
X228567501Y-133382499D02*
X241713499Y-133382499D01*
X241713499Y-133382499D02*
X242189000Y-133858000D01*
%TO.N,Net-(R12-Pad2)*%
X217218000Y-146590000D02*
X216535000Y-145907000D01*
X219075000Y-146590000D02*
X217218000Y-146590000D01*
X215265000Y-147177000D02*
X216535000Y-145907000D01*
X215265000Y-150052000D02*
X215265000Y-147177000D01*
%TO.N,signal*%
X216535000Y-150052000D02*
X216535000Y-148590000D01*
X216535000Y-148590000D02*
X219075000Y-148590000D01*
X219329000Y-148844000D02*
X219075000Y-148590000D01*
X221615000Y-148844000D02*
X219329000Y-148844000D01*
%TO.N,Iout*%
X132207000Y-139700000D02*
X115332000Y-139700000D01*
X155575000Y-118680000D02*
X155575000Y-139700014D01*
X110728000Y-153432000D02*
X110744000Y-153416000D01*
X101600000Y-153432000D02*
X110728000Y-153432000D01*
X110744000Y-139700000D02*
X115332000Y-139700000D01*
X158528500Y-107917500D02*
X158496000Y-107950000D01*
X166337500Y-107917500D02*
X158528500Y-107917500D01*
X179324000Y-94931000D02*
X166337500Y-107917500D01*
X166337500Y-107917500D02*
X155575000Y-118680000D01*
%TO.N,CV_g*%
X73695574Y-129540000D02*
X113919000Y-129540000D01*
X72009000Y-129540000D02*
X73695574Y-129540000D01*
X56007000Y-113538000D02*
X72009000Y-129540000D01*
X56007000Y-106680000D02*
X56007000Y-113538000D01*
X55386000Y-106059000D02*
X56007000Y-106680000D01*
X53213000Y-106059000D02*
X55386000Y-106059000D01*
X121031000Y-129540000D02*
X113919000Y-129540000D01*
%TO.N,CC_g*%
X122047000Y-127508000D02*
X110363000Y-127508000D01*
X110363000Y-127508000D02*
X81915000Y-127508000D01*
X60466000Y-106059000D02*
X58801000Y-106059000D01*
X60466000Y-106059000D02*
X61341000Y-106934000D01*
X61341000Y-106934000D02*
X61341000Y-113792000D01*
X61341000Y-113792000D02*
X75057000Y-127508000D01*
X75057000Y-127508000D02*
X81915000Y-127508000D01*
%TO.N,bat-*%
X158750000Y-151130000D02*
X158750000Y-152670000D01*
X154051000Y-146431000D02*
X158750000Y-151130000D01*
X154051000Y-94996000D02*
X154051000Y-146431000D01*
%TO.N,Net-(D10-Pad1)*%
X155575000Y-156210000D02*
X158750000Y-156210000D01*
X158750000Y-156210000D02*
X158750000Y-157750000D01*
X155575000Y-155420000D02*
X155575000Y-156210000D01*
X155575000Y-156210000D02*
X155575000Y-158270000D01*
X161560000Y-155575000D02*
X158750000Y-155575000D01*
X158750000Y-155575000D02*
X158750000Y-156210000D01*
X158750000Y-154670000D02*
X158750000Y-155575000D01*
%TD*%
D38*
%TO.N,Net-(R2-Pad2)*%
X212060427Y-62500464D02*
X212215169Y-62547405D01*
X212357782Y-62623633D01*
X212482782Y-62726218D01*
X212585367Y-62851218D01*
X212661595Y-62993831D01*
X212708536Y-63148573D01*
X212737928Y-63446995D01*
X212737928Y-63944500D01*
X212750188Y-64068982D01*
X212786498Y-64188680D01*
X212845463Y-64298994D01*
X212924815Y-64395685D01*
X213021506Y-64475037D01*
X213131820Y-64534002D01*
X213251518Y-64570312D01*
X213376000Y-64582572D01*
X215376000Y-64582572D01*
X215433716Y-64576888D01*
X215516870Y-64645130D01*
X215625362Y-64777328D01*
X215705978Y-64928150D01*
X215755624Y-65091811D01*
X215773000Y-65268234D01*
X215773000Y-65795766D01*
X215755624Y-65972189D01*
X215705978Y-66135850D01*
X215625362Y-66286672D01*
X215516870Y-66418870D01*
X215384672Y-66527362D01*
X215233850Y-66607978D01*
X215117940Y-66643139D01*
X215033949Y-66598245D01*
X214734704Y-66507470D01*
X214501486Y-66484500D01*
X214250514Y-66484500D01*
X214017296Y-66507470D01*
X213718051Y-66598245D01*
X213541852Y-66692425D01*
X213517462Y-66694827D01*
X213493044Y-66699683D01*
X213305451Y-66756588D01*
X213282450Y-66766116D01*
X213109563Y-66858526D01*
X213088862Y-66872358D01*
X212937325Y-66996721D01*
X212919721Y-67014325D01*
X212795358Y-67165862D01*
X212781526Y-67186563D01*
X212689116Y-67359450D01*
X212679588Y-67382451D01*
X212622683Y-67570044D01*
X212617827Y-67594462D01*
X212598612Y-67789552D01*
X212598000Y-67802000D01*
X212598000Y-75955766D01*
X212580624Y-76132189D01*
X212530978Y-76295850D01*
X212450362Y-76446672D01*
X212341870Y-76578870D01*
X212209672Y-76687362D01*
X212058850Y-76767978D01*
X211895189Y-76817624D01*
X211718766Y-76835000D01*
X206111234Y-76835000D01*
X205934811Y-76817624D01*
X205771150Y-76767978D01*
X205620328Y-76687362D01*
X205488130Y-76578870D01*
X205379638Y-76446672D01*
X205299022Y-76295850D01*
X205249376Y-76132189D01*
X205232000Y-75955766D01*
X205232000Y-63363234D01*
X205249376Y-63186811D01*
X205299022Y-63023150D01*
X205379638Y-62872328D01*
X205488130Y-62740130D01*
X205620328Y-62631638D01*
X205771150Y-62551022D01*
X205934811Y-62501376D01*
X206111234Y-62484000D01*
X211893266Y-62484000D01*
X212060427Y-62500464D01*
%TA.AperFunction,Conductor*%
D39*
G36*
X212060427Y-62500464D02*
G01*
X212215169Y-62547405D01*
X212357782Y-62623633D01*
X212482782Y-62726218D01*
X212585367Y-62851218D01*
X212661595Y-62993831D01*
X212708536Y-63148573D01*
X212737928Y-63446995D01*
X212737928Y-63944500D01*
X212750188Y-64068982D01*
X212786498Y-64188680D01*
X212845463Y-64298994D01*
X212924815Y-64395685D01*
X213021506Y-64475037D01*
X213131820Y-64534002D01*
X213251518Y-64570312D01*
X213376000Y-64582572D01*
X215376000Y-64582572D01*
X215433716Y-64576888D01*
X215516870Y-64645130D01*
X215625362Y-64777328D01*
X215705978Y-64928150D01*
X215755624Y-65091811D01*
X215773000Y-65268234D01*
X215773000Y-65795766D01*
X215755624Y-65972189D01*
X215705978Y-66135850D01*
X215625362Y-66286672D01*
X215516870Y-66418870D01*
X215384672Y-66527362D01*
X215233850Y-66607978D01*
X215117940Y-66643139D01*
X215033949Y-66598245D01*
X214734704Y-66507470D01*
X214501486Y-66484500D01*
X214250514Y-66484500D01*
X214017296Y-66507470D01*
X213718051Y-66598245D01*
X213541852Y-66692425D01*
X213517462Y-66694827D01*
X213493044Y-66699683D01*
X213305451Y-66756588D01*
X213282450Y-66766116D01*
X213109563Y-66858526D01*
X213088862Y-66872358D01*
X212937325Y-66996721D01*
X212919721Y-67014325D01*
X212795358Y-67165862D01*
X212781526Y-67186563D01*
X212689116Y-67359450D01*
X212679588Y-67382451D01*
X212622683Y-67570044D01*
X212617827Y-67594462D01*
X212598612Y-67789552D01*
X212598000Y-67802000D01*
X212598000Y-75955766D01*
X212580624Y-76132189D01*
X212530978Y-76295850D01*
X212450362Y-76446672D01*
X212341870Y-76578870D01*
X212209672Y-76687362D01*
X212058850Y-76767978D01*
X211895189Y-76817624D01*
X211718766Y-76835000D01*
X206111234Y-76835000D01*
X205934811Y-76817624D01*
X205771150Y-76767978D01*
X205620328Y-76687362D01*
X205488130Y-76578870D01*
X205379638Y-76446672D01*
X205299022Y-76295850D01*
X205249376Y-76132189D01*
X205232000Y-75955766D01*
X205232000Y-63363234D01*
X205249376Y-63186811D01*
X205299022Y-63023150D01*
X205379638Y-62872328D01*
X205488130Y-62740130D01*
X205620328Y-62631638D01*
X205771150Y-62551022D01*
X205934811Y-62501376D01*
X206111234Y-62484000D01*
X211893266Y-62484000D01*
X212060427Y-62500464D01*
G37*
%TD.AperFunction*%
%TD*%
D38*
%TO.N,Net-(R1-Pad1)*%
X212549001Y-84087936D02*
X212619363Y-84123788D01*
X212675212Y-84179637D01*
X212711064Y-84249999D01*
X212745211Y-84465602D01*
X212751497Y-84489691D01*
X212757490Y-84503392D01*
X212811608Y-84609603D01*
X212825030Y-84630572D01*
X212834962Y-84641749D01*
X212919251Y-84726038D01*
X212938497Y-84741832D01*
X212951397Y-84749392D01*
X212989617Y-84768866D01*
X213021506Y-84795037D01*
X213131820Y-84854002D01*
X213251518Y-84890312D01*
X213376000Y-84902572D01*
X215232367Y-84902572D01*
X215233850Y-84903022D01*
X215384672Y-84983638D01*
X215516870Y-85092130D01*
X215625362Y-85224328D01*
X215705978Y-85375150D01*
X215755624Y-85538811D01*
X215773000Y-85715234D01*
X215773000Y-85988766D01*
X215755624Y-86165189D01*
X215705978Y-86328850D01*
X215625362Y-86479672D01*
X215516870Y-86611870D01*
X215384672Y-86720362D01*
X215233850Y-86800978D01*
X215070189Y-86850624D01*
X214893766Y-86868000D01*
X214868313Y-86868000D01*
X214734704Y-86827470D01*
X214501486Y-86804500D01*
X214250514Y-86804500D01*
X214017296Y-86827470D01*
X213883687Y-86868000D01*
X213725000Y-86868000D01*
X213712552Y-86868612D01*
X213517462Y-86887827D01*
X213493044Y-86892683D01*
X213305451Y-86949588D01*
X213282450Y-86959116D01*
X213109563Y-87051526D01*
X213088862Y-87065358D01*
X212937325Y-87189721D01*
X212919721Y-87207325D01*
X212795358Y-87358862D01*
X212781526Y-87379563D01*
X212689116Y-87552450D01*
X212679588Y-87575451D01*
X212622683Y-87763044D01*
X212617827Y-87787462D01*
X212598612Y-87982552D01*
X212598000Y-87995000D01*
X212598000Y-96910766D01*
X212580624Y-97087189D01*
X212530978Y-97250850D01*
X212450362Y-97401672D01*
X212341870Y-97533870D01*
X212209672Y-97642362D01*
X212058850Y-97722978D01*
X211895189Y-97772624D01*
X211718766Y-97790000D01*
X206111234Y-97790000D01*
X205934811Y-97772624D01*
X205771150Y-97722978D01*
X205620328Y-97642362D01*
X205488130Y-97533870D01*
X205379638Y-97401672D01*
X205299022Y-97250850D01*
X205249376Y-97087189D01*
X205232000Y-96910766D01*
X205232000Y-84953234D01*
X205249376Y-84776811D01*
X205299022Y-84613150D01*
X205379638Y-84462328D01*
X205488130Y-84330130D01*
X205620328Y-84221638D01*
X205771150Y-84141022D01*
X205934811Y-84091376D01*
X206111234Y-84074000D01*
X212461008Y-84074000D01*
X212549001Y-84087936D01*
%TA.AperFunction,Conductor*%
D39*
G36*
X212549001Y-84087936D02*
G01*
X212619363Y-84123788D01*
X212675212Y-84179637D01*
X212711064Y-84249999D01*
X212745211Y-84465602D01*
X212751497Y-84489691D01*
X212757490Y-84503392D01*
X212811608Y-84609603D01*
X212825030Y-84630572D01*
X212834962Y-84641749D01*
X212919251Y-84726038D01*
X212938497Y-84741832D01*
X212951397Y-84749392D01*
X212989617Y-84768866D01*
X213021506Y-84795037D01*
X213131820Y-84854002D01*
X213251518Y-84890312D01*
X213376000Y-84902572D01*
X215232367Y-84902572D01*
X215233850Y-84903022D01*
X215384672Y-84983638D01*
X215516870Y-85092130D01*
X215625362Y-85224328D01*
X215705978Y-85375150D01*
X215755624Y-85538811D01*
X215773000Y-85715234D01*
X215773000Y-85988766D01*
X215755624Y-86165189D01*
X215705978Y-86328850D01*
X215625362Y-86479672D01*
X215516870Y-86611870D01*
X215384672Y-86720362D01*
X215233850Y-86800978D01*
X215070189Y-86850624D01*
X214893766Y-86868000D01*
X214868313Y-86868000D01*
X214734704Y-86827470D01*
X214501486Y-86804500D01*
X214250514Y-86804500D01*
X214017296Y-86827470D01*
X213883687Y-86868000D01*
X213725000Y-86868000D01*
X213712552Y-86868612D01*
X213517462Y-86887827D01*
X213493044Y-86892683D01*
X213305451Y-86949588D01*
X213282450Y-86959116D01*
X213109563Y-87051526D01*
X213088862Y-87065358D01*
X212937325Y-87189721D01*
X212919721Y-87207325D01*
X212795358Y-87358862D01*
X212781526Y-87379563D01*
X212689116Y-87552450D01*
X212679588Y-87575451D01*
X212622683Y-87763044D01*
X212617827Y-87787462D01*
X212598612Y-87982552D01*
X212598000Y-87995000D01*
X212598000Y-96910766D01*
X212580624Y-97087189D01*
X212530978Y-97250850D01*
X212450362Y-97401672D01*
X212341870Y-97533870D01*
X212209672Y-97642362D01*
X212058850Y-97722978D01*
X211895189Y-97772624D01*
X211718766Y-97790000D01*
X206111234Y-97790000D01*
X205934811Y-97772624D01*
X205771150Y-97722978D01*
X205620328Y-97642362D01*
X205488130Y-97533870D01*
X205379638Y-97401672D01*
X205299022Y-97250850D01*
X205249376Y-97087189D01*
X205232000Y-96910766D01*
X205232000Y-84953234D01*
X205249376Y-84776811D01*
X205299022Y-84613150D01*
X205379638Y-84462328D01*
X205488130Y-84330130D01*
X205620328Y-84221638D01*
X205771150Y-84141022D01*
X205934811Y-84091376D01*
X206111234Y-84074000D01*
X212461008Y-84074000D01*
X212549001Y-84087936D01*
G37*
%TD.AperFunction*%
%TD*%
D38*
%TO.N,+4.2V*%
X200465189Y-62374376D02*
X200628850Y-62424022D01*
X200779672Y-62504638D01*
X200911870Y-62613130D01*
X201020362Y-62745328D01*
X201100978Y-62896150D01*
X201150624Y-63059811D01*
X201168000Y-63236234D01*
X201168000Y-102625766D01*
X201150624Y-102802189D01*
X201100978Y-102965850D01*
X201020362Y-103116672D01*
X200911870Y-103248870D01*
X200779672Y-103357362D01*
X200628850Y-103437978D01*
X200465189Y-103487624D01*
X200288766Y-103505000D01*
X194681234Y-103505000D01*
X194504811Y-103487624D01*
X194341150Y-103437978D01*
X194190328Y-103357362D01*
X194058130Y-103248870D01*
X193949638Y-103116672D01*
X193869022Y-102965850D01*
X193819376Y-102802189D01*
X193802000Y-102625766D01*
X193802000Y-99932781D01*
X193812911Y-99822000D01*
X193802000Y-99711219D01*
X193802000Y-63236234D01*
X193819376Y-63059811D01*
X193869022Y-62896150D01*
X193949638Y-62745328D01*
X194058130Y-62613130D01*
X194190328Y-62504638D01*
X194341150Y-62424022D01*
X194504811Y-62374376D01*
X194681234Y-62357000D01*
X200288766Y-62357000D01*
X200465189Y-62374376D01*
%TA.AperFunction,Conductor*%
D39*
G36*
X200465189Y-62374376D02*
G01*
X200628850Y-62424022D01*
X200779672Y-62504638D01*
X200911870Y-62613130D01*
X201020362Y-62745328D01*
X201100978Y-62896150D01*
X201150624Y-63059811D01*
X201168000Y-63236234D01*
X201168000Y-102625766D01*
X201150624Y-102802189D01*
X201100978Y-102965850D01*
X201020362Y-103116672D01*
X200911870Y-103248870D01*
X200779672Y-103357362D01*
X200628850Y-103437978D01*
X200465189Y-103487624D01*
X200288766Y-103505000D01*
X194681234Y-103505000D01*
X194504811Y-103487624D01*
X194341150Y-103437978D01*
X194190328Y-103357362D01*
X194058130Y-103248870D01*
X193949638Y-103116672D01*
X193869022Y-102965850D01*
X193819376Y-102802189D01*
X193802000Y-102625766D01*
X193802000Y-99932781D01*
X193812911Y-99822000D01*
X193802000Y-99711219D01*
X193802000Y-63236234D01*
X193819376Y-63059811D01*
X193869022Y-62896150D01*
X193949638Y-62745328D01*
X194058130Y-62613130D01*
X194190328Y-62504638D01*
X194341150Y-62424022D01*
X194504811Y-62374376D01*
X194681234Y-62357000D01*
X200288766Y-62357000D01*
X200465189Y-62374376D01*
G37*
%TD.AperFunction*%
%TD*%
D38*
%TO.N,Rs-*%
X192210189Y-83456376D02*
X192373850Y-83506022D01*
X192524672Y-83586638D01*
X192656870Y-83695130D01*
X192765362Y-83827328D01*
X192845978Y-83978150D01*
X192895624Y-84141811D01*
X192913000Y-84318234D01*
X192913000Y-89417766D01*
X192895624Y-89594189D01*
X192845978Y-89757850D01*
X192765362Y-89908672D01*
X192656870Y-90040870D01*
X192524672Y-90149362D01*
X192373850Y-90229978D01*
X192210189Y-90279624D01*
X192033766Y-90297000D01*
X186680234Y-90297000D01*
X186503811Y-90279624D01*
X186340150Y-90229978D01*
X186189328Y-90149362D01*
X186057130Y-90040870D01*
X185948638Y-89908672D01*
X185868022Y-89757850D01*
X185818376Y-89594189D01*
X185801000Y-89417766D01*
X185801000Y-84318234D01*
X185818376Y-84141811D01*
X185868022Y-83978150D01*
X185948638Y-83827328D01*
X186057130Y-83695130D01*
X186189328Y-83586638D01*
X186340150Y-83506022D01*
X186503811Y-83456376D01*
X186680234Y-83439000D01*
X192033766Y-83439000D01*
X192210189Y-83456376D01*
%TA.AperFunction,Conductor*%
D39*
G36*
X192210189Y-83456376D02*
G01*
X192373850Y-83506022D01*
X192524672Y-83586638D01*
X192656870Y-83695130D01*
X192765362Y-83827328D01*
X192845978Y-83978150D01*
X192895624Y-84141811D01*
X192913000Y-84318234D01*
X192913000Y-89417766D01*
X192895624Y-89594189D01*
X192845978Y-89757850D01*
X192765362Y-89908672D01*
X192656870Y-90040870D01*
X192524672Y-90149362D01*
X192373850Y-90229978D01*
X192210189Y-90279624D01*
X192033766Y-90297000D01*
X186680234Y-90297000D01*
X186503811Y-90279624D01*
X186340150Y-90229978D01*
X186189328Y-90149362D01*
X186057130Y-90040870D01*
X185948638Y-89908672D01*
X185868022Y-89757850D01*
X185818376Y-89594189D01*
X185801000Y-89417766D01*
X185801000Y-84318234D01*
X185818376Y-84141811D01*
X185868022Y-83978150D01*
X185948638Y-83827328D01*
X186057130Y-83695130D01*
X186189328Y-83586638D01*
X186340150Y-83506022D01*
X186503811Y-83456376D01*
X186680234Y-83439000D01*
X192033766Y-83439000D01*
X192210189Y-83456376D01*
G37*
%TD.AperFunction*%
%TD*%
D38*
%TO.N,Rs+*%
X192337189Y-94632376D02*
X192500850Y-94682022D01*
X192651672Y-94762638D01*
X192783870Y-94871130D01*
X192892362Y-95003328D01*
X192972978Y-95154150D01*
X193022624Y-95317811D01*
X193040000Y-95494234D01*
X193040000Y-100085766D01*
X193022624Y-100262189D01*
X192972978Y-100425850D01*
X192892362Y-100576672D01*
X192783870Y-100708870D01*
X192651672Y-100817362D01*
X192500850Y-100897978D01*
X192337189Y-100947624D01*
X192160766Y-100965000D01*
X186426234Y-100965000D01*
X186249811Y-100947624D01*
X186086150Y-100897978D01*
X185935328Y-100817362D01*
X185803130Y-100708870D01*
X185694638Y-100576672D01*
X185614022Y-100425850D01*
X185564376Y-100262189D01*
X185547000Y-100085766D01*
X185547000Y-95494234D01*
X185564376Y-95317811D01*
X185614022Y-95154150D01*
X185694638Y-95003328D01*
X185803130Y-94871130D01*
X185935328Y-94762638D01*
X186086150Y-94682022D01*
X186249811Y-94632376D01*
X186426234Y-94615000D01*
X192160766Y-94615000D01*
X192337189Y-94632376D01*
%TA.AperFunction,Conductor*%
D39*
G36*
X192337189Y-94632376D02*
G01*
X192500850Y-94682022D01*
X192651672Y-94762638D01*
X192783870Y-94871130D01*
X192892362Y-95003328D01*
X192972978Y-95154150D01*
X193022624Y-95317811D01*
X193040000Y-95494234D01*
X193040000Y-100085766D01*
X193022624Y-100262189D01*
X192972978Y-100425850D01*
X192892362Y-100576672D01*
X192783870Y-100708870D01*
X192651672Y-100817362D01*
X192500850Y-100897978D01*
X192337189Y-100947624D01*
X192160766Y-100965000D01*
X186426234Y-100965000D01*
X186249811Y-100947624D01*
X186086150Y-100897978D01*
X185935328Y-100817362D01*
X185803130Y-100708870D01*
X185694638Y-100576672D01*
X185614022Y-100425850D01*
X185564376Y-100262189D01*
X185547000Y-100085766D01*
X185547000Y-95494234D01*
X185564376Y-95317811D01*
X185614022Y-95154150D01*
X185694638Y-95003328D01*
X185803130Y-94871130D01*
X185935328Y-94762638D01*
X186086150Y-94682022D01*
X186249811Y-94632376D01*
X186426234Y-94615000D01*
X192160766Y-94615000D01*
X192337189Y-94632376D01*
G37*
%TD.AperFunction*%
%TD*%
D38*
%TO.N,-BATT*%
X213667922Y-39006507D02*
X213832131Y-39056517D01*
X213983368Y-39137713D01*
X214115779Y-39246951D01*
X214224236Y-39380001D01*
X214304540Y-39531713D01*
X214353584Y-39696213D01*
X214370048Y-39873393D01*
X214254887Y-59450920D01*
X214236605Y-59626596D01*
X214186367Y-59789403D01*
X214105445Y-59939336D01*
X213996919Y-60070686D01*
X213864939Y-60178433D01*
X213714529Y-60258473D01*
X213551431Y-60307752D01*
X213375649Y-60325000D01*
X213075617Y-60325000D01*
X212911723Y-60275283D01*
X212771785Y-60261500D01*
X212725000Y-60256892D01*
X212678215Y-60261500D01*
X204643784Y-60261500D01*
X204596999Y-60256892D01*
X204410277Y-60275283D01*
X204246383Y-60325000D01*
X193542695Y-60325000D01*
X193530163Y-60325620D01*
X193333769Y-60345095D01*
X193309193Y-60350017D01*
X193120448Y-60407683D01*
X193097317Y-60417337D01*
X192923573Y-60510949D01*
X192902788Y-60524957D01*
X192750813Y-60650868D01*
X192733184Y-60668685D01*
X192608897Y-60821991D01*
X192595111Y-60842924D01*
X192503353Y-61017654D01*
X192493947Y-61040885D01*
X192438291Y-61230232D01*
X192433630Y-61254860D01*
X192416245Y-61451451D01*
X192415758Y-61463989D01*
X192521189Y-71374437D01*
X192505467Y-71552221D01*
X192456915Y-71717402D01*
X192376867Y-71869832D01*
X192268440Y-72003576D01*
X192135861Y-72113417D01*
X191984295Y-72195080D01*
X191819633Y-72245388D01*
X191642025Y-72263000D01*
X180711234Y-72263000D01*
X180534811Y-72245624D01*
X180371150Y-72195978D01*
X180220328Y-72115362D01*
X180088130Y-72006870D01*
X179979638Y-71874672D01*
X179899022Y-71723850D01*
X179849376Y-71560189D01*
X179832000Y-71383766D01*
X179832000Y-51428544D01*
X210735000Y-51428544D01*
X210735000Y-51695456D01*
X210787072Y-51957239D01*
X210889215Y-52203833D01*
X211037503Y-52425762D01*
X211226238Y-52614497D01*
X211448167Y-52762785D01*
X211694761Y-52864928D01*
X211956544Y-52917000D01*
X212223456Y-52917000D01*
X212485239Y-52864928D01*
X212731833Y-52762785D01*
X212953762Y-52614497D01*
X213142497Y-52425762D01*
X213290785Y-52203833D01*
X213392928Y-51957239D01*
X213445000Y-51695456D01*
X213445000Y-51428544D01*
X213392928Y-51166761D01*
X213290785Y-50920167D01*
X213142497Y-50698238D01*
X212953762Y-50509503D01*
X212731833Y-50361215D01*
X212485239Y-50259072D01*
X212223456Y-50207000D01*
X211956544Y-50207000D01*
X211694761Y-50259072D01*
X211448167Y-50361215D01*
X211226238Y-50509503D01*
X211037503Y-50698238D01*
X210889215Y-50920167D01*
X210787072Y-51166761D01*
X210735000Y-51428544D01*
X179832000Y-51428544D01*
X179832000Y-50920713D01*
X179877405Y-50865387D01*
X179959472Y-50711851D01*
X180010008Y-50545255D01*
X180027072Y-50372001D01*
X180027072Y-49671999D01*
X180010008Y-49498745D01*
X179959472Y-49332149D01*
X179877405Y-49178613D01*
X179832000Y-49123287D01*
X179832000Y-39868234D01*
X179849376Y-39691811D01*
X179899022Y-39528150D01*
X179979638Y-39377328D01*
X180088130Y-39245130D01*
X180220328Y-39136638D01*
X180371150Y-39056022D01*
X180534811Y-39006376D01*
X180711234Y-38989000D01*
X213490837Y-38989000D01*
X213667922Y-39006507D01*
%TA.AperFunction,Conductor*%
D39*
G36*
X213667922Y-39006507D02*
G01*
X213832131Y-39056517D01*
X213983368Y-39137713D01*
X214115779Y-39246951D01*
X214224236Y-39380001D01*
X214304540Y-39531713D01*
X214353584Y-39696213D01*
X214370048Y-39873393D01*
X214254887Y-59450920D01*
X214236605Y-59626596D01*
X214186367Y-59789403D01*
X214105445Y-59939336D01*
X213996919Y-60070686D01*
X213864939Y-60178433D01*
X213714529Y-60258473D01*
X213551431Y-60307752D01*
X213375649Y-60325000D01*
X213075617Y-60325000D01*
X212911723Y-60275283D01*
X212771785Y-60261500D01*
X212725000Y-60256892D01*
X212678215Y-60261500D01*
X204643784Y-60261500D01*
X204596999Y-60256892D01*
X204410277Y-60275283D01*
X204246383Y-60325000D01*
X193542695Y-60325000D01*
X193530163Y-60325620D01*
X193333769Y-60345095D01*
X193309193Y-60350017D01*
X193120448Y-60407683D01*
X193097317Y-60417337D01*
X192923573Y-60510949D01*
X192902788Y-60524957D01*
X192750813Y-60650868D01*
X192733184Y-60668685D01*
X192608897Y-60821991D01*
X192595111Y-60842924D01*
X192503353Y-61017654D01*
X192493947Y-61040885D01*
X192438291Y-61230232D01*
X192433630Y-61254860D01*
X192416245Y-61451451D01*
X192415758Y-61463989D01*
X192521189Y-71374437D01*
X192505467Y-71552221D01*
X192456915Y-71717402D01*
X192376867Y-71869832D01*
X192268440Y-72003576D01*
X192135861Y-72113417D01*
X191984295Y-72195080D01*
X191819633Y-72245388D01*
X191642025Y-72263000D01*
X180711234Y-72263000D01*
X180534811Y-72245624D01*
X180371150Y-72195978D01*
X180220328Y-72115362D01*
X180088130Y-72006870D01*
X179979638Y-71874672D01*
X179899022Y-71723850D01*
X179849376Y-71560189D01*
X179832000Y-71383766D01*
X179832000Y-51428544D01*
X210735000Y-51428544D01*
X210735000Y-51695456D01*
X210787072Y-51957239D01*
X210889215Y-52203833D01*
X211037503Y-52425762D01*
X211226238Y-52614497D01*
X211448167Y-52762785D01*
X211694761Y-52864928D01*
X211956544Y-52917000D01*
X212223456Y-52917000D01*
X212485239Y-52864928D01*
X212731833Y-52762785D01*
X212953762Y-52614497D01*
X213142497Y-52425762D01*
X213290785Y-52203833D01*
X213392928Y-51957239D01*
X213445000Y-51695456D01*
X213445000Y-51428544D01*
X213392928Y-51166761D01*
X213290785Y-50920167D01*
X213142497Y-50698238D01*
X212953762Y-50509503D01*
X212731833Y-50361215D01*
X212485239Y-50259072D01*
X212223456Y-50207000D01*
X211956544Y-50207000D01*
X211694761Y-50259072D01*
X211448167Y-50361215D01*
X211226238Y-50509503D01*
X211037503Y-50698238D01*
X210889215Y-50920167D01*
X210787072Y-51166761D01*
X210735000Y-51428544D01*
X179832000Y-51428544D01*
X179832000Y-50920713D01*
X179877405Y-50865387D01*
X179959472Y-50711851D01*
X180010008Y-50545255D01*
X180027072Y-50372001D01*
X180027072Y-49671999D01*
X180010008Y-49498745D01*
X179959472Y-49332149D01*
X179877405Y-49178613D01*
X179832000Y-49123287D01*
X179832000Y-39868234D01*
X179849376Y-39691811D01*
X179899022Y-39528150D01*
X179979638Y-39377328D01*
X180088130Y-39245130D01*
X180220328Y-39136638D01*
X180371150Y-39056022D01*
X180534811Y-39006376D01*
X180711234Y-38989000D01*
X213490837Y-38989000D01*
X213667922Y-39006507D01*
G37*
%TD.AperFunction*%
%TD*%
D38*
%TO.N,-BATT*%
X249548438Y-143087404D02*
X249712674Y-143136381D01*
X249864172Y-143216525D01*
X249997070Y-143324737D01*
X250106252Y-143456847D01*
X250187497Y-143607750D01*
X250237672Y-143771629D01*
X250255468Y-143948398D01*
X250315035Y-174506053D01*
X250297959Y-174682734D01*
X250248513Y-174846670D01*
X250168001Y-174997786D01*
X250059517Y-175130268D01*
X249927253Y-175239004D01*
X249776286Y-175319815D01*
X249612450Y-175369580D01*
X249435802Y-175387000D01*
X221351234Y-175387000D01*
X221174811Y-175369624D01*
X221011150Y-175319978D01*
X220860328Y-175239362D01*
X220728130Y-175130870D01*
X220619638Y-174998672D01*
X220539022Y-174847850D01*
X220489376Y-174684189D01*
X220472000Y-174507766D01*
X220472000Y-171162314D01*
X220529785Y-171075833D01*
X220631928Y-170829239D01*
X220684000Y-170567456D01*
X220684000Y-170300544D01*
X220631928Y-170038761D01*
X220529785Y-169792167D01*
X220472000Y-169705686D01*
X220472000Y-169584000D01*
X229778928Y-169584000D01*
X229778928Y-171284000D01*
X229791188Y-171408482D01*
X229827498Y-171528180D01*
X229886463Y-171638494D01*
X229965815Y-171735185D01*
X230062506Y-171814537D01*
X230172820Y-171873502D01*
X230292518Y-171909812D01*
X230417000Y-171922072D01*
X232117000Y-171922072D01*
X232241482Y-171909812D01*
X232361180Y-171873502D01*
X232471494Y-171814537D01*
X232568185Y-171735185D01*
X232647537Y-171638494D01*
X232706502Y-171528180D01*
X232742812Y-171408482D01*
X232755072Y-171284000D01*
X232755072Y-169584000D01*
X232742812Y-169459518D01*
X232706502Y-169339820D01*
X232703222Y-169333682D01*
X241675000Y-169333682D01*
X241675000Y-170010318D01*
X241807006Y-170673952D01*
X242065943Y-171299082D01*
X242441862Y-171861685D01*
X242920315Y-172340138D01*
X243482918Y-172716057D01*
X244108048Y-172974994D01*
X244771682Y-173107000D01*
X245448318Y-173107000D01*
X246111952Y-172974994D01*
X246737082Y-172716057D01*
X247299685Y-172340138D01*
X247778138Y-171861685D01*
X248154057Y-171299082D01*
X248412994Y-170673952D01*
X248545000Y-170010318D01*
X248545000Y-169333682D01*
X248412994Y-168670048D01*
X248154057Y-168044918D01*
X247778138Y-167482315D01*
X247299685Y-167003862D01*
X246737082Y-166627943D01*
X246111952Y-166369006D01*
X245448318Y-166237000D01*
X244771682Y-166237000D01*
X244108048Y-166369006D01*
X243482918Y-166627943D01*
X242920315Y-167003862D01*
X242441862Y-167482315D01*
X242065943Y-168044918D01*
X241807006Y-168670048D01*
X241675000Y-169333682D01*
X232703222Y-169333682D01*
X232647537Y-169229506D01*
X232568185Y-169132815D01*
X232471494Y-169053463D01*
X232361180Y-168994498D01*
X232241482Y-168958188D01*
X232117000Y-168945928D01*
X230417000Y-168945928D01*
X230292518Y-168958188D01*
X230172820Y-168994498D01*
X230062506Y-169053463D01*
X229965815Y-169132815D01*
X229886463Y-169229506D01*
X229827498Y-169339820D01*
X229791188Y-169459518D01*
X229778928Y-169584000D01*
X220472000Y-169584000D01*
X220472000Y-166106234D01*
X220489376Y-165929811D01*
X220539022Y-165766150D01*
X220619638Y-165615328D01*
X220728130Y-165483130D01*
X220860328Y-165374638D01*
X221011150Y-165294022D01*
X221174811Y-165244376D01*
X221351234Y-165227000D01*
X225695000Y-165227000D01*
X225707448Y-165226388D01*
X225902538Y-165207173D01*
X225926956Y-165202317D01*
X226114549Y-165145412D01*
X226137550Y-165135884D01*
X226310437Y-165043474D01*
X226331138Y-165029642D01*
X226482675Y-164905279D01*
X226500279Y-164887675D01*
X226624642Y-164736138D01*
X226638474Y-164715437D01*
X226730884Y-164542550D01*
X226740412Y-164519549D01*
X226797317Y-164331956D01*
X226802173Y-164307538D01*
X226821388Y-164112448D01*
X226822000Y-164100000D01*
X226822000Y-150259050D01*
X233927565Y-143153485D01*
X249371532Y-143070897D01*
X249548438Y-143087404D01*
%TA.AperFunction,Conductor*%
D39*
G36*
X249548438Y-143087404D02*
G01*
X249712674Y-143136381D01*
X249864172Y-143216525D01*
X249997070Y-143324737D01*
X250106252Y-143456847D01*
X250187497Y-143607750D01*
X250237672Y-143771629D01*
X250255468Y-143948398D01*
X250315035Y-174506053D01*
X250297959Y-174682734D01*
X250248513Y-174846670D01*
X250168001Y-174997786D01*
X250059517Y-175130268D01*
X249927253Y-175239004D01*
X249776286Y-175319815D01*
X249612450Y-175369580D01*
X249435802Y-175387000D01*
X221351234Y-175387000D01*
X221174811Y-175369624D01*
X221011150Y-175319978D01*
X220860328Y-175239362D01*
X220728130Y-175130870D01*
X220619638Y-174998672D01*
X220539022Y-174847850D01*
X220489376Y-174684189D01*
X220472000Y-174507766D01*
X220472000Y-171162314D01*
X220529785Y-171075833D01*
X220631928Y-170829239D01*
X220684000Y-170567456D01*
X220684000Y-170300544D01*
X220631928Y-170038761D01*
X220529785Y-169792167D01*
X220472000Y-169705686D01*
X220472000Y-169584000D01*
X229778928Y-169584000D01*
X229778928Y-171284000D01*
X229791188Y-171408482D01*
X229827498Y-171528180D01*
X229886463Y-171638494D01*
X229965815Y-171735185D01*
X230062506Y-171814537D01*
X230172820Y-171873502D01*
X230292518Y-171909812D01*
X230417000Y-171922072D01*
X232117000Y-171922072D01*
X232241482Y-171909812D01*
X232361180Y-171873502D01*
X232471494Y-171814537D01*
X232568185Y-171735185D01*
X232647537Y-171638494D01*
X232706502Y-171528180D01*
X232742812Y-171408482D01*
X232755072Y-171284000D01*
X232755072Y-169584000D01*
X232742812Y-169459518D01*
X232706502Y-169339820D01*
X232703222Y-169333682D01*
X241675000Y-169333682D01*
X241675000Y-170010318D01*
X241807006Y-170673952D01*
X242065943Y-171299082D01*
X242441862Y-171861685D01*
X242920315Y-172340138D01*
X243482918Y-172716057D01*
X244108048Y-172974994D01*
X244771682Y-173107000D01*
X245448318Y-173107000D01*
X246111952Y-172974994D01*
X246737082Y-172716057D01*
X247299685Y-172340138D01*
X247778138Y-171861685D01*
X248154057Y-171299082D01*
X248412994Y-170673952D01*
X248545000Y-170010318D01*
X248545000Y-169333682D01*
X248412994Y-168670048D01*
X248154057Y-168044918D01*
X247778138Y-167482315D01*
X247299685Y-167003862D01*
X246737082Y-166627943D01*
X246111952Y-166369006D01*
X245448318Y-166237000D01*
X244771682Y-166237000D01*
X244108048Y-166369006D01*
X243482918Y-166627943D01*
X242920315Y-167003862D01*
X242441862Y-167482315D01*
X242065943Y-168044918D01*
X241807006Y-168670048D01*
X241675000Y-169333682D01*
X232703222Y-169333682D01*
X232647537Y-169229506D01*
X232568185Y-169132815D01*
X232471494Y-169053463D01*
X232361180Y-168994498D01*
X232241482Y-168958188D01*
X232117000Y-168945928D01*
X230417000Y-168945928D01*
X230292518Y-168958188D01*
X230172820Y-168994498D01*
X230062506Y-169053463D01*
X229965815Y-169132815D01*
X229886463Y-169229506D01*
X229827498Y-169339820D01*
X229791188Y-169459518D01*
X229778928Y-169584000D01*
X220472000Y-169584000D01*
X220472000Y-166106234D01*
X220489376Y-165929811D01*
X220539022Y-165766150D01*
X220619638Y-165615328D01*
X220728130Y-165483130D01*
X220860328Y-165374638D01*
X221011150Y-165294022D01*
X221174811Y-165244376D01*
X221351234Y-165227000D01*
X225695000Y-165227000D01*
X225707448Y-165226388D01*
X225902538Y-165207173D01*
X225926956Y-165202317D01*
X226114549Y-165145412D01*
X226137550Y-165135884D01*
X226310437Y-165043474D01*
X226331138Y-165029642D01*
X226482675Y-164905279D01*
X226500279Y-164887675D01*
X226624642Y-164736138D01*
X226638474Y-164715437D01*
X226730884Y-164542550D01*
X226740412Y-164519549D01*
X226797317Y-164331956D01*
X226802173Y-164307538D01*
X226821388Y-164112448D01*
X226822000Y-164100000D01*
X226822000Y-150259050D01*
X233927565Y-143153485D01*
X249371532Y-143070897D01*
X249548438Y-143087404D01*
G37*
%TD.AperFunction*%
%TD*%
D38*
%TO.N,Iout*%
X162365189Y-105554376D02*
X162528850Y-105604022D01*
X162679672Y-105684638D01*
X162811870Y-105793130D01*
X162920362Y-105925328D01*
X163000978Y-106076150D01*
X163050624Y-106239811D01*
X163068000Y-106416234D01*
X163068000Y-110753766D01*
X163050624Y-110930189D01*
X163000978Y-111093850D01*
X162920362Y-111244672D01*
X162811870Y-111376870D01*
X162679672Y-111485362D01*
X162528850Y-111565978D01*
X162365189Y-111615624D01*
X162188766Y-111633000D01*
X156581234Y-111633000D01*
X156404811Y-111615624D01*
X156241150Y-111565978D01*
X156090328Y-111485362D01*
X155958130Y-111376870D01*
X155849638Y-111244672D01*
X155769022Y-111093850D01*
X155719376Y-110930189D01*
X155702000Y-110753766D01*
X155702000Y-106416234D01*
X155719376Y-106239811D01*
X155769022Y-106076150D01*
X155849638Y-105925328D01*
X155958130Y-105793130D01*
X156090328Y-105684638D01*
X156241150Y-105604022D01*
X156404811Y-105554376D01*
X156581234Y-105537000D01*
X162188766Y-105537000D01*
X162365189Y-105554376D01*
%TA.AperFunction,Conductor*%
D39*
G36*
X162365189Y-105554376D02*
G01*
X162528850Y-105604022D01*
X162679672Y-105684638D01*
X162811870Y-105793130D01*
X162920362Y-105925328D01*
X163000978Y-106076150D01*
X163050624Y-106239811D01*
X163068000Y-106416234D01*
X163068000Y-110753766D01*
X163050624Y-110930189D01*
X163000978Y-111093850D01*
X162920362Y-111244672D01*
X162811870Y-111376870D01*
X162679672Y-111485362D01*
X162528850Y-111565978D01*
X162365189Y-111615624D01*
X162188766Y-111633000D01*
X156581234Y-111633000D01*
X156404811Y-111615624D01*
X156241150Y-111565978D01*
X156090328Y-111485362D01*
X155958130Y-111376870D01*
X155849638Y-111244672D01*
X155769022Y-111093850D01*
X155719376Y-110930189D01*
X155702000Y-110753766D01*
X155702000Y-106416234D01*
X155719376Y-106239811D01*
X155769022Y-106076150D01*
X155849638Y-105925328D01*
X155958130Y-105793130D01*
X156090328Y-105684638D01*
X156241150Y-105604022D01*
X156404811Y-105554376D01*
X156581234Y-105537000D01*
X162188766Y-105537000D01*
X162365189Y-105554376D01*
G37*
%TD.AperFunction*%
%TD*%
D38*
%TO.N,+12V*%
X249091504Y-38754385D02*
X249352593Y-38811181D01*
X249602940Y-38904556D01*
X249837445Y-39032605D01*
X250051338Y-39192724D01*
X250240276Y-39381662D01*
X250400395Y-39595555D01*
X250528444Y-39830060D01*
X250621819Y-40080407D01*
X250678615Y-40341496D01*
X250698000Y-40612530D01*
X250698000Y-94272896D01*
X250678755Y-94542962D01*
X250622368Y-94803145D01*
X250529661Y-95052695D01*
X250402503Y-95286579D01*
X250243459Y-95500076D01*
X250055760Y-95688853D01*
X249843177Y-95849117D01*
X249610024Y-95977611D01*
X249361008Y-96071747D01*
X249101151Y-96129622D01*
X248831205Y-96150413D01*
X219566274Y-96317960D01*
X219294145Y-96299991D01*
X219031828Y-96244284D01*
X218780162Y-96151684D01*
X218544304Y-96024089D01*
X218329082Y-95864109D01*
X218138924Y-95675036D01*
X217977720Y-95460740D01*
X217848773Y-95225611D01*
X217754735Y-94974484D01*
X217697527Y-94712487D01*
X217678000Y-94440465D01*
X217678000Y-91916000D01*
X217677676Y-91906940D01*
X217657319Y-91622310D01*
X217654741Y-91604374D01*
X217594084Y-91325539D01*
X217588979Y-91308153D01*
X217489257Y-91040788D01*
X217481729Y-91024305D01*
X217344972Y-90773853D01*
X217335176Y-90758610D01*
X217164168Y-90530171D01*
X217152302Y-90516476D01*
X216950524Y-90314698D01*
X216936829Y-90302832D01*
X216708390Y-90131824D01*
X216693147Y-90122028D01*
X216442695Y-89985271D01*
X216426212Y-89977743D01*
X216158847Y-89878021D01*
X216141461Y-89872916D01*
X215862626Y-89812259D01*
X215844690Y-89809681D01*
X215560060Y-89789324D01*
X215551000Y-89789000D01*
X214508548Y-89789000D01*
X214282551Y-89769227D01*
X214068799Y-89711953D01*
X213868240Y-89618430D01*
X213686976Y-89491508D01*
X213530492Y-89335024D01*
X213403570Y-89153760D01*
X213360000Y-89060325D01*
X213360000Y-88026194D01*
X213366059Y-87964683D01*
X213403570Y-87884240D01*
X213530492Y-87702976D01*
X213557171Y-87676297D01*
X213586494Y-87660623D01*
X213654394Y-87640027D01*
X213756194Y-87630000D01*
X214900000Y-87630000D01*
X214962242Y-87626942D01*
X215157332Y-87607727D01*
X215279419Y-87583443D01*
X215467012Y-87526538D01*
X215582020Y-87478900D01*
X215754907Y-87386490D01*
X215858409Y-87317332D01*
X216003322Y-87198405D01*
X216153601Y-87165874D01*
X216170911Y-87160817D01*
X216437175Y-87062019D01*
X216453595Y-87054561D01*
X216703182Y-86919045D01*
X216718380Y-86909336D01*
X216946255Y-86739834D01*
X216959924Y-86728070D01*
X217161492Y-86528000D01*
X217173357Y-86514419D01*
X217344555Y-86287815D01*
X217354377Y-86272690D01*
X217491752Y-86024122D01*
X217499333Y-86007758D01*
X217600115Y-85742238D01*
X217605301Y-85724966D01*
X217667457Y-85447848D01*
X217670145Y-85430015D01*
X217692423Y-85146887D01*
X217692810Y-85137873D01*
X217729656Y-80200500D01*
X218076571Y-80200500D01*
X218156376Y-80253824D01*
X218362933Y-80339383D01*
X218582212Y-80383000D01*
X218805788Y-80383000D01*
X219025067Y-80339383D01*
X219231624Y-80253824D01*
X219417520Y-80129612D01*
X219575612Y-79971520D01*
X219699824Y-79785624D01*
X219785383Y-79579067D01*
X219829000Y-79359788D01*
X219829000Y-79136212D01*
X219785383Y-78916933D01*
X219699824Y-78710376D01*
X219575612Y-78524480D01*
X219417520Y-78366388D01*
X219231624Y-78242176D01*
X219025067Y-78156617D01*
X218805788Y-78113000D01*
X218582212Y-78113000D01*
X218362933Y-78156617D01*
X218156376Y-78242176D01*
X218076571Y-78295500D01*
X217743872Y-78295500D01*
X217752655Y-77118642D01*
X217780569Y-77066418D01*
X217832528Y-76895132D01*
X217850072Y-76717000D01*
X217850072Y-75467000D01*
X217832528Y-75288868D01*
X217780569Y-75117582D01*
X217767767Y-75093631D01*
X217789959Y-72119873D01*
X217789701Y-72110768D01*
X217771285Y-71824650D01*
X217768816Y-71806611D01*
X217709678Y-71526066D01*
X217704656Y-71508567D01*
X217606012Y-71239361D01*
X217598539Y-71222759D01*
X217462416Y-70970424D01*
X217452645Y-70955062D01*
X217281840Y-70724783D01*
X217269974Y-70710975D01*
X217067997Y-70507485D01*
X217054278Y-70495516D01*
X216825280Y-70322997D01*
X216809991Y-70313113D01*
X216558679Y-70175111D01*
X216542134Y-70167514D01*
X216273671Y-70066863D01*
X216256209Y-70061710D01*
X215976114Y-70000481D01*
X215958095Y-69997878D01*
X215672122Y-69977327D01*
X215663019Y-69977000D01*
X215015984Y-69977000D01*
X214772658Y-69957849D01*
X214540182Y-69902037D01*
X214319293Y-69810542D01*
X214115451Y-69685627D01*
X213933648Y-69530352D01*
X213778373Y-69348549D01*
X213653458Y-69144707D01*
X213561963Y-68923818D01*
X213506151Y-68691342D01*
X213487392Y-68453000D01*
X213506151Y-68214658D01*
X213561963Y-67982182D01*
X213653458Y-67761293D01*
X213778373Y-67557451D01*
X213881248Y-67437000D01*
X214900000Y-67437000D01*
X214962242Y-67433942D01*
X215157332Y-67414727D01*
X215279419Y-67390443D01*
X215467012Y-67333538D01*
X215582020Y-67285900D01*
X215754907Y-67193490D01*
X215858409Y-67124332D01*
X216009946Y-66999969D01*
X216097969Y-66911946D01*
X216156454Y-66840682D01*
X216158847Y-66839979D01*
X216426212Y-66740257D01*
X216442695Y-66732729D01*
X216693147Y-66595972D01*
X216708390Y-66586176D01*
X216936829Y-66415168D01*
X216950524Y-66403302D01*
X217152302Y-66201524D01*
X217164168Y-66187829D01*
X217335176Y-65959390D01*
X217344972Y-65944147D01*
X217481729Y-65693695D01*
X217489257Y-65677212D01*
X217588979Y-65409847D01*
X217594084Y-65392461D01*
X217654741Y-65113626D01*
X217657319Y-65095690D01*
X217677676Y-64811060D01*
X217678000Y-64802000D01*
X217678000Y-40612530D01*
X217697385Y-40341496D01*
X217754181Y-40080407D01*
X217847556Y-39830060D01*
X217975605Y-39595555D01*
X218135724Y-39381662D01*
X218324662Y-39192724D01*
X218538555Y-39032605D01*
X218773060Y-38904556D01*
X219023407Y-38811181D01*
X219284496Y-38754385D01*
X219555530Y-38735000D01*
X248820470Y-38735000D01*
X249091504Y-38754385D01*
%TA.AperFunction,Conductor*%
D39*
G36*
X249091504Y-38754385D02*
G01*
X249352593Y-38811181D01*
X249602940Y-38904556D01*
X249837445Y-39032605D01*
X250051338Y-39192724D01*
X250240276Y-39381662D01*
X250400395Y-39595555D01*
X250528444Y-39830060D01*
X250621819Y-40080407D01*
X250678615Y-40341496D01*
X250698000Y-40612530D01*
X250698000Y-94272896D01*
X250678755Y-94542962D01*
X250622368Y-94803145D01*
X250529661Y-95052695D01*
X250402503Y-95286579D01*
X250243459Y-95500076D01*
X250055760Y-95688853D01*
X249843177Y-95849117D01*
X249610024Y-95977611D01*
X249361008Y-96071747D01*
X249101151Y-96129622D01*
X248831205Y-96150413D01*
X219566274Y-96317960D01*
X219294145Y-96299991D01*
X219031828Y-96244284D01*
X218780162Y-96151684D01*
X218544304Y-96024089D01*
X218329082Y-95864109D01*
X218138924Y-95675036D01*
X217977720Y-95460740D01*
X217848773Y-95225611D01*
X217754735Y-94974484D01*
X217697527Y-94712487D01*
X217678000Y-94440465D01*
X217678000Y-91916000D01*
X217677676Y-91906940D01*
X217657319Y-91622310D01*
X217654741Y-91604374D01*
X217594084Y-91325539D01*
X217588979Y-91308153D01*
X217489257Y-91040788D01*
X217481729Y-91024305D01*
X217344972Y-90773853D01*
X217335176Y-90758610D01*
X217164168Y-90530171D01*
X217152302Y-90516476D01*
X216950524Y-90314698D01*
X216936829Y-90302832D01*
X216708390Y-90131824D01*
X216693147Y-90122028D01*
X216442695Y-89985271D01*
X216426212Y-89977743D01*
X216158847Y-89878021D01*
X216141461Y-89872916D01*
X215862626Y-89812259D01*
X215844690Y-89809681D01*
X215560060Y-89789324D01*
X215551000Y-89789000D01*
X214508548Y-89789000D01*
X214282551Y-89769227D01*
X214068799Y-89711953D01*
X213868240Y-89618430D01*
X213686976Y-89491508D01*
X213530492Y-89335024D01*
X213403570Y-89153760D01*
X213360000Y-89060325D01*
X213360000Y-88026194D01*
X213366059Y-87964683D01*
X213403570Y-87884240D01*
X213530492Y-87702976D01*
X213557171Y-87676297D01*
X213586494Y-87660623D01*
X213654394Y-87640027D01*
X213756194Y-87630000D01*
X214900000Y-87630000D01*
X214962242Y-87626942D01*
X215157332Y-87607727D01*
X215279419Y-87583443D01*
X215467012Y-87526538D01*
X215582020Y-87478900D01*
X215754907Y-87386490D01*
X215858409Y-87317332D01*
X216003322Y-87198405D01*
X216153601Y-87165874D01*
X216170911Y-87160817D01*
X216437175Y-87062019D01*
X216453595Y-87054561D01*
X216703182Y-86919045D01*
X216718380Y-86909336D01*
X216946255Y-86739834D01*
X216959924Y-86728070D01*
X217161492Y-86528000D01*
X217173357Y-86514419D01*
X217344555Y-86287815D01*
X217354377Y-86272690D01*
X217491752Y-86024122D01*
X217499333Y-86007758D01*
X217600115Y-85742238D01*
X217605301Y-85724966D01*
X217667457Y-85447848D01*
X217670145Y-85430015D01*
X217692423Y-85146887D01*
X217692810Y-85137873D01*
X217729656Y-80200500D01*
X218076571Y-80200500D01*
X218156376Y-80253824D01*
X218362933Y-80339383D01*
X218582212Y-80383000D01*
X218805788Y-80383000D01*
X219025067Y-80339383D01*
X219231624Y-80253824D01*
X219417520Y-80129612D01*
X219575612Y-79971520D01*
X219699824Y-79785624D01*
X219785383Y-79579067D01*
X219829000Y-79359788D01*
X219829000Y-79136212D01*
X219785383Y-78916933D01*
X219699824Y-78710376D01*
X219575612Y-78524480D01*
X219417520Y-78366388D01*
X219231624Y-78242176D01*
X219025067Y-78156617D01*
X218805788Y-78113000D01*
X218582212Y-78113000D01*
X218362933Y-78156617D01*
X218156376Y-78242176D01*
X218076571Y-78295500D01*
X217743872Y-78295500D01*
X217752655Y-77118642D01*
X217780569Y-77066418D01*
X217832528Y-76895132D01*
X217850072Y-76717000D01*
X217850072Y-75467000D01*
X217832528Y-75288868D01*
X217780569Y-75117582D01*
X217767767Y-75093631D01*
X217789959Y-72119873D01*
X217789701Y-72110768D01*
X217771285Y-71824650D01*
X217768816Y-71806611D01*
X217709678Y-71526066D01*
X217704656Y-71508567D01*
X217606012Y-71239361D01*
X217598539Y-71222759D01*
X217462416Y-70970424D01*
X217452645Y-70955062D01*
X217281840Y-70724783D01*
X217269974Y-70710975D01*
X217067997Y-70507485D01*
X217054278Y-70495516D01*
X216825280Y-70322997D01*
X216809991Y-70313113D01*
X216558679Y-70175111D01*
X216542134Y-70167514D01*
X216273671Y-70066863D01*
X216256209Y-70061710D01*
X215976114Y-70000481D01*
X215958095Y-69997878D01*
X215672122Y-69977327D01*
X215663019Y-69977000D01*
X215015984Y-69977000D01*
X214772658Y-69957849D01*
X214540182Y-69902037D01*
X214319293Y-69810542D01*
X214115451Y-69685627D01*
X213933648Y-69530352D01*
X213778373Y-69348549D01*
X213653458Y-69144707D01*
X213561963Y-68923818D01*
X213506151Y-68691342D01*
X213487392Y-68453000D01*
X213506151Y-68214658D01*
X213561963Y-67982182D01*
X213653458Y-67761293D01*
X213778373Y-67557451D01*
X213881248Y-67437000D01*
X214900000Y-67437000D01*
X214962242Y-67433942D01*
X215157332Y-67414727D01*
X215279419Y-67390443D01*
X215467012Y-67333538D01*
X215582020Y-67285900D01*
X215754907Y-67193490D01*
X215858409Y-67124332D01*
X216009946Y-66999969D01*
X216097969Y-66911946D01*
X216156454Y-66840682D01*
X216158847Y-66839979D01*
X216426212Y-66740257D01*
X216442695Y-66732729D01*
X216693147Y-66595972D01*
X216708390Y-66586176D01*
X216936829Y-66415168D01*
X216950524Y-66403302D01*
X217152302Y-66201524D01*
X217164168Y-66187829D01*
X217335176Y-65959390D01*
X217344972Y-65944147D01*
X217481729Y-65693695D01*
X217489257Y-65677212D01*
X217588979Y-65409847D01*
X217594084Y-65392461D01*
X217654741Y-65113626D01*
X217657319Y-65095690D01*
X217677676Y-64811060D01*
X217678000Y-64802000D01*
X217678000Y-40612530D01*
X217697385Y-40341496D01*
X217754181Y-40080407D01*
X217847556Y-39830060D01*
X217975605Y-39595555D01*
X218135724Y-39381662D01*
X218324662Y-39192724D01*
X218538555Y-39032605D01*
X218773060Y-38904556D01*
X219023407Y-38811181D01*
X219284496Y-38754385D01*
X219555530Y-38735000D01*
X248820470Y-38735000D01*
X249091504Y-38754385D01*
G37*
%TD.AperFunction*%
%TD*%
D38*
%TO.N,Net-(Q1-Pad2)*%
X246312189Y-100220376D02*
X246475850Y-100270022D01*
X246626672Y-100350638D01*
X246758870Y-100459130D01*
X246867362Y-100591328D01*
X246947978Y-100742150D01*
X246997624Y-100905811D01*
X247015000Y-101082234D01*
X247015000Y-130565766D01*
X246997624Y-130742189D01*
X246947978Y-130905850D01*
X246867362Y-131056672D01*
X246758870Y-131188870D01*
X246626672Y-131297362D01*
X246475850Y-131377978D01*
X246312189Y-131427624D01*
X246135766Y-131445000D01*
X227314000Y-131445000D01*
X227301552Y-131445612D01*
X227106462Y-131464827D01*
X227082044Y-131469683D01*
X226894451Y-131526588D01*
X226871450Y-131536116D01*
X226698563Y-131628526D01*
X226677862Y-131642358D01*
X226526325Y-131766721D01*
X226508721Y-131784325D01*
X226384358Y-131935862D01*
X226370526Y-131956563D01*
X226278116Y-132129450D01*
X226268588Y-132152451D01*
X226211683Y-132340044D01*
X226206827Y-132364462D01*
X226187612Y-132559552D01*
X226187000Y-132572000D01*
X226187000Y-132597766D01*
X226169624Y-132774189D01*
X226119978Y-132937850D01*
X226039362Y-133088672D01*
X225930870Y-133220870D01*
X225798672Y-133329362D01*
X225647850Y-133409978D01*
X225484189Y-133459624D01*
X225307766Y-133477000D01*
X201923635Y-133477000D01*
X201911623Y-133355037D01*
X201839003Y-133115641D01*
X201781468Y-133008000D01*
X201721075Y-132895012D01*
X201643171Y-132800086D01*
X201602135Y-132750083D01*
X201602132Y-132750080D01*
X201562370Y-132701630D01*
X201513920Y-132661868D01*
X197376052Y-128524000D01*
X212733319Y-128524000D01*
X212763970Y-128835204D01*
X212854745Y-129134449D01*
X213002155Y-129410235D01*
X213200537Y-129651963D01*
X213442265Y-129850345D01*
X213718051Y-129997755D01*
X214017296Y-130088530D01*
X214250514Y-130111500D01*
X214501486Y-130111500D01*
X214734704Y-130088530D01*
X215033949Y-129997755D01*
X215309735Y-129850345D01*
X215551463Y-129651963D01*
X215749845Y-129410235D01*
X215897255Y-129134449D01*
X215988030Y-128835204D01*
X216018681Y-128524000D01*
X215988030Y-128212796D01*
X215897255Y-127913551D01*
X215749845Y-127637765D01*
X215551463Y-127396037D01*
X215309735Y-127197655D01*
X215033949Y-127050245D01*
X214734704Y-126959470D01*
X214501486Y-126936500D01*
X214250514Y-126936500D01*
X214017296Y-126959470D01*
X213718051Y-127050245D01*
X213442265Y-127197655D01*
X213200537Y-127396037D01*
X213002155Y-127637765D01*
X212854745Y-127913551D01*
X212763970Y-128212796D01*
X212733319Y-128524000D01*
X197376052Y-128524000D01*
X191343551Y-122491500D01*
X212737928Y-122491500D01*
X212737928Y-124396500D01*
X212750188Y-124520982D01*
X212786498Y-124640680D01*
X212845463Y-124750994D01*
X212924815Y-124847685D01*
X213021506Y-124927037D01*
X213131820Y-124986002D01*
X213251518Y-125022312D01*
X213376000Y-125034572D01*
X215376000Y-125034572D01*
X215500482Y-125022312D01*
X215620180Y-124986002D01*
X215730494Y-124927037D01*
X215827185Y-124847685D01*
X215906537Y-124750994D01*
X215965502Y-124640680D01*
X216001812Y-124520982D01*
X216014072Y-124396500D01*
X216014072Y-122491500D01*
X216001812Y-122367018D01*
X215965502Y-122247320D01*
X215906537Y-122137006D01*
X215827185Y-122040315D01*
X215730494Y-121960963D01*
X215620180Y-121901998D01*
X215500482Y-121865688D01*
X215376000Y-121853428D01*
X213376000Y-121853428D01*
X213251518Y-121865688D01*
X213131820Y-121901998D01*
X213021506Y-121960963D01*
X212924815Y-122040315D01*
X212845463Y-122137006D01*
X212786498Y-122247320D01*
X212750188Y-122367018D01*
X212737928Y-122491500D01*
X191343551Y-122491500D01*
X188721580Y-119869530D01*
X188665474Y-119764563D01*
X188651642Y-119743862D01*
X188527279Y-119592325D01*
X188509675Y-119574721D01*
X188358138Y-119450358D01*
X188337437Y-119436526D01*
X188186452Y-119355823D01*
X188160988Y-119334925D01*
X187940359Y-119216997D01*
X187700963Y-119144377D01*
X187514380Y-119126000D01*
X187514373Y-119126000D01*
X187452000Y-119119857D01*
X187389627Y-119126000D01*
X173019939Y-119126000D01*
X172981328Y-119105362D01*
X172849130Y-118996870D01*
X172740638Y-118864672D01*
X172660022Y-118713850D01*
X172610376Y-118550189D01*
X172593000Y-118373766D01*
X172593000Y-109210234D01*
X172610376Y-109033811D01*
X172660022Y-108870150D01*
X172740638Y-108719328D01*
X172849130Y-108587130D01*
X172981328Y-108478638D01*
X173132150Y-108398022D01*
X173295811Y-108348376D01*
X173472234Y-108331000D01*
X203470000Y-108331000D01*
X203482448Y-108330388D01*
X203677538Y-108311173D01*
X203701956Y-108306317D01*
X203889549Y-108249412D01*
X203912550Y-108239884D01*
X203979684Y-108204000D01*
X212733319Y-108204000D01*
X212763970Y-108515204D01*
X212854745Y-108814449D01*
X213002155Y-109090235D01*
X213200537Y-109331963D01*
X213442265Y-109530345D01*
X213718051Y-109677755D01*
X214017296Y-109768530D01*
X214250514Y-109791500D01*
X214501486Y-109791500D01*
X214734704Y-109768530D01*
X215033949Y-109677755D01*
X215309735Y-109530345D01*
X215551463Y-109331963D01*
X215749845Y-109090235D01*
X215897255Y-108814449D01*
X215988030Y-108515204D01*
X216018681Y-108204000D01*
X215988030Y-107892796D01*
X215897255Y-107593551D01*
X215749845Y-107317765D01*
X215551463Y-107076037D01*
X215309735Y-106877655D01*
X215033949Y-106730245D01*
X214734704Y-106639470D01*
X214501486Y-106616500D01*
X214250514Y-106616500D01*
X214017296Y-106639470D01*
X213718051Y-106730245D01*
X213442265Y-106877655D01*
X213200537Y-107076037D01*
X213002155Y-107317765D01*
X212854745Y-107593551D01*
X212763970Y-107892796D01*
X212733319Y-108204000D01*
X203979684Y-108204000D01*
X204085437Y-108147474D01*
X204106138Y-108133642D01*
X204257675Y-108009279D01*
X204275279Y-107991675D01*
X204399642Y-107840138D01*
X204413474Y-107819437D01*
X204505884Y-107646550D01*
X204515412Y-107623549D01*
X204572317Y-107435956D01*
X204577173Y-107411538D01*
X204596388Y-107216448D01*
X204597000Y-107204000D01*
X204597000Y-102171500D01*
X212737928Y-102171500D01*
X212737928Y-104076500D01*
X212750188Y-104200982D01*
X212786498Y-104320680D01*
X212845463Y-104430994D01*
X212924815Y-104527685D01*
X213021506Y-104607037D01*
X213131820Y-104666002D01*
X213251518Y-104702312D01*
X213376000Y-104714572D01*
X215376000Y-104714572D01*
X215500482Y-104702312D01*
X215620180Y-104666002D01*
X215730494Y-104607037D01*
X215827185Y-104527685D01*
X215906537Y-104430994D01*
X215965502Y-104320680D01*
X216001812Y-104200982D01*
X216014072Y-104076500D01*
X216014072Y-102171500D01*
X216006407Y-102093665D01*
X241135000Y-102093665D01*
X241135000Y-102376335D01*
X241190147Y-102653574D01*
X241298320Y-102914727D01*
X241455363Y-103149759D01*
X241655241Y-103349637D01*
X241890273Y-103506680D01*
X242151426Y-103614853D01*
X242428665Y-103670000D01*
X242711335Y-103670000D01*
X242988574Y-103614853D01*
X243249727Y-103506680D01*
X243484759Y-103349637D01*
X243684637Y-103149759D01*
X243841680Y-102914727D01*
X243949853Y-102653574D01*
X244005000Y-102376335D01*
X244005000Y-102093665D01*
X243949853Y-101816426D01*
X243841680Y-101555273D01*
X243684637Y-101320241D01*
X243484759Y-101120363D01*
X243249727Y-100963320D01*
X242988574Y-100855147D01*
X242711335Y-100800000D01*
X242428665Y-100800000D01*
X242151426Y-100855147D01*
X241890273Y-100963320D01*
X241655241Y-101120363D01*
X241455363Y-101320241D01*
X241298320Y-101555273D01*
X241190147Y-101816426D01*
X241135000Y-102093665D01*
X216006407Y-102093665D01*
X216001812Y-102047018D01*
X215965502Y-101927320D01*
X215906537Y-101817006D01*
X215827185Y-101720315D01*
X215730494Y-101640963D01*
X215620180Y-101581998D01*
X215500482Y-101545688D01*
X215376000Y-101533428D01*
X213376000Y-101533428D01*
X213251518Y-101545688D01*
X213131820Y-101581998D01*
X213021506Y-101640963D01*
X212924815Y-101720315D01*
X212845463Y-101817006D01*
X212786498Y-101927320D01*
X212750188Y-102047018D01*
X212737928Y-102171500D01*
X204597000Y-102171500D01*
X204597000Y-101082234D01*
X204614376Y-100905811D01*
X204664022Y-100742150D01*
X204744638Y-100591328D01*
X204853130Y-100459130D01*
X204985328Y-100350638D01*
X205136150Y-100270022D01*
X205299811Y-100220376D01*
X205476234Y-100203000D01*
X246135766Y-100203000D01*
X246312189Y-100220376D01*
%TA.AperFunction,Conductor*%
D39*
G36*
X246312189Y-100220376D02*
G01*
X246475850Y-100270022D01*
X246626672Y-100350638D01*
X246758870Y-100459130D01*
X246867362Y-100591328D01*
X246947978Y-100742150D01*
X246997624Y-100905811D01*
X247015000Y-101082234D01*
X247015000Y-130565766D01*
X246997624Y-130742189D01*
X246947978Y-130905850D01*
X246867362Y-131056672D01*
X246758870Y-131188870D01*
X246626672Y-131297362D01*
X246475850Y-131377978D01*
X246312189Y-131427624D01*
X246135766Y-131445000D01*
X227314000Y-131445000D01*
X227301552Y-131445612D01*
X227106462Y-131464827D01*
X227082044Y-131469683D01*
X226894451Y-131526588D01*
X226871450Y-131536116D01*
X226698563Y-131628526D01*
X226677862Y-131642358D01*
X226526325Y-131766721D01*
X226508721Y-131784325D01*
X226384358Y-131935862D01*
X226370526Y-131956563D01*
X226278116Y-132129450D01*
X226268588Y-132152451D01*
X226211683Y-132340044D01*
X226206827Y-132364462D01*
X226187612Y-132559552D01*
X226187000Y-132572000D01*
X226187000Y-132597766D01*
X226169624Y-132774189D01*
X226119978Y-132937850D01*
X226039362Y-133088672D01*
X225930870Y-133220870D01*
X225798672Y-133329362D01*
X225647850Y-133409978D01*
X225484189Y-133459624D01*
X225307766Y-133477000D01*
X201923635Y-133477000D01*
X201911623Y-133355037D01*
X201839003Y-133115641D01*
X201781468Y-133008000D01*
X201721075Y-132895012D01*
X201643171Y-132800086D01*
X201602135Y-132750083D01*
X201602132Y-132750080D01*
X201562370Y-132701630D01*
X201513920Y-132661868D01*
X197376052Y-128524000D01*
X212733319Y-128524000D01*
X212763970Y-128835204D01*
X212854745Y-129134449D01*
X213002155Y-129410235D01*
X213200537Y-129651963D01*
X213442265Y-129850345D01*
X213718051Y-129997755D01*
X214017296Y-130088530D01*
X214250514Y-130111500D01*
X214501486Y-130111500D01*
X214734704Y-130088530D01*
X215033949Y-129997755D01*
X215309735Y-129850345D01*
X215551463Y-129651963D01*
X215749845Y-129410235D01*
X215897255Y-129134449D01*
X215988030Y-128835204D01*
X216018681Y-128524000D01*
X215988030Y-128212796D01*
X215897255Y-127913551D01*
X215749845Y-127637765D01*
X215551463Y-127396037D01*
X215309735Y-127197655D01*
X215033949Y-127050245D01*
X214734704Y-126959470D01*
X214501486Y-126936500D01*
X214250514Y-126936500D01*
X214017296Y-126959470D01*
X213718051Y-127050245D01*
X213442265Y-127197655D01*
X213200537Y-127396037D01*
X213002155Y-127637765D01*
X212854745Y-127913551D01*
X212763970Y-128212796D01*
X212733319Y-128524000D01*
X197376052Y-128524000D01*
X191343551Y-122491500D01*
X212737928Y-122491500D01*
X212737928Y-124396500D01*
X212750188Y-124520982D01*
X212786498Y-124640680D01*
X212845463Y-124750994D01*
X212924815Y-124847685D01*
X213021506Y-124927037D01*
X213131820Y-124986002D01*
X213251518Y-125022312D01*
X213376000Y-125034572D01*
X215376000Y-125034572D01*
X215500482Y-125022312D01*
X215620180Y-124986002D01*
X215730494Y-124927037D01*
X215827185Y-124847685D01*
X215906537Y-124750994D01*
X215965502Y-124640680D01*
X216001812Y-124520982D01*
X216014072Y-124396500D01*
X216014072Y-122491500D01*
X216001812Y-122367018D01*
X215965502Y-122247320D01*
X215906537Y-122137006D01*
X215827185Y-122040315D01*
X215730494Y-121960963D01*
X215620180Y-121901998D01*
X215500482Y-121865688D01*
X215376000Y-121853428D01*
X213376000Y-121853428D01*
X213251518Y-121865688D01*
X213131820Y-121901998D01*
X213021506Y-121960963D01*
X212924815Y-122040315D01*
X212845463Y-122137006D01*
X212786498Y-122247320D01*
X212750188Y-122367018D01*
X212737928Y-122491500D01*
X191343551Y-122491500D01*
X188721580Y-119869530D01*
X188665474Y-119764563D01*
X188651642Y-119743862D01*
X188527279Y-119592325D01*
X188509675Y-119574721D01*
X188358138Y-119450358D01*
X188337437Y-119436526D01*
X188186452Y-119355823D01*
X188160988Y-119334925D01*
X187940359Y-119216997D01*
X187700963Y-119144377D01*
X187514380Y-119126000D01*
X187514373Y-119126000D01*
X187452000Y-119119857D01*
X187389627Y-119126000D01*
X173019939Y-119126000D01*
X172981328Y-119105362D01*
X172849130Y-118996870D01*
X172740638Y-118864672D01*
X172660022Y-118713850D01*
X172610376Y-118550189D01*
X172593000Y-118373766D01*
X172593000Y-109210234D01*
X172610376Y-109033811D01*
X172660022Y-108870150D01*
X172740638Y-108719328D01*
X172849130Y-108587130D01*
X172981328Y-108478638D01*
X173132150Y-108398022D01*
X173295811Y-108348376D01*
X173472234Y-108331000D01*
X203470000Y-108331000D01*
X203482448Y-108330388D01*
X203677538Y-108311173D01*
X203701956Y-108306317D01*
X203889549Y-108249412D01*
X203912550Y-108239884D01*
X203979684Y-108204000D01*
X212733319Y-108204000D01*
X212763970Y-108515204D01*
X212854745Y-108814449D01*
X213002155Y-109090235D01*
X213200537Y-109331963D01*
X213442265Y-109530345D01*
X213718051Y-109677755D01*
X214017296Y-109768530D01*
X214250514Y-109791500D01*
X214501486Y-109791500D01*
X214734704Y-109768530D01*
X215033949Y-109677755D01*
X215309735Y-109530345D01*
X215551463Y-109331963D01*
X215749845Y-109090235D01*
X215897255Y-108814449D01*
X215988030Y-108515204D01*
X216018681Y-108204000D01*
X215988030Y-107892796D01*
X215897255Y-107593551D01*
X215749845Y-107317765D01*
X215551463Y-107076037D01*
X215309735Y-106877655D01*
X215033949Y-106730245D01*
X214734704Y-106639470D01*
X214501486Y-106616500D01*
X214250514Y-106616500D01*
X214017296Y-106639470D01*
X213718051Y-106730245D01*
X213442265Y-106877655D01*
X213200537Y-107076037D01*
X213002155Y-107317765D01*
X212854745Y-107593551D01*
X212763970Y-107892796D01*
X212733319Y-108204000D01*
X203979684Y-108204000D01*
X204085437Y-108147474D01*
X204106138Y-108133642D01*
X204257675Y-108009279D01*
X204275279Y-107991675D01*
X204399642Y-107840138D01*
X204413474Y-107819437D01*
X204505884Y-107646550D01*
X204515412Y-107623549D01*
X204572317Y-107435956D01*
X204577173Y-107411538D01*
X204596388Y-107216448D01*
X204597000Y-107204000D01*
X204597000Y-102171500D01*
X212737928Y-102171500D01*
X212737928Y-104076500D01*
X212750188Y-104200982D01*
X212786498Y-104320680D01*
X212845463Y-104430994D01*
X212924815Y-104527685D01*
X213021506Y-104607037D01*
X213131820Y-104666002D01*
X213251518Y-104702312D01*
X213376000Y-104714572D01*
X215376000Y-104714572D01*
X215500482Y-104702312D01*
X215620180Y-104666002D01*
X215730494Y-104607037D01*
X215827185Y-104527685D01*
X215906537Y-104430994D01*
X215965502Y-104320680D01*
X216001812Y-104200982D01*
X216014072Y-104076500D01*
X216014072Y-102171500D01*
X216006407Y-102093665D01*
X241135000Y-102093665D01*
X241135000Y-102376335D01*
X241190147Y-102653574D01*
X241298320Y-102914727D01*
X241455363Y-103149759D01*
X241655241Y-103349637D01*
X241890273Y-103506680D01*
X242151426Y-103614853D01*
X242428665Y-103670000D01*
X242711335Y-103670000D01*
X242988574Y-103614853D01*
X243249727Y-103506680D01*
X243484759Y-103349637D01*
X243684637Y-103149759D01*
X243841680Y-102914727D01*
X243949853Y-102653574D01*
X244005000Y-102376335D01*
X244005000Y-102093665D01*
X243949853Y-101816426D01*
X243841680Y-101555273D01*
X243684637Y-101320241D01*
X243484759Y-101120363D01*
X243249727Y-100963320D01*
X242988574Y-100855147D01*
X242711335Y-100800000D01*
X242428665Y-100800000D01*
X242151426Y-100855147D01*
X241890273Y-100963320D01*
X241655241Y-101120363D01*
X241455363Y-101320241D01*
X241298320Y-101555273D01*
X241190147Y-101816426D01*
X241135000Y-102093665D01*
X216006407Y-102093665D01*
X216001812Y-102047018D01*
X215965502Y-101927320D01*
X215906537Y-101817006D01*
X215827185Y-101720315D01*
X215730494Y-101640963D01*
X215620180Y-101581998D01*
X215500482Y-101545688D01*
X215376000Y-101533428D01*
X213376000Y-101533428D01*
X213251518Y-101545688D01*
X213131820Y-101581998D01*
X213021506Y-101640963D01*
X212924815Y-101720315D01*
X212845463Y-101817006D01*
X212786498Y-101927320D01*
X212750188Y-102047018D01*
X212737928Y-102171500D01*
X204597000Y-102171500D01*
X204597000Y-101082234D01*
X204614376Y-100905811D01*
X204664022Y-100742150D01*
X204744638Y-100591328D01*
X204853130Y-100459130D01*
X204985328Y-100350638D01*
X205136150Y-100270022D01*
X205299811Y-100220376D01*
X205476234Y-100203000D01*
X246135766Y-100203000D01*
X246312189Y-100220376D01*
G37*
%TD.AperFunction*%
%TD*%
M02*
