M48
; DRILL file {KiCad (5.1.12)-1} date 11/16/21 18:18:05
; FORMAT={-:-/ absolute / inch / decimal}
; #@! TF.CreationDate,2021-11-16T18:18:05+08:00
; #@! TF.GenerationSoftware,Kicad,Pcbnew,(5.1.12)-1
; #@! TF.FileFunction,Plated,1,2,PTH
FMAT,2
INCH
T1C0.0236
T2C0.0295
T3C0.0315
T4C0.0394
T5C0.0433
T6C0.0472
T7C0.0591
T8C0.0709
T9C0.1260
%
G90
G05
T1
X1.895Y-4.51
X2.055Y-4.82
X2.095Y-4.51
X2.315Y-4.51
X3.545Y-6.54
X3.715Y-6.38
X4.245Y-6.31
X4.345Y-5.02
X4.36Y-5.5
X4.36Y-6.04
X4.485Y-5.1
X4.765Y-5.1
X4.785Y-6.52
X4.805Y-5.02
X4.935Y-5.91
X5.085Y-6.23
X5.185Y-5.68
X5.185Y-6.78
X5.205Y-5.5
X5.985Y-6.23
X6.065Y-3.74
X6.075Y-5.9
X6.125Y-5.5
X6.295Y-4.74
X6.415Y-6.4
X6.7553Y-6.31
X6.84Y-6.245
X6.925Y-3.48
X7.025Y-4.74
X7.035Y-2.97
X7.075Y-4.22
X7.175Y-2.53
X7.2Y-4.38
X7.2Y-4.53
X7.275Y-2.53
X7.3Y-4.305
X7.3Y-4.455
X7.3Y-4.605
X7.375Y-2.53
X7.375Y-3.825
X7.4Y-4.38
X7.4Y-4.53
X7.475Y-2.53
X7.525Y-3.825
X7.7Y-2.54
X7.7Y-2.7483
X7.7Y-2.9567
X7.7Y-3.165
X7.7Y-3.3733
X7.7Y-3.5817
X7.7Y-3.79
X7.825Y-4.22
X7.9Y-5.6
X8.06Y-3.16
X8.22Y-2.54
X8.22Y-2.74
X8.22Y-2.94
X8.22Y-3.38
X8.22Y-3.59
X8.22Y-3.79
X8.25Y-6.18
X8.285Y-5.695
X8.435Y-6.56
X8.605Y-6.1774
X8.605Y-6.56
X8.61Y-3.12
X8.725Y-5.86
X8.76Y-6.08
X8.88Y-5.995
X8.88Y-6.28
X9.055Y-5.42
X9.175Y-5.475
T2
X8.43Y-2.98
X8.48Y-2.93
X8.53Y-2.98
T3
X3.755Y-4.8196
X3.755Y-4.9196
X3.755Y-6.5196
X3.755Y-6.6196
X3.855Y-4.8196
X3.855Y-4.9196
X3.855Y-6.5196
X3.855Y-6.6196
X3.955Y-4.8196
X3.955Y-6.5196
X3.955Y-6.6196
X4.055Y-4.8196
X4.055Y-4.9196
X4.055Y-6.5196
X4.055Y-6.6196
X4.155Y-4.8196
X4.155Y-4.9196
X4.155Y-6.5196
X4.155Y-6.6196
X4.255Y-4.8196
X4.255Y-4.9196
X4.255Y-6.5196
X4.255Y-6.6196
X4.355Y-4.9196
X4.355Y-6.5196
X4.355Y-6.6196
X4.455Y-4.8196
X4.455Y-6.5196
X4.455Y-6.6196
X4.555Y-4.8196
X4.555Y-4.9196
X4.555Y-6.5196
X4.555Y-6.6196
X4.655Y-4.8196
X4.655Y-4.9196
X4.655Y-6.5196
X4.655Y-6.6196
X6.255Y-4.8196
X6.255Y-4.9196
X6.255Y-6.5196
X6.255Y-6.6196
X6.355Y-4.8196
X6.355Y-4.9196
X6.355Y-6.5196
X6.355Y-6.6196
X6.455Y-4.8196
X6.455Y-4.9196
X6.455Y-6.5196
X6.455Y-6.6196
X6.555Y-4.8196
X6.555Y-4.9196
X6.555Y-6.5196
X6.555Y-6.6196
X6.655Y-4.8196
X6.655Y-4.9196
X6.655Y-6.5196
X6.655Y-6.6196
X6.755Y-4.8196
X6.755Y-4.9196
X6.755Y-6.5196
X6.755Y-6.6196
X6.855Y-6.5196
X6.855Y-6.6196
X6.955Y-4.8196
X6.955Y-4.9196
X6.955Y-6.5196
X6.955Y-6.6196
X7.055Y-4.8196
X7.055Y-4.9196
X7.055Y-6.5196
X7.055Y-6.6196
X7.155Y-4.8196
X7.155Y-4.9196
X7.155Y-6.5196
X7.155Y-6.6196
X7.4328Y-2.9119
X7.4328Y-3.1481
X8.35Y-1.83
X8.35Y-1.93
X8.35Y-2.03
X8.435Y-6.71
X8.535Y-6.71
X8.635Y-6.71
X9.15Y-5.3
X9.25Y-5.3
X9.35Y-5.3
X9.55Y-3.625
X9.55Y-4.025
X9.725Y-5.56
X9.725Y-5.6584
T4
X6.24Y-4.25
X8.075Y-5.575
X8.075Y-5.675
X8.075Y-5.775
X8.075Y-5.875
X8.075Y-5.975
X8.075Y-6.075
X8.075Y-6.175
X9.045Y-5.57
X9.105Y-6.71
X9.535Y-5.27
T5
X7.55Y-3.93
X7.7Y-4.03
X8.44Y-2.48
X8.44Y-2.58
X8.44Y-2.68
X8.44Y-3.28
X8.44Y-3.38
X8.44Y-3.48
X8.44Y-4.06
X8.44Y-4.16
X8.44Y-4.26
X8.44Y-4.86
X8.44Y-4.96
X8.44Y-5.06
T6
X7.55Y-4.1284
T7
X7.4328Y-2.715
X7.4328Y-3.345
T8
X7.4335Y-1.6251
X7.4335Y-1.8849
X7.8665Y-1.6251
X7.8665Y-1.8849
X8.7585Y-1.6451
X8.7585Y-1.9049
X9.1915Y-1.6451
X9.1915Y-1.9049
T9
X1.905Y-1.4
X1.905Y-6.7
X9.65Y-1.38
X9.65Y-6.68
T0
M30
