%TF.GenerationSoftware,KiCad,Pcbnew,(5.1.12)-1*%
%TF.CreationDate,2021-11-16T18:17:41+08:00*%
%TF.ProjectId,CVModule,43564d6f-6475-46c6-952e-6b696361645f,rev?*%
%TF.SameCoordinates,Original*%
%TF.FileFunction,Soldermask,Bot*%
%TF.FilePolarity,Negative*%
%FSLAX46Y46*%
G04 Gerber Fmt 4.6, Leading zero omitted, Abs format (unit mm)*
G04 Created by KiCad (PCBNEW (5.1.12)-1) date 2021-11-16 18:17:41*
%MOMM*%
%LPD*%
G01*
G04 APERTURE LIST*
%ADD10C,1.800000*%
%ADD11O,3.960000X1.980000*%
%ADD12O,5.000000X3.000000*%
%ADD13R,5.000000X3.000000*%
%ADD14O,2.000000X1.905000*%
%ADD15R,2.000000X1.905000*%
%ADD16R,1.700000X1.700000*%
%ADD17R,1.600000X1.600000*%
%ADD18C,1.600000*%
%ADD19C,5.600000*%
%ADD20C,3.600000*%
%ADD21O,1.700000X1.700000*%
%ADD22C,3.500000*%
%ADD23R,5.800000X6.400000*%
%ADD24R,1.200000X2.200000*%
%ADD25O,2.800000X2.000000*%
%ADD26R,2.800000X2.000000*%
%ADD27R,1.100000X1.800000*%
%ADD28O,1.600000X1.600000*%
%ADD29C,1.440000*%
G04 APERTURE END LIST*
D10*
%TO.C,U9*%
X95377001Y-168138501D03*
X97917001Y-168138501D03*
X100457001Y-168138501D03*
X102997001Y-168138501D03*
X105537001Y-168138501D03*
X108077001Y-168138501D03*
X110617001Y-168138501D03*
X113157001Y-168138501D03*
X115697001Y-168138501D03*
X118237001Y-168138501D03*
X95377001Y-165598501D03*
X97917001Y-165598501D03*
X100457001Y-165598501D03*
X102997001Y-165598501D03*
X105537001Y-165598501D03*
X108077001Y-165598501D03*
X110617001Y-165598501D03*
X113157001Y-165598501D03*
X115697001Y-165598501D03*
X118237001Y-165598501D03*
X100457001Y-122418501D03*
X115697001Y-124958501D03*
X97917001Y-122418501D03*
X110617001Y-124958501D03*
X95377001Y-124958501D03*
X105537001Y-122418501D03*
X95377001Y-122418501D03*
X118237001Y-124958501D03*
X108077001Y-124958501D03*
X102997001Y-122418501D03*
X108077001Y-122418501D03*
X102997001Y-124958501D03*
X115697001Y-122418501D03*
X105537001Y-124958501D03*
X113157001Y-122418501D03*
X97917001Y-124958501D03*
X118237001Y-122418501D03*
X179197001Y-124958501D03*
X163957001Y-122418501D03*
X166497001Y-122418501D03*
X171577001Y-124958501D03*
X181737001Y-124958501D03*
X158877001Y-122418501D03*
X169037001Y-122418501D03*
X158877001Y-124958501D03*
X176657001Y-124958501D03*
X161417001Y-122418501D03*
X181737001Y-122418501D03*
X163957001Y-124958501D03*
X161417001Y-124958501D03*
X163957001Y-165598501D03*
X179197001Y-168138501D03*
X161417001Y-165598501D03*
X174117001Y-168138501D03*
X176657001Y-168138501D03*
X158877001Y-168138501D03*
X169037001Y-165598501D03*
X158877001Y-165598501D03*
X181737001Y-168138501D03*
X171577001Y-168138501D03*
X166497001Y-165598501D03*
X171577001Y-165598501D03*
X166497001Y-168138501D03*
X179197001Y-165598501D03*
X169037001Y-168138501D03*
X176657001Y-165598501D03*
X161417001Y-168138501D03*
X163957001Y-168138501D03*
X181737001Y-165598501D03*
X174117001Y-165598501D03*
X179197001Y-122418501D03*
X169037001Y-124958501D03*
X166497001Y-124958501D03*
X171577001Y-122418501D03*
X176657001Y-122418501D03*
%TD*%
D11*
%TO.C,B1*%
X188792000Y-73962000D03*
D12*
X188792000Y-68962000D03*
D13*
X188792000Y-84962000D03*
D11*
X188792000Y-79962000D03*
%TD*%
D14*
%TO.C,Q5*%
X214376000Y-108204000D03*
X214376000Y-105664000D03*
D15*
X214376000Y-103124000D03*
%TD*%
D16*
%TO.C,TP12*%
X158496000Y-107950000D03*
%TD*%
%TO.C,R40*%
G36*
G01*
X218751999Y-108223000D02*
X219652001Y-108223000D01*
G75*
G02*
X219902000Y-108472999I0J-249999D01*
G01*
X219902000Y-109173001D01*
G75*
G02*
X219652001Y-109423000I-249999J0D01*
G01*
X218751999Y-109423000D01*
G75*
G02*
X218502000Y-109173001I0J249999D01*
G01*
X218502000Y-108472999D01*
G75*
G02*
X218751999Y-108223000I249999J0D01*
G01*
G37*
G36*
G01*
X218751999Y-106223000D02*
X219652001Y-106223000D01*
G75*
G02*
X219902000Y-106472999I0J-249999D01*
G01*
X219902000Y-107173001D01*
G75*
G02*
X219652001Y-107423000I-249999J0D01*
G01*
X218751999Y-107423000D01*
G75*
G02*
X218502000Y-107173001I0J249999D01*
G01*
X218502000Y-106472999D01*
G75*
G02*
X218751999Y-106223000I249999J0D01*
G01*
G37*
%TD*%
%TO.C,R39*%
G36*
G01*
X218751999Y-128924000D02*
X219652001Y-128924000D01*
G75*
G02*
X219902000Y-129173999I0J-249999D01*
G01*
X219902000Y-129874001D01*
G75*
G02*
X219652001Y-130124000I-249999J0D01*
G01*
X218751999Y-130124000D01*
G75*
G02*
X218502000Y-129874001I0J249999D01*
G01*
X218502000Y-129173999D01*
G75*
G02*
X218751999Y-128924000I249999J0D01*
G01*
G37*
G36*
G01*
X218751999Y-126924000D02*
X219652001Y-126924000D01*
G75*
G02*
X219902000Y-127173999I0J-249999D01*
G01*
X219902000Y-127874001D01*
G75*
G02*
X219652001Y-128124000I-249999J0D01*
G01*
X218751999Y-128124000D01*
G75*
G02*
X218502000Y-127874001I0J249999D01*
G01*
X218502000Y-127173999D01*
G75*
G02*
X218751999Y-126924000I249999J0D01*
G01*
G37*
%TD*%
D14*
%TO.C,Q4*%
X214376000Y-128524000D03*
X214376000Y-125984000D03*
D15*
X214376000Y-123444000D03*
%TD*%
%TO.C,C2*%
G36*
G01*
X219235000Y-83359500D02*
X220185000Y-83359500D01*
G75*
G02*
X220435000Y-83609500I0J-250000D01*
G01*
X220435000Y-84284500D01*
G75*
G02*
X220185000Y-84534500I-250000J0D01*
G01*
X219235000Y-84534500D01*
G75*
G02*
X218985000Y-84284500I0J250000D01*
G01*
X218985000Y-83609500D01*
G75*
G02*
X219235000Y-83359500I250000J0D01*
G01*
G37*
G36*
G01*
X219235000Y-81284500D02*
X220185000Y-81284500D01*
G75*
G02*
X220435000Y-81534500I0J-250000D01*
G01*
X220435000Y-82209500D01*
G75*
G02*
X220185000Y-82459500I-250000J0D01*
G01*
X219235000Y-82459500D01*
G75*
G02*
X218985000Y-82209500I0J250000D01*
G01*
X218985000Y-81534500D01*
G75*
G02*
X219235000Y-81284500I250000J0D01*
G01*
G37*
%TD*%
D17*
%TO.C,C3*%
X247015000Y-141224000D03*
D18*
X247015000Y-143724000D03*
%TD*%
%TO.C,C6*%
G36*
G01*
X221455000Y-89784500D02*
X220505000Y-89784500D01*
G75*
G02*
X220255000Y-89534500I0J250000D01*
G01*
X220255000Y-88859500D01*
G75*
G02*
X220505000Y-88609500I250000J0D01*
G01*
X221455000Y-88609500D01*
G75*
G02*
X221705000Y-88859500I0J-250000D01*
G01*
X221705000Y-89534500D01*
G75*
G02*
X221455000Y-89784500I-250000J0D01*
G01*
G37*
G36*
G01*
X221455000Y-87709500D02*
X220505000Y-87709500D01*
G75*
G02*
X220255000Y-87459500I0J250000D01*
G01*
X220255000Y-86784500D01*
G75*
G02*
X220505000Y-86534500I250000J0D01*
G01*
X221455000Y-86534500D01*
G75*
G02*
X221705000Y-86784500I0J-250000D01*
G01*
X221705000Y-87459500D01*
G75*
G02*
X221455000Y-87709500I-250000J0D01*
G01*
G37*
%TD*%
D19*
%TO.C,H1*%
X245110000Y-35052000D03*
D20*
X245110000Y-35052000D03*
%TD*%
%TO.C,H2*%
X48387000Y-35560000D03*
D19*
X48387000Y-35560000D03*
%TD*%
%TO.C,H3*%
X48387000Y-170180000D03*
D20*
X48387000Y-170180000D03*
%TD*%
%TO.C,H4*%
X245110000Y-169672000D03*
D19*
X245110000Y-169672000D03*
%TD*%
D16*
%TO.C,J1*%
X205105000Y-156845000D03*
D21*
X205105000Y-154305000D03*
X205105000Y-151765000D03*
X205105000Y-149225000D03*
X205105000Y-146685000D03*
X205105000Y-144145000D03*
X205105000Y-141605000D03*
%TD*%
D22*
%TO.C,P1*%
X233465000Y-48385000D03*
X233465000Y-41785000D03*
X222465000Y-48385000D03*
X222465000Y-41785000D03*
%TD*%
%TO.C,P2*%
X188810000Y-41277000D03*
X188810000Y-47877000D03*
X199810000Y-41277000D03*
X199810000Y-47877000D03*
%TD*%
D23*
%TO.C,Q1*%
X184531000Y-105732000D03*
D24*
X186811000Y-99432000D03*
X182251000Y-99432000D03*
%TD*%
D25*
%TO.C,Q2*%
X191770000Y-99822000D03*
X195580000Y-102362000D03*
D26*
X191770000Y-104862000D03*
%TD*%
%TO.C,Q6*%
G36*
G01*
X214842000Y-74647000D02*
X214842000Y-73397000D01*
G75*
G02*
X215117000Y-73122000I275000J0D01*
G01*
X215667000Y-73122000D01*
G75*
G02*
X215942000Y-73397000I0J-275000D01*
G01*
X215942000Y-74647000D01*
G75*
G02*
X215667000Y-74922000I-275000J0D01*
G01*
X215117000Y-74922000D01*
G75*
G02*
X214842000Y-74647000I0J275000D01*
G01*
G37*
G36*
G01*
X216112000Y-76717000D02*
X216112000Y-75467000D01*
G75*
G02*
X216387000Y-75192000I275000J0D01*
G01*
X216937000Y-75192000D01*
G75*
G02*
X217212000Y-75467000I0J-275000D01*
G01*
X217212000Y-76717000D01*
G75*
G02*
X216937000Y-76992000I-275000J0D01*
G01*
X216387000Y-76992000D01*
G75*
G02*
X216112000Y-76717000I0J275000D01*
G01*
G37*
D27*
X214122000Y-76092000D03*
%TD*%
%TO.C,R6*%
G36*
G01*
X226244999Y-81807000D02*
X227145001Y-81807000D01*
G75*
G02*
X227395000Y-82056999I0J-249999D01*
G01*
X227395000Y-82757001D01*
G75*
G02*
X227145001Y-83007000I-249999J0D01*
G01*
X226244999Y-83007000D01*
G75*
G02*
X225995000Y-82757001I0J249999D01*
G01*
X225995000Y-82056999D01*
G75*
G02*
X226244999Y-81807000I249999J0D01*
G01*
G37*
G36*
G01*
X226244999Y-79807000D02*
X227145001Y-79807000D01*
G75*
G02*
X227395000Y-80056999I0J-249999D01*
G01*
X227395000Y-80757001D01*
G75*
G02*
X227145001Y-81007000I-249999J0D01*
G01*
X226244999Y-81007000D01*
G75*
G02*
X225995000Y-80757001I0J249999D01*
G01*
X225995000Y-80056999D01*
G75*
G02*
X226244999Y-79807000I249999J0D01*
G01*
G37*
%TD*%
%TO.C,R14*%
G36*
G01*
X219652001Y-126060000D02*
X218751999Y-126060000D01*
G75*
G02*
X218502000Y-125810001I0J249999D01*
G01*
X218502000Y-125109999D01*
G75*
G02*
X218751999Y-124860000I249999J0D01*
G01*
X219652001Y-124860000D01*
G75*
G02*
X219902000Y-125109999I0J-249999D01*
G01*
X219902000Y-125810001D01*
G75*
G02*
X219652001Y-126060000I-249999J0D01*
G01*
G37*
G36*
G01*
X219652001Y-124060000D02*
X218751999Y-124060000D01*
G75*
G02*
X218502000Y-123810001I0J249999D01*
G01*
X218502000Y-123109999D01*
G75*
G02*
X218751999Y-122860000I249999J0D01*
G01*
X219652001Y-122860000D01*
G75*
G02*
X219902000Y-123109999I0J-249999D01*
G01*
X219902000Y-123810001D01*
G75*
G02*
X219652001Y-124060000I-249999J0D01*
G01*
G37*
%TD*%
%TO.C,R16*%
G36*
G01*
X176968999Y-98984000D02*
X177869001Y-98984000D01*
G75*
G02*
X178119000Y-99233999I0J-249999D01*
G01*
X178119000Y-99934001D01*
G75*
G02*
X177869001Y-100184000I-249999J0D01*
G01*
X176968999Y-100184000D01*
G75*
G02*
X176719000Y-99934001I0J249999D01*
G01*
X176719000Y-99233999D01*
G75*
G02*
X176968999Y-98984000I249999J0D01*
G01*
G37*
G36*
G01*
X176968999Y-100984000D02*
X177869001Y-100984000D01*
G75*
G02*
X178119000Y-101233999I0J-249999D01*
G01*
X178119000Y-101934001D01*
G75*
G02*
X177869001Y-102184000I-249999J0D01*
G01*
X176968999Y-102184000D01*
G75*
G02*
X176719000Y-101934001I0J249999D01*
G01*
X176719000Y-101233999D01*
G75*
G02*
X176968999Y-100984000I249999J0D01*
G01*
G37*
%TD*%
%TO.C,R18*%
G36*
G01*
X219652001Y-105470000D02*
X218751999Y-105470000D01*
G75*
G02*
X218502000Y-105220001I0J249999D01*
G01*
X218502000Y-104519999D01*
G75*
G02*
X218751999Y-104270000I249999J0D01*
G01*
X219652001Y-104270000D01*
G75*
G02*
X219902000Y-104519999I0J-249999D01*
G01*
X219902000Y-105220001D01*
G75*
G02*
X219652001Y-105470000I-249999J0D01*
G01*
G37*
G36*
G01*
X219652001Y-103470000D02*
X218751999Y-103470000D01*
G75*
G02*
X218502000Y-103220001I0J249999D01*
G01*
X218502000Y-102519999D01*
G75*
G02*
X218751999Y-102270000I249999J0D01*
G01*
X219652001Y-102270000D01*
G75*
G02*
X219902000Y-102519999I0J-249999D01*
G01*
X219902000Y-103220001D01*
G75*
G02*
X219652001Y-103470000I-249999J0D01*
G01*
G37*
%TD*%
D18*
%TO.C,R20*%
X242570000Y-102235000D03*
D28*
X242570000Y-92075000D03*
%TD*%
%TO.C,R21*%
G36*
G01*
X196615000Y-105987001D02*
X196615000Y-105086999D01*
G75*
G02*
X196864999Y-104837000I249999J0D01*
G01*
X197565001Y-104837000D01*
G75*
G02*
X197815000Y-105086999I0J-249999D01*
G01*
X197815000Y-105987001D01*
G75*
G02*
X197565001Y-106237000I-249999J0D01*
G01*
X196864999Y-106237000D01*
G75*
G02*
X196615000Y-105987001I0J249999D01*
G01*
G37*
G36*
G01*
X194615000Y-105987001D02*
X194615000Y-105086999D01*
G75*
G02*
X194864999Y-104837000I249999J0D01*
G01*
X195565001Y-104837000D01*
G75*
G02*
X195815000Y-105086999I0J-249999D01*
G01*
X195815000Y-105987001D01*
G75*
G02*
X195565001Y-106237000I-249999J0D01*
G01*
X194864999Y-106237000D01*
G75*
G02*
X194615000Y-105987001I0J249999D01*
G01*
G37*
%TD*%
D29*
%TO.C,RV1*%
X212090000Y-51562000D03*
X212090000Y-49022000D03*
X212090000Y-46482000D03*
%TD*%
%TO.C,RV2*%
X214249000Y-170434000D03*
X216789000Y-170434000D03*
X219329000Y-170434000D03*
%TD*%
%TO.C,RV3*%
X237490000Y-134620000D03*
X234950000Y-134620000D03*
X232410000Y-134620000D03*
%TD*%
D16*
%TO.C,TP1*%
X231267000Y-170434000D03*
%TD*%
%TO.C,TP2*%
X242189000Y-133858000D03*
%TD*%
%TO.C,TP3*%
X229743000Y-141478000D03*
%TD*%
%TO.C,U1*%
G36*
G01*
X224005000Y-89892000D02*
X224305000Y-89892000D01*
G75*
G02*
X224455000Y-90042000I0J-150000D01*
G01*
X224455000Y-91692000D01*
G75*
G02*
X224305000Y-91842000I-150000J0D01*
G01*
X224005000Y-91842000D01*
G75*
G02*
X223855000Y-91692000I0J150000D01*
G01*
X223855000Y-90042000D01*
G75*
G02*
X224005000Y-89892000I150000J0D01*
G01*
G37*
G36*
G01*
X225275000Y-89892000D02*
X225575000Y-89892000D01*
G75*
G02*
X225725000Y-90042000I0J-150000D01*
G01*
X225725000Y-91692000D01*
G75*
G02*
X225575000Y-91842000I-150000J0D01*
G01*
X225275000Y-91842000D01*
G75*
G02*
X225125000Y-91692000I0J150000D01*
G01*
X225125000Y-90042000D01*
G75*
G02*
X225275000Y-89892000I150000J0D01*
G01*
G37*
G36*
G01*
X226545000Y-89892000D02*
X226845000Y-89892000D01*
G75*
G02*
X226995000Y-90042000I0J-150000D01*
G01*
X226995000Y-91692000D01*
G75*
G02*
X226845000Y-91842000I-150000J0D01*
G01*
X226545000Y-91842000D01*
G75*
G02*
X226395000Y-91692000I0J150000D01*
G01*
X226395000Y-90042000D01*
G75*
G02*
X226545000Y-89892000I150000J0D01*
G01*
G37*
G36*
G01*
X227815000Y-89892000D02*
X228115000Y-89892000D01*
G75*
G02*
X228265000Y-90042000I0J-150000D01*
G01*
X228265000Y-91692000D01*
G75*
G02*
X228115000Y-91842000I-150000J0D01*
G01*
X227815000Y-91842000D01*
G75*
G02*
X227665000Y-91692000I0J150000D01*
G01*
X227665000Y-90042000D01*
G75*
G02*
X227815000Y-89892000I150000J0D01*
G01*
G37*
G36*
G01*
X227815000Y-84942000D02*
X228115000Y-84942000D01*
G75*
G02*
X228265000Y-85092000I0J-150000D01*
G01*
X228265000Y-86742000D01*
G75*
G02*
X228115000Y-86892000I-150000J0D01*
G01*
X227815000Y-86892000D01*
G75*
G02*
X227665000Y-86742000I0J150000D01*
G01*
X227665000Y-85092000D01*
G75*
G02*
X227815000Y-84942000I150000J0D01*
G01*
G37*
G36*
G01*
X226545000Y-84942000D02*
X226845000Y-84942000D01*
G75*
G02*
X226995000Y-85092000I0J-150000D01*
G01*
X226995000Y-86742000D01*
G75*
G02*
X226845000Y-86892000I-150000J0D01*
G01*
X226545000Y-86892000D01*
G75*
G02*
X226395000Y-86742000I0J150000D01*
G01*
X226395000Y-85092000D01*
G75*
G02*
X226545000Y-84942000I150000J0D01*
G01*
G37*
G36*
G01*
X225275000Y-84942000D02*
X225575000Y-84942000D01*
G75*
G02*
X225725000Y-85092000I0J-150000D01*
G01*
X225725000Y-86742000D01*
G75*
G02*
X225575000Y-86892000I-150000J0D01*
G01*
X225275000Y-86892000D01*
G75*
G02*
X225125000Y-86742000I0J150000D01*
G01*
X225125000Y-85092000D01*
G75*
G02*
X225275000Y-84942000I150000J0D01*
G01*
G37*
G36*
G01*
X224005000Y-84942000D02*
X224305000Y-84942000D01*
G75*
G02*
X224455000Y-85092000I0J-150000D01*
G01*
X224455000Y-86742000D01*
G75*
G02*
X224305000Y-86892000I-150000J0D01*
G01*
X224005000Y-86892000D01*
G75*
G02*
X223855000Y-86742000I0J150000D01*
G01*
X223855000Y-85092000D01*
G75*
G02*
X224005000Y-84942000I150000J0D01*
G01*
G37*
%TD*%
D14*
%TO.C,U3*%
X214376000Y-68072000D03*
X214376000Y-65532000D03*
D15*
X214376000Y-62992000D03*
%TD*%
%TO.C,U4*%
X214376000Y-83312000D03*
D14*
X214376000Y-85852000D03*
X214376000Y-88392000D03*
%TD*%
%TO.C,U7*%
G36*
G01*
X198905000Y-111022000D02*
X198605000Y-111022000D01*
G75*
G02*
X198455000Y-110872000I0J150000D01*
G01*
X198455000Y-109222000D01*
G75*
G02*
X198605000Y-109072000I150000J0D01*
G01*
X198905000Y-109072000D01*
G75*
G02*
X199055000Y-109222000I0J-150000D01*
G01*
X199055000Y-110872000D01*
G75*
G02*
X198905000Y-111022000I-150000J0D01*
G01*
G37*
G36*
G01*
X197635000Y-111022000D02*
X197335000Y-111022000D01*
G75*
G02*
X197185000Y-110872000I0J150000D01*
G01*
X197185000Y-109222000D01*
G75*
G02*
X197335000Y-109072000I150000J0D01*
G01*
X197635000Y-109072000D01*
G75*
G02*
X197785000Y-109222000I0J-150000D01*
G01*
X197785000Y-110872000D01*
G75*
G02*
X197635000Y-111022000I-150000J0D01*
G01*
G37*
G36*
G01*
X196365000Y-111022000D02*
X196065000Y-111022000D01*
G75*
G02*
X195915000Y-110872000I0J150000D01*
G01*
X195915000Y-109222000D01*
G75*
G02*
X196065000Y-109072000I150000J0D01*
G01*
X196365000Y-109072000D01*
G75*
G02*
X196515000Y-109222000I0J-150000D01*
G01*
X196515000Y-110872000D01*
G75*
G02*
X196365000Y-111022000I-150000J0D01*
G01*
G37*
G36*
G01*
X195095000Y-111022000D02*
X194795000Y-111022000D01*
G75*
G02*
X194645000Y-110872000I0J150000D01*
G01*
X194645000Y-109222000D01*
G75*
G02*
X194795000Y-109072000I150000J0D01*
G01*
X195095000Y-109072000D01*
G75*
G02*
X195245000Y-109222000I0J-150000D01*
G01*
X195245000Y-110872000D01*
G75*
G02*
X195095000Y-111022000I-150000J0D01*
G01*
G37*
G36*
G01*
X195095000Y-115972000D02*
X194795000Y-115972000D01*
G75*
G02*
X194645000Y-115822000I0J150000D01*
G01*
X194645000Y-114172000D01*
G75*
G02*
X194795000Y-114022000I150000J0D01*
G01*
X195095000Y-114022000D01*
G75*
G02*
X195245000Y-114172000I0J-150000D01*
G01*
X195245000Y-115822000D01*
G75*
G02*
X195095000Y-115972000I-150000J0D01*
G01*
G37*
G36*
G01*
X196365000Y-115972000D02*
X196065000Y-115972000D01*
G75*
G02*
X195915000Y-115822000I0J150000D01*
G01*
X195915000Y-114172000D01*
G75*
G02*
X196065000Y-114022000I150000J0D01*
G01*
X196365000Y-114022000D01*
G75*
G02*
X196515000Y-114172000I0J-150000D01*
G01*
X196515000Y-115822000D01*
G75*
G02*
X196365000Y-115972000I-150000J0D01*
G01*
G37*
G36*
G01*
X197635000Y-115972000D02*
X197335000Y-115972000D01*
G75*
G02*
X197185000Y-115822000I0J150000D01*
G01*
X197185000Y-114172000D01*
G75*
G02*
X197335000Y-114022000I150000J0D01*
G01*
X197635000Y-114022000D01*
G75*
G02*
X197785000Y-114172000I0J-150000D01*
G01*
X197785000Y-115822000D01*
G75*
G02*
X197635000Y-115972000I-150000J0D01*
G01*
G37*
G36*
G01*
X198905000Y-115972000D02*
X198605000Y-115972000D01*
G75*
G02*
X198455000Y-115822000I0J150000D01*
G01*
X198455000Y-114172000D01*
G75*
G02*
X198605000Y-114022000I150000J0D01*
G01*
X198905000Y-114022000D01*
G75*
G02*
X199055000Y-114172000I0J-150000D01*
G01*
X199055000Y-115822000D01*
G75*
G02*
X198905000Y-115972000I-150000J0D01*
G01*
G37*
%TD*%
%TO.C,U10*%
G36*
G01*
X179855000Y-115972000D02*
X179555000Y-115972000D01*
G75*
G02*
X179405000Y-115822000I0J150000D01*
G01*
X179405000Y-114172000D01*
G75*
G02*
X179555000Y-114022000I150000J0D01*
G01*
X179855000Y-114022000D01*
G75*
G02*
X180005000Y-114172000I0J-150000D01*
G01*
X180005000Y-115822000D01*
G75*
G02*
X179855000Y-115972000I-150000J0D01*
G01*
G37*
G36*
G01*
X178585000Y-115972000D02*
X178285000Y-115972000D01*
G75*
G02*
X178135000Y-115822000I0J150000D01*
G01*
X178135000Y-114172000D01*
G75*
G02*
X178285000Y-114022000I150000J0D01*
G01*
X178585000Y-114022000D01*
G75*
G02*
X178735000Y-114172000I0J-150000D01*
G01*
X178735000Y-115822000D01*
G75*
G02*
X178585000Y-115972000I-150000J0D01*
G01*
G37*
G36*
G01*
X177315000Y-115972000D02*
X177015000Y-115972000D01*
G75*
G02*
X176865000Y-115822000I0J150000D01*
G01*
X176865000Y-114172000D01*
G75*
G02*
X177015000Y-114022000I150000J0D01*
G01*
X177315000Y-114022000D01*
G75*
G02*
X177465000Y-114172000I0J-150000D01*
G01*
X177465000Y-115822000D01*
G75*
G02*
X177315000Y-115972000I-150000J0D01*
G01*
G37*
G36*
G01*
X176045000Y-115972000D02*
X175745000Y-115972000D01*
G75*
G02*
X175595000Y-115822000I0J150000D01*
G01*
X175595000Y-114172000D01*
G75*
G02*
X175745000Y-114022000I150000J0D01*
G01*
X176045000Y-114022000D01*
G75*
G02*
X176195000Y-114172000I0J-150000D01*
G01*
X176195000Y-115822000D01*
G75*
G02*
X176045000Y-115972000I-150000J0D01*
G01*
G37*
G36*
G01*
X176045000Y-111022000D02*
X175745000Y-111022000D01*
G75*
G02*
X175595000Y-110872000I0J150000D01*
G01*
X175595000Y-109222000D01*
G75*
G02*
X175745000Y-109072000I150000J0D01*
G01*
X176045000Y-109072000D01*
G75*
G02*
X176195000Y-109222000I0J-150000D01*
G01*
X176195000Y-110872000D01*
G75*
G02*
X176045000Y-111022000I-150000J0D01*
G01*
G37*
G36*
G01*
X177315000Y-111022000D02*
X177015000Y-111022000D01*
G75*
G02*
X176865000Y-110872000I0J150000D01*
G01*
X176865000Y-109222000D01*
G75*
G02*
X177015000Y-109072000I150000J0D01*
G01*
X177315000Y-109072000D01*
G75*
G02*
X177465000Y-109222000I0J-150000D01*
G01*
X177465000Y-110872000D01*
G75*
G02*
X177315000Y-111022000I-150000J0D01*
G01*
G37*
G36*
G01*
X178585000Y-111022000D02*
X178285000Y-111022000D01*
G75*
G02*
X178135000Y-110872000I0J150000D01*
G01*
X178135000Y-109222000D01*
G75*
G02*
X178285000Y-109072000I150000J0D01*
G01*
X178585000Y-109072000D01*
G75*
G02*
X178735000Y-109222000I0J-150000D01*
G01*
X178735000Y-110872000D01*
G75*
G02*
X178585000Y-111022000I-150000J0D01*
G01*
G37*
G36*
G01*
X179855000Y-111022000D02*
X179555000Y-111022000D01*
G75*
G02*
X179405000Y-110872000I0J150000D01*
G01*
X179405000Y-109222000D01*
G75*
G02*
X179555000Y-109072000I150000J0D01*
G01*
X179855000Y-109072000D01*
G75*
G02*
X180005000Y-109222000I0J-150000D01*
G01*
X180005000Y-110872000D01*
G75*
G02*
X179855000Y-111022000I-150000J0D01*
G01*
G37*
%TD*%
M02*
